<?xml version="1.0" encoding="UTF-8"?>
<svg width="97px" height="16px" viewBox="0 0 97 16" version="1.1" xmlns="http://www.w3.org/2000/svg" xmlns:xlink="http://www.w3.org/1999/xlink">
    <!-- Generator: Sketch 48.2 (47327) - http://www.bohemiancoding.com/sketch -->
    <title>LAMDEN</title>
    <desc>Created with Sketch.</desc>
    <defs></defs>
    <g id="about_token" stroke="none" stroke-width="1" fill="none" fill-rule="evenodd" transform="translate(-149.000000, -21.000000)">
        <g id="Group-4" transform="translate(90.000000, 5.000000)" fill="#FFFFFF">
            <path d="M59.8,16.5769231 L63.0266609,16.5769231 L63.0266609,28.2962842 L69.0042571,28.2962842 L69.0042571,31.2884615 L59.8,31.2884615 L59.8,16.5769231 Z M77.1536444,16.5769231 L79.8218448,16.5769231 L86.1924317,31.2884615 L82.5520963,31.2884615 L81.2903892,28.1716102 L75.6023651,28.1716102 L74.3820254,31.2884615 L70.8244249,31.2884615 L77.1536444,16.5769231 Z M78.3946678,20.857399 L76.6158676,25.428781 L80.1941518,25.428781 L78.3946678,20.857399 Z M89.2122554,16.5769231 L94.0936143,16.5769231 L97.4650613,26.1768253 L97.5064287,26.1768253 L100.898559,16.5769231 L105.759235,16.5769231 L105.759235,31.2884615 L102.532574,31.2884615 L102.532574,20.0054596 L102.491206,20.0054596 L98.6440335,31.2884615 L96.1826704,31.2884615 L92.4802838,20.0054596 L92.4389164,20.0054596 L92.4389164,31.2884615 L89.2122554,31.2884615 L89.2122554,16.5769231 Z M110.28897,16.5769231 L115.128962,16.5769231 C116.301045,16.5769231 117.414508,16.7085222 118.469383,16.9717243 C119.524258,17.2349263 120.444675,17.6608918 121.23066,18.2496333 C122.016646,18.8383748 122.640598,19.6037274 123.102537,20.5457138 C123.564476,21.4877003 123.795442,22.6305344 123.795442,23.9742503 C123.795442,25.1655861 123.57137,26.2149156 123.123221,27.1222702 C122.675071,28.0296248 122.071802,28.7915142 121.313395,29.4079612 C120.554988,30.0244082 119.679386,30.4919313 118.686562,30.8105443 C117.693738,31.1291574 116.652668,31.2884615 115.56332,31.2884615 L110.28897,31.2884615 L110.28897,16.5769231 Z M113.515631,28.2962842 L115.191013,28.2962842 C115.93563,28.2962842 116.628528,28.2200953 117.269727,28.0677151 C117.910926,27.915335 118.465933,27.6625262 118.934767,27.3092813 C119.4036,26.9560364 119.772456,26.4919765 120.041346,25.9170877 C120.310236,25.3421989 120.444679,24.6391828 120.444679,23.8080183 C120.444679,23.0876757 120.310236,22.4608485 120.041346,21.9275179 C119.772456,21.3941874 119.410495,20.9543694 118.95545,20.6080508 C118.500406,20.2617323 117.966082,20.0019973 117.352462,19.828838 C116.738842,19.6556787 116.094205,19.5691004 115.418534,19.5691004 L113.515631,19.5691004 L113.515631,28.2962842 Z M127.663298,16.5769231 L137.612169,16.5769231 L137.612169,19.5691004 L130.889959,19.5691004 L130.889959,22.3119296 L137.239862,22.3119296 L137.239862,25.3041069 L130.889959,25.3041069 L130.889959,28.2962842 L137.984476,28.2962842 L137.984476,31.2884615 L127.663298,31.2884615 L127.663298,16.5769231 Z M142.121221,16.5769231 L146.506171,16.5769231 L152.731972,26.8001956 L152.773339,26.8001956 L152.773339,16.5769231 L156,16.5769231 L156,31.2884615 L151.78052,31.2884615 L145.38925,20.8158409 L145.347882,20.8158409 L145.347882,31.2884615 L142.121221,31.2884615 L142.121221,16.5769231 Z" id="LAMDEN"></path>
        </g>
    </g>
</svg>