<svg width="200" height="150" viewBox="0 0 800 600" fill="none" xmlns="http://www.w3.org/2000/svg" data-reactroot="">
<path d="M778.15 546.896V552.886C778.15 560.096 772.25 566.006 765.03 566.006H34.1299C26.9099 566.006 21 560.096 21 552.886V546.896C21 523.714 39.9674 504.746 63.1499 504.746H63.1499C79.1828 504.746 92.1799 491.749 92.1799 475.716V453.506C92.1799 439.876 103.24 428.816 116.88 428.816H396.2C409.84 428.816 420.89 439.876 420.89 453.506V475.716C420.89 491.749 433.887 504.746 449.92 504.746H736C759.182 504.746 778.15 523.714 778.15 546.896Z" fill="#4fb8ff"></path>
<path d="M671.866 177.549H610.516C607.978 177.549 605.92 175.491 605.92 172.953V172.953C605.92 170.415 607.978 168.357 610.516 168.357H671.866C674.405 168.357 676.462 170.415 676.462 172.953V172.953C676.462 175.491 674.405 177.549 671.866 177.549Z" fill="#4fb8ff"></path>
<path d="M648.824 159.556H610.516C607.978 159.556 605.92 157.498 605.92 154.96V154.96C605.92 152.422 607.978 150.364 610.516 150.364H648.824C651.362 150.364 653.42 152.422 653.42 154.96V154.96C653.42 157.498 651.362 159.556 648.824 159.556Z" fill="#4fb8ff"></path>
<path d="M150.971 186.626L133.771 186.74C130.686 186.74 128.186 184.239 128.186 181.155V151.191C128.186 148.107 130.686 145.606 133.771 145.606L150.971 145.492C154.056 145.492 156.556 147.993 156.556 151.078V181.041C156.556 184.126 154.056 186.626 150.971 186.626Z" fill="#9f8aff"></path>
<path d="M604.399 197.908H642.713C654.972 197.908 664.909 207.846 664.909 220.104V312.632C664.909 324.891 674.847 334.829 687.106 334.829H702.193C714.452 334.829 724.39 344.767 724.39 357.026V399.864C724.39 412.123 714.452 422.06 702.193 422.06H608.766C596.507 422.06 586.569 431.998 586.569 444.257V483.23C586.569 495.489 576.631 505.427 564.372 505.427H314.495C302.236 505.427 292.298 495.489 292.298 483.23" stroke="#005B9D" stroke-miterlimit="10" stroke-linecap="round"></path>
<path d="M463.846 71.2761V71.2761C463.846 68.7732 465.875 66.7441 468.378 66.7441H584.931C587.434 66.7441 589.463 68.7732 589.463 71.2761V71.2761C589.463 73.779 587.434 75.808 584.931 75.808H468.378C465.875 75.808 463.846 73.779 463.846 71.2761Z" fill="#461bc2"></path>
<path d="M634.553 258.675C630.887 258.675 627.915 255.703 627.915 252.037V139.696C627.915 136.03 630.887 133.058 634.553 133.058C638.219 133.058 641.191 136.03 641.191 139.696V252.037C641.191 255.703 638.219 258.675 634.553 258.675Z" stroke="#005B9D" stroke-miterlimit="10"></path>
<path d="M157.483 381.088L257.026 71.2764V310.151L163.884 398.458L157.483 381.088Z" fill="#9f8aff"></path>
<path d="M617.603 451.799H670.071" stroke="#005B9D" stroke-miterlimit="10" stroke-linecap="round"></path>
<path d="M683.858 451.799H736.326" stroke="#005B9D" stroke-miterlimit="10" stroke-linecap="round"></path>
<path d="M617.603 465.586H698.666" stroke="#005B9D" stroke-miterlimit="10" stroke-linecap="round"></path>
<path d="M704.26 465.586H736.326" stroke="#005B9D" stroke-miterlimit="10" stroke-linecap="round"></path>
<path d="M677.23 451.799C677.23 452.211 676.897 452.544 676.485 452.544C676.074 452.544 675.741 452.211 675.741 451.799C675.741 451.388 676.074 451.055 676.485 451.055C676.897 451.055 677.23 451.388 677.23 451.799Z" fill="#190065" stroke="#005B9D"></path>
<path d="M662.344 554.967H232.991C219.412 554.967 208.403 543.958 208.403 530.379V530.379H686.932V530.379C686.932 543.958 675.924 554.967 662.344 554.967Z" fill="#461bc2"></path>
<path d="M204.821 534.265H204.821C195.13 537.836 184.38 532.875 180.809 523.184L54.305 179.883C50.734 170.193 55.6951 159.442 65.386 155.871L65.386 155.871L204.821 534.265Z" fill="#461bc2"></path>
<path d="M209.517 528.296L71.4568 153.633L65.3857 155.87L204.821 534.265L208.403 532.945V534.443H686.932V528.296H209.517Z" fill="#9f8aff"></path>
<path d="M645.029 541.075C643.024 541.075 641.399 542.7 641.399 544.705C641.399 546.71 643.024 548.335 645.029 548.335C647.034 548.335 648.659 546.71 648.659 544.705C648.659 542.7 647.034 541.075 645.029 541.075Z" fill="#9f8aff"></path>
<path d="M625.273 541.075C623.268 541.075 621.643 542.7 621.643 544.705C621.643 546.71 623.268 548.335 625.273 548.335C627.278 548.335 628.903 546.71 628.903 544.705C628.903 542.7 627.278 541.075 625.273 541.075Z" fill="#9f8aff"></path>
<path d="M362.313 536.5H361.888C360.895 536.5 360.089 537.305 360.089 538.299V551.112C360.089 552.105 360.895 552.91 361.888 552.91H362.313C363.307 552.91 364.112 552.105 364.112 551.112V538.299C364.112 537.305 363.307 536.5 362.313 536.5Z" fill="black" fill-opacity="0.41"></path>
<path d="M374.114 536.5H373.688C372.695 536.5 371.89 537.305 371.89 538.299V551.112C371.89 552.105 372.695 552.91 373.688 552.91H374.114C375.107 552.91 375.912 552.105 375.912 551.112V538.299C375.912 537.305 375.107 536.5 374.114 536.5Z" fill="black" fill-opacity="0.41"></path>
<path d="M385.914 536.5H385.489C384.495 536.5 383.69 537.305 383.69 538.299V551.112C383.69 552.105 384.495 552.91 385.489 552.91H385.914C386.907 552.91 387.713 552.105 387.713 551.112V538.299C387.713 537.305 386.907 536.5 385.914 536.5Z" fill="black" fill-opacity="0.41"></path>
<path d="M397.714 536.5H397.289C396.295 536.5 395.49 537.305 395.49 538.299V551.112C395.49 552.105 396.295 552.91 397.289 552.91H397.714C398.708 552.91 399.513 552.105 399.513 551.112V538.299C399.513 537.305 398.708 536.5 397.714 536.5Z" fill="black" fill-opacity="0.41"></path>
<path d="M241.673 537.79C237.854 537.79 234.757 540.886 234.757 544.706C234.757 548.525 237.854 551.621 241.673 551.621C245.492 551.621 248.588 548.525 248.588 544.706C248.588 540.886 245.492 537.79 241.673 537.79Z" fill="black" fill-opacity="0.41"></path>
<path d="M283.908 536.659H265.412C261.386 536.659 258.543 540.604 259.816 544.424L261.247 548.717C262.05 551.126 264.304 552.751 266.843 552.751H282.477C285.016 552.751 287.27 551.126 288.073 548.717L289.504 544.424C290.778 540.604 287.934 536.659 283.908 536.659Z" fill="black" fill-opacity="0.41"></path>
<path d="M606.142 310.151H257.026V71.2764H606.142C621.833 71.2764 634.553 83.9963 634.553 99.6871V281.74C634.553 297.431 621.833 310.151 606.142 310.151Z" fill="#9f8aff"></path>
<path d="M350.802 123.22H604.398" stroke="#005B9D" stroke-width="3" stroke-miterlimit="10"></path>
<path d="M327.569 34.9268H257.026V346.5H327.569V34.9268Z" fill="#461bc2"></path>
<path d="M327.569 34.9268H257.026V92.0987H327.569V34.9268Z" fill="#461bc2"></path>
<path d="M327.569 92.0986H257.026V101.29H327.569V92.0986Z" fill="#4fb8ff"></path>
<path d="M327.569 34H257.026V44.1182H327.569V34Z" fill="#4fb8ff"></path>
<path d="M319.655 110.099H264.94V114.694H319.655V110.099Z" fill="#9f8aff"></path>
<path d="M319.655 121.588H264.94V126.184H319.655V121.588Z" fill="#9f8aff"></path>
<path d="M319.655 133.077H264.94V137.673H319.655V133.077Z" fill="#9f8aff"></path>
<path d="M319.655 144.567H264.94V149.163H319.655V144.567Z" fill="#9f8aff"></path>
<path d="M319.655 156.056H264.94V160.652H319.655V156.056Z" fill="#9f8aff"></path>
<path d="M319.655 167.545H264.94V172.141H319.655V167.545Z" fill="#9f8aff"></path>
<path d="M327.569 353.958H257.026V358.554H327.569V353.958Z" fill="#461bc2"></path>
<path d="M327.569 365.448H257.026V370.043H327.569V365.448Z" fill="#461bc2"></path>
<path d="M327.569 376.937H257.026V381.533H327.569V376.937Z" fill="#4fb8ff"></path>
<path d="M264.94 57.2378H319.655" stroke="#FFE458" stroke-width="5" stroke-miterlimit="10"></path>
<path d="M264.94 71.8008H319.655" stroke="#FFE458" stroke-width="5" stroke-miterlimit="10"></path>
<path d="M603.42 107.135H569.718V111.731H603.42V107.135Z" fill="#461bc2"></path>
<path d="M384.504 107.135H350.802V111.731H384.504V107.135Z" fill="#461bc2"></path>
<path d="M474.282 134.711H356.402V232.162H474.282V134.711Z" fill="#461bc2"></path>
<path d="M391.797 148.537H363.665V152.256H391.797V148.537Z" fill="#4fb8ff"></path>
<path d="M427.287 148.537H399.154V152.256H427.287V148.537Z" fill="#4fb8ff"></path>
<path d="M391.797 157.834H363.665V161.553H391.797V157.834Z" fill="#4fb8ff"></path>
<path d="M427.287 157.834H399.154V161.553H427.287V157.834Z" fill="#4fb8ff"></path>
<path d="M462.615 148.537H434.483V152.256H462.615V148.537Z" fill="#4fb8ff"></path>
<path d="M391.797 176.428H363.665V180.147H391.797V176.428Z" fill="#4fb8ff"></path>
<path d="M462.615 157.834H434.483V161.553H462.615V157.834Z" fill="#4fb8ff"></path>
<path d="M391.797 185.725H363.665V189.444H391.797V185.725Z" fill="#4fb8ff"></path>
<path d="M427.287 185.725H399.154V189.444H427.287V185.725Z" fill="#4fb8ff"></path>
<path d="M462.615 176.428H434.483V189.444H462.615V176.428Z" fill="#4fb8ff"></path>
<path d="M427.287 176.428H399.154V180.147H427.287V176.428Z" fill="#4fb8ff"></path>
<path d="M356.402 251.734H474.282" stroke="#005B9D" stroke-width="9" stroke-miterlimit="10"></path>
<path d="M356.402 271.307H474.282" stroke="#005B9D" stroke-width="9" stroke-miterlimit="10"></path>
<path d="M556.442 168.836C575.285 168.836 590.615 184.166 590.615 203.009C590.615 221.852 575.285 237.182 556.442 237.182C537.599 237.182 522.269 221.852 522.269 203.009C522.269 184.166 537.599 168.836 556.442 168.836ZM556.442 154.836C529.836 154.836 508.269 176.404 508.269 203.009C508.269 229.615 529.836 251.182 556.442 251.182C583.047 251.182 604.615 229.615 604.615 203.009C604.615 176.404 583.047 154.836 556.442 154.836Z" fill="#461bc2"></path>
<path d="M556.442 195.84C552.482 195.84 549.271 199.05 549.271 203.01C549.271 206.97 552.482 210.181 556.442 210.181C560.402 210.181 563.612 206.97 563.612 203.01C563.612 199.05 560.402 195.84 556.442 195.84Z" fill="#461bc2"></path>
<path d="M521.231 388.557H361.583V478.882H521.231V388.557Z" fill="#461bc2"></path>
<path d="M435.448 422.278H380.732V426.874H435.448V422.278Z" fill="#4fb8ff"></path>
<path d="M502.082 432.427H380.732V437.023H502.082V432.427Z" fill="#4fb8ff"></path>
<path d="M431.724 465.063H397.639C395.265 465.063 393.34 463.139 393.34 460.765V458.83C393.34 456.456 395.265 454.531 397.639 454.531H431.724C434.098 454.531 436.022 456.456 436.022 458.83V460.765C436.022 463.139 434.098 465.063 431.724 465.063Z" stroke="#FFE458" stroke-miterlimit="10"></path>
<path d="M485.177 465.063H451.091C448.717 465.063 446.793 463.139 446.793 460.765V458.83C446.793 456.456 448.717 454.531 451.091 454.531H485.177C487.551 454.531 489.475 456.456 489.475 458.83V460.765C489.475 463.139 487.551 465.063 485.177 465.063Z" fill="#9f8aff"></path>
<path d="M352.301 404.84H530.514" stroke="#78D2EE" stroke-miterlimit="10"></path>
<path d="M372.575 331.051H354.374V349.253H372.575V331.051Z" fill="#4fb8ff"></path>
<path d="M411.542 331.051H393.34V349.253H411.542V331.051Z" fill="#461bc2"></path>
<path d="M450.508 331.051H432.307V349.253H450.508V331.051Z" fill="#461bc2"></path>
<path d="M489.475 331.051H471.273V349.253H489.475V331.051Z" fill="#461bc2"></path>
<path d="M528.442 331.051H510.24V349.253H528.442V331.051Z" fill="#461bc2"></path>
<path d="M189.767 375.946C192.094 383.694 192.481 389.161 190.364 390.233C186.534 392.173 175.955 378.993 166.736 360.794C157.518 342.595 153.149 326.269 156.979 324.329C159.37 323.118 164.389 327.796 170.065 335.909" stroke="#78D2EE" stroke-width="2" stroke-miterlimit="10"></path>
<path d="M219.573 350.986C221.07 356.73 221.24 360.459 219.764 361.206C215.934 363.147 202.467 344.265 189.685 319.032C176.904 293.8 169.647 271.772 173.477 269.832C175.53 268.792 180.351 273.733 186.35 282.427" stroke="#78D2EE" stroke-width="2" stroke-miterlimit="10"></path>
<path d="M247.895 318.808C251.039 327.977 252.116 333.885 250.454 334.727C246.624 336.667 229.691 310.943 212.634 277.271C195.577 243.598 184.855 214.729 188.685 212.788C190.686 211.775 196.265 218.313 203.568 229.592" stroke="#78D2EE" stroke-width="2" stroke-miterlimit="10"></path>
<path d="M292.298 483.231V298.241" stroke="#78D2EE" stroke-miterlimit="10" stroke-dasharray="7.31 7.31"></path>
<path d="M310.372 302.688H274.223C272.043 302.688 270.276 300.921 270.276 298.741C270.276 296.561 272.043 294.794 274.223 294.794H310.372C312.552 294.794 314.319 296.561 314.319 298.741C314.319 300.921 312.552 302.688 310.372 302.688Z" fill="#4fb8ff"></path>
<path d="M310.372 286.986H274.223C272.043 286.986 270.276 285.219 270.276 283.039V283.039C270.276 280.859 272.043 279.092 274.223 279.092H310.372C312.552 279.092 314.319 280.859 314.319 283.039V283.039C314.319 285.219 312.552 286.986 310.372 286.986Z" fill="#F1F2F2"></path>
<path d="M292.298 306.209C296.422 306.209 299.766 302.866 299.766 298.741C299.766 294.617 296.422 291.273 292.298 291.273C288.173 291.273 284.83 294.617 284.83 298.741C284.83 302.866 288.173 306.209 292.298 306.209Z" fill="#9f8aff"></path>
<path d="M468.134 467.265C472.259 467.265 475.602 463.922 475.602 459.797C475.602 455.673 472.259 452.329 468.134 452.329C464.01 452.329 460.666 455.673 460.666 459.797C460.666 463.922 464.01 467.265 468.134 467.265Z" fill="#4fb8ff"></path>
<path d="M102.398 160.797H166.029" stroke="#005B9D" stroke-miterlimit="10"></path>
<path d="M120.301 172.953H166.028" stroke="#005B9D" stroke-miterlimit="10"></path>
<path d="M699.04 211.395L716.24 211.281C719.325 211.281 721.826 213.781 721.826 216.866V246.83C721.826 249.914 719.325 252.415 716.24 252.415L699.04 252.529C695.956 252.529 693.455 250.028 693.455 246.943V216.98C693.455 213.895 695.956 211.395 699.04 211.395Z" fill="#4fb8ff"></path>
<path d="M747.613 237.224H683.983" stroke="#005B9D" stroke-miterlimit="10" stroke-linecap="round"></path>
<path d="M729.711 225.068H683.983" stroke="#005B9D" stroke-miterlimit="10" stroke-linecap="round"></path>
<path d="M555.246 216.372V453.893C555.246 457.154 552.603 459.797 549.342 459.797H468.134" stroke="#78D2EE" stroke-miterlimit="10" stroke-dasharray="7.31 7.31"></path>
<path d="M664.936 263.47C662.398 263.47 660.34 265.528 660.34 268.066V308.199C660.34 310.737 662.398 312.794 664.936 312.794C667.474 312.794 669.532 310.737 669.532 308.199V268.066C669.532 265.528 667.474 263.47 664.936 263.47Z" fill="#461bc2"></path>
<path d="M723.89 353.931C721.351 353.931 719.294 355.989 719.294 358.527V398.66C719.294 401.198 721.351 403.256 723.89 403.256C726.428 403.256 728.485 401.198 728.485 398.66V358.527C728.485 355.989 726.428 353.931 723.89 353.931Z" fill="#461bc2"></path>
<path d="M292.298 409.06C289.76 409.06 287.702 411.118 287.702 413.656V453.789C287.702 456.327 289.76 458.384 292.298 458.384C294.836 458.384 296.894 456.327 296.894 453.789V413.656C296.894 411.118 294.836 409.06 292.298 409.06Z" fill="#461bc2"></path>
<path d="M637.271 373.881C639.39 373.881 641.108 372.163 641.108 370.043C641.108 367.924 639.39 366.206 637.271 366.206C635.151 366.206 633.433 367.924 633.433 370.043C633.433 372.163 635.151 373.881 637.271 373.881Z" fill="#09213E"></path>
<path d="M723.89 120.515C726.009 120.515 727.728 118.797 727.728 116.677C727.728 114.558 726.009 112.839 723.89 112.839C721.77 112.839 720.052 114.558 720.052 116.677C720.052 118.797 721.77 120.515 723.89 120.515Z" stroke="#005B9D" stroke-miterlimit="10"></path>
<path d="M102.398 63.2607C104.518 63.2607 106.236 61.5424 106.236 59.4228C106.236 57.3032 104.518 55.585 102.398 55.585C100.279 55.585 98.5605 57.3032 98.5605 59.4228C98.5605 61.5424 100.279 63.2607 102.398 63.2607Z" fill="#461bc2"></path>
<path d="M679.615 43.9062V66.5323" stroke="#005B9D" stroke-miterlimit="10"></path>
<path d="M686.535 43.9062V66.5323" stroke="#005B9D" stroke-miterlimit="10"></path>
<path d="M693.456 43.9062V66.5323" stroke="#005B9D" stroke-miterlimit="10"></path>
<path d="M700.376 43.9062V66.5323" stroke="#005B9D" stroke-miterlimit="10"></path>
<path d="M707.296 43.9062V66.5323" stroke="#005B9D" stroke-miterlimit="10"></path>
<path d="M51.5454 402.271V424.897" stroke="#005B9D" stroke-miterlimit="10" stroke-linecap="round"></path>
<path d="M58.4658 402.271V424.897" stroke="#005B9D" stroke-miterlimit="10" stroke-linecap="round"></path>
<path d="M65.3862 402.271V424.897" stroke="#005B9D" stroke-miterlimit="10" stroke-linecap="round"></path>
<path d="M72.3066 402.271V424.897" stroke="#005B9D" stroke-miterlimit="10" stroke-linecap="round"></path>
<path d="M79.2266 402.271V424.897" stroke="#005B9D" stroke-miterlimit="10" stroke-linecap="round"></path>
</svg>
