<?xml version="1.0" encoding="UTF-8" standalone="no"?><!-- Generator: Gravit.io --><svg xmlns="http://www.w3.org/2000/svg" xmlns:xlink="http://www.w3.org/1999/xlink" style="isolation:isolate" viewBox="0 0 200 150" width="200pt" height="150pt"><defs><clipPath id="_clipPath_xGgmFCeQdHUn8dJuQdIqzvQHsc78GPTB"><rect width="200" height="150"/></clipPath></defs><g clip-path="url(#_clipPath_xGgmFCeQdHUn8dJuQdIqzvQHsc78GPTB)"><path d=" M 61.541 23.776 L 17.379 23.776 C 14.519 23.776 12.194 21.452 12.194 18.591 L 12.194 15.731 C 12.194 12.87 14.519 10.546 17.379 10.546 L 61.541 10.546 C 64.402 10.546 66.726 12.87 66.726 15.731 L 66.726 18.591 C 66.726 21.452 64.402 23.776 61.541 23.776 Z " fill="rgb(79,184,255)"/><path d=" M 150.939 31.286 L 96.407 31.286 L 96.407 35.755 L 150.939 35.755 L 150.939 31.286 Z " fill="rgb(70,27,194)"/><path d=" M 150.939 41.12 L 96.407 41.12 L 96.407 45.589 L 150.939 45.589 L 150.939 41.12 Z " fill="rgb(70,27,194)"/><path d=" M 169.89 63.289 L 115.359 63.289 L 115.359 67.759 L 169.89 67.759 L 169.89 63.289 Z " fill="rgb(70,27,194)"/><path d=" M 169.89 73.123 L 115.359 73.123 L 115.359 77.593 L 169.89 77.593 L 169.89 73.123 Z " fill="rgb(70,27,194)"/><path d=" M 169.89 95.472 L 115.359 95.472 L 115.359 99.942 L 169.89 99.942 L 169.89 95.472 Z " fill="rgb(70,27,194)"/><path d=" M 169.89 105.127 L 115.359 105.127 L 115.359 109.596 L 169.89 109.596 L 169.89 105.127 Z " fill="rgb(70,27,194)"/><path d=" M 169.89 114.96 L 115.359 114.96 L 115.359 119.429 L 169.89 119.429 L 169.89 114.96 Z " fill="rgb(70,27,194)"/><path d=" M 71.909 33.431 C 77.809 33.431 78.703 30.213 78.703 27.352 C 78.703 25.028 78.346 22.703 77.988 20.379 C 77.631 18.055 77.273 15.731 77.273 13.406 C 77.273 5.718 82.279 2.5 89.252 2.5 L 91.04 2.5 L 91.04 7.149 L 89.61 7.149 C 84.782 7.149 82.994 9.83 82.994 14.3 C 82.994 16.267 83.173 18.234 83.531 20.2 C 83.888 22.346 84.067 24.313 84.067 26.458 C 84.067 31.822 81.743 34.504 78.167 35.398 L 78.167 35.576 C 81.922 36.47 84.246 39.331 84.067 44.695 C 84.067 47.019 83.888 48.986 83.531 50.953 C 83.173 53.098 82.994 54.886 82.994 56.853 C 82.994 61.501 84.961 64.004 89.61 64.004 L 91.04 64.004 L 91.04 68.832 L 89.252 68.832 C 82.279 68.832 77.273 65.792 77.273 57.389 C 77.273 55.065 77.631 52.74 77.988 50.595 C 78.346 48.271 78.703 46.125 78.703 43.801 C 78.703 41.298 77.809 37.722 71.909 37.722 L 71.909 33.431 Z " fill="rgb(159,138,255)"/><path d=" M 194.384 116.569 C 188.484 116.569 187.59 119.788 187.59 122.648 C 187.59 124.973 187.947 127.297 188.305 129.621 C 188.662 131.945 189.02 134.27 189.02 136.594 C 189.02 144.282 184.014 147.5 177.041 147.5 L 175.253 147.5 L 175.253 142.852 L 176.683 142.852 C 181.511 142.852 183.299 140.17 183.299 135.7 C 183.299 133.733 183.12 131.767 182.762 129.8 C 182.405 127.654 182.226 125.688 182.226 123.542 C 182.226 118.178 184.55 115.497 188.126 114.603 L 188.126 114.424 C 184.371 113.53 182.047 110.669 182.226 105.306 C 182.226 102.981 182.405 101.015 182.762 99.048 C 183.12 96.902 183.299 95.114 183.299 93.148 C 183.299 88.499 181.332 85.996 176.683 85.996 L 175.253 85.996 L 175.253 81.348 L 177.041 81.348 C 184.014 81.348 189.02 84.387 189.02 92.79 C 189.02 95.114 188.662 97.439 188.305 99.584 C 187.947 101.909 187.59 104.054 187.59 106.378 C 187.59 108.881 188.484 112.457 194.384 112.457 L 194.384 116.569 Z " fill="rgb(159,138,255)"/><path d="M 30.596 85.031 L 89.649 85.031 C 90.417 85.031 91.04 85.654 91.04 86.422 L 91.04 122.809 C 91.04 123.577 90.417 124.2 89.649 124.2 L 30.596 124.2 C 29.829 124.2 29.206 123.577 29.206 122.809 L 29.206 86.422 C 29.206 85.654 29.829 85.031 30.596 85.031 Z" style="stroke:none;fill:#461BC2;stroke-miterlimit:10;"/><g style="mix-blend-mode:normal;" opacity="0.3"><path d="M 30.596 85.031 L 89.649 85.031 C 90.417 85.031 91.04 85.654 91.04 86.421 L 91.04 122.809 C 91.04 123.577 90.417 124.2 89.649 124.2 L 30.596 124.2 C 29.829 124.2 29.206 123.577 29.206 122.809 L 29.206 86.421 C 29.206 85.654 29.829 85.031 30.596 85.031 Z" style="stroke:none;fill:#000000;stroke-miterlimit:10;"/></g><path d="M 24.931 84.94 L 86.06 84.94 C 86.827 84.94 87.451 85.564 87.451 86.331 L 87.451 122.899 C 87.451 123.667 86.827 124.29 86.06 124.29 L 24.931 124.29 C 24.163 124.29 23.54 123.667 23.54 122.899 L 23.54 86.331 C 23.54 85.564 24.163 84.94 24.931 84.94 Z" style="stroke:none;fill:#461BC2;stroke-miterlimit:10;"/><path d="M 26.577 86.827 L 84.291 86.827 C 85.058 86.827 85.682 87.451 85.682 88.218 L 85.682 121.193 C 85.682 121.961 85.058 122.584 84.291 122.584 L 26.577 122.584 C 25.809 122.584 25.186 121.961 25.186 121.193 L 25.186 88.218 C 25.186 87.451 25.809 86.827 26.577 86.827 Z" style="stroke:none;fill:#4FB8FF;stroke-miterlimit:10;"/><rect x="30.918" y="88.619" width="49.255" height="33.965" transform="matrix(1,0,0,1,0,0)" fill="rgb(159,138,255)"/><path d="M 60.925 98.074 L 74.25 98.074 C 74.966 98.074 75.548 98.656 75.548 99.372 L 75.548 99.542 C 75.548 100.259 74.966 100.84 74.25 100.84 L 60.925 100.84 C 60.209 100.84 59.627 100.259 59.627 99.542 L 59.627 99.372 C 59.627 98.656 60.209 98.074 60.925 98.074 Z" style="stroke:none;fill:#461BC2;stroke-miterlimit:10;"/><path d="M 60.925 102.668 L 74.25 102.668 C 74.966 102.668 75.548 103.25 75.548 103.966 L 75.548 104.136 C 75.548 104.853 74.966 105.434 74.25 105.434 L 60.925 105.434 C 60.209 105.434 59.627 104.853 59.627 104.136 L 59.627 103.966 C 59.627 103.25 60.209 102.668 60.925 102.668 Z" style="stroke:none;fill:#461BC2;stroke-miterlimit:10;"/><circle vector-effect="non-scaling-stroke" cx="62.544559635809065" cy="109.0301251791555" r="1.3830293815001298" fill="rgb(70,27,194)"/><circle vector-effect="non-scaling-stroke" cx="67.58727673551138" cy="109.03024920987839" r="1.3830293815001227" fill="rgb(70,27,194)"/><circle vector-effect="non-scaling-stroke" cx="72.63011786593655" cy="109.03024920987839" r="1.3830293815001227" fill="rgb(70,27,194)"/><path d="M 34.861 90.528 L 75.961 90.528 C 76.191 90.528 76.378 90.715 76.378 90.945 L 76.378 92.877 C 76.378 93.107 76.191 93.294 75.961 93.294 L 34.861 93.294 C 34.63 93.294 34.443 93.107 34.443 92.877 L 34.443 90.945 C 34.443 90.715 34.63 90.528 34.861 90.528 Z" style="stroke:none;fill:#461BC2;stroke-miterlimit:10;"/><path d=" M 33.779 97.347 C 33.779 97.04 34.028 96.791 34.335 96.791 L 56.794 96.791 C 57.101 96.791 57.35 97.04 57.35 97.347 L 57.35 122.584 L 33.779 122.584 L 33.779 97.347 Z " fill="rgb(70,27,194)"/><rect x="61.542" y="112.626" width="0.707" height="0.736" transform="matrix(-1,0,0,-1,123.791,225.988)" fill="rgb(70,27,194)"/><rect x="63.819" y="112.626" width="0.707" height="0.736" transform="matrix(-1,0,0,-1,128.344,225.988)" fill="rgb(70,27,194)"/><rect x="66.096" y="112.626" width="0.707" height="0.736" transform="matrix(-1,0,0,-1,132.898,225.988)" fill="rgb(70,27,194)"/><rect x="68.373" y="112.626" width="0.707" height="0.736" transform="matrix(-1,0,0,-1,137.452,225.988)" fill="rgb(70,27,194)"/><rect x="70.649" y="112.626" width="0.707" height="0.736" transform="matrix(-1,0,0,-1,142.005,225.988)" fill="rgb(70,27,194)"/><rect x="72.926" y="112.626" width="0.707" height="0.736" transform="matrix(-1,0,0,-1,146.558,225.988)" fill="rgb(70,27,194)"/><rect x="61.542" y="114.501" width="0.707" height="0.736" transform="matrix(-1,0,0,-1,123.791,229.738)" fill="rgb(70,27,194)"/><rect x="63.819" y="114.501" width="0.707" height="0.736" transform="matrix(-1,0,0,-1,128.344,229.738)" fill="rgb(70,27,194)"/><rect x="66.096" y="114.501" width="0.707" height="0.736" transform="matrix(-1,0,0,-1,132.898,229.738)" fill="rgb(70,27,194)"/><rect x="68.373" y="114.501" width="0.707" height="0.736" transform="matrix(-1,0,0,-1,137.452,229.738)" fill="rgb(70,27,194)"/><rect x="70.649" y="114.501" width="0.707" height="0.736" transform="matrix(-1,0,0,-1,142.005,229.738)" fill="rgb(70,27,194)"/><rect x="72.926" y="114.501" width="0.707" height="0.736" transform="matrix(-1,0,0,-1,146.558,229.738)" fill="rgb(70,27,194)"/><rect x="61.542" y="116.351" width="0.707" height="0.736" transform="matrix(-1,0,0,-1,123.791,233.438)" fill="rgb(70,27,194)"/><rect x="63.819" y="116.351" width="0.707" height="0.736" transform="matrix(-1,0,0,-1,128.344,233.438)" fill="rgb(70,27,194)"/><rect x="66.096" y="116.351" width="0.707" height="0.736" transform="matrix(-1,0,0,-1,132.898,233.438)" fill="rgb(70,27,194)"/><rect x="68.373" y="116.351" width="0.707" height="0.736" transform="matrix(-1,0,0,-1,137.452,233.438)" fill="rgb(70,27,194)"/><rect x="70.649" y="116.351" width="0.707" height="0.736" transform="matrix(-1,0,0,-1,142.005,233.438)" fill="rgb(70,27,194)"/><rect x="72.926" y="116.351" width="0.707" height="0.736" transform="matrix(-1,0,0,-1,146.558,233.438)" fill="rgb(70,27,194)"/><rect x="52.169" y="124.29" width="10.241" height="17.221" transform="matrix(1,0,0,1,0,0)" fill="rgb(70,27,194)"/><rect x="62.41" y="123.97" width="1.961" height="17.541" transform="matrix(1,0,0,1,0,0)" fill="rgb(70,27,194)"/><rect x="62.41" y="124.29" width="1.961" height="17.221" transform="matrix(1,0,0,1,0,0)" fill="rgb(0,0,0)" fill-opacity="0.31"/><rect x="38.386" y="141.512" width="37.808" height="2.395" transform="matrix(1,0,0,1,0,0)" fill="rgb(70,27,194)"/><rect x="73.061" y="141.512" width="2.855" height="2.395" transform="matrix(1,0,0,1,0,0)" fill="rgb(70,27,194)"/><rect x="71.964" y="141.512" width="3.952" height="2.395" transform="matrix(1,0,0,1,0,0)" fill="rgb(0,0,0)" fill-opacity="0.31"/><rect x="52.17" y="124.29" width="10.24" height="1.837" transform="matrix(1,0,0,1,0,0)" fill="rgb(0,0,0)" fill-opacity="0.31"/></g></svg>