<svg width="200" height="150" viewBox="0 0 800 600" fill="none" xmlns="http://www.w3.org/2000/svg" data-reactroot="">
<path d="M439.759 520.004C573.362 520.004 681.67 411.696 681.67 278.093C681.67 144.489 573.362 36.1816 439.759 36.1816C306.155 36.1816 197.848 144.489 197.848 278.093C197.848 411.696 306.155 520.004 439.759 520.004Z" fill="#5339ab"></path>
<path fill-rule="evenodd" clip-rule="evenodd" d="M393.93 120.359H406.072V293.931H507.143V306.073H393.93V120.359Z" fill="#9F8AFF"></path>
<path d="M421.907 10H378.094V53.8128H421.907V10Z" fill="#9F8AFF"></path>
<path d="M421.907 546.186H378.094V589.998H421.907V546.186Z" fill="#9F8AFF"></path>
<path d="M690 321.908V278.095H646.187V321.908H690Z" fill="#9F8AFF"></path>
<path d="M153.812 321.908V278.095H110V321.908H153.812Z" fill="#9F8AFF"></path>
<path d="M400.003 590C560.165 590 690.002 460.163 690.002 300C690.002 139.838 560.165 10.0015 400.003 10.0015C239.841 10.0015 110.004 139.838 110.004 300C110.004 460.163 239.841 590 400.003 590Z" stroke="#78D2EE" stroke-width="3.56059" stroke-miterlimit="10"></path>
</svg>
