<svg width="200" height="150" viewBox="0 0 800 600" fill="none" xmlns="http://www.w3.org/2000/svg" data-reactroot="">
<rect x="685.039" y="31.1943" width="371.745" height="689.798" rx="48.8571" transform="rotate(75 685.039 31.1943)" fill="#36e7e7"></rect>
<rect x="105.606" y="118.741" width="588.788" height="362.517" rx="43.3261" fill="#5339ab"></rect>
<rect x="453.258" y="229.564" width="201.106" height="34.94" rx="17.47" fill="#9F8AFF"></rect>
<rect x="453.258" y="287.596" width="201.106" height="34.94" rx="17.47" fill="#9F8AFF"></rect>
<circle cx="490.919" cy="369.237" r="17.47" fill="#9F8AFF"></circle>
<circle cx="553.811" cy="369.237" r="17.47" fill="#9F8AFF"></circle>
<circle cx="616.703" cy="369.237" r="17.47" fill="#9F8AFF"></circle>
<circle cx="490.919" cy="425.141" r="17.47" fill="#5339ab"></circle>
<circle cx="553.811" cy="425.141" r="17.47" fill="#9F8AFF"></circle>
<circle cx="616.702" cy="425.141" r="17.47" fill="#9F8AFF"></circle>
<rect x="135.146" y="150.459" width="529.709" height="34.94" rx="2.86" fill="#9F8AFF"></rect>
<rect x="159.001" y="213.417" width="64.7321" height="64.7321" rx="12" fill="#9F8AFF"></rect>
<rect x="244.697" y="213.417" width="64.7321" height="64.7321" rx="12" fill="#9F8AFF"></rect>
<rect x="330.394" y="213.417" width="64.7321" height="64.7321" rx="12" fill="#9F8AFF"></rect>
<rect x="159.001" y="299.113" width="64.7321" height="64.7321" rx="12" fill="#9F8AFF"></rect>
<rect x="244.697" y="299.113" width="64.7321" height="64.7321" rx="12" fill="#9F8AFF"></rect>
<rect x="330.394" y="299.113" width="64.7321" height="64.7321" rx="12" fill="#9F8AFF"></rect>
<rect x="159.001" y="384.809" width="64.7321" height="64.7321" rx="12" fill="#9F8AFF"></rect>
<rect x="244.697" y="384.809" width="64.7321" height="64.7321" rx="12" fill="#9F8AFF"></rect>
<rect x="330.394" y="384.809" width="64.7321" height="64.7321" rx="12" fill="#9F8AFF"></rect>
<path fill-rule="evenodd" clip-rule="evenodd" d="M268.962 250.217L266.504 256.234L272.522 253.777L273.265 253.035L274.452 254.222L273.455 255.219L265.365 258.276C264.8 258.49 264.248 257.937 264.461 257.373L267.518 249.282L268.515 248.286L269.704 249.475L268.962 250.217ZM272.857 257.562C272.857 257.097 273.233 256.721 273.698 256.721H283.234C283.698 256.721 284.075 257.097 284.075 257.562C284.075 258.027 283.698 258.403 283.234 258.403H273.698C273.233 258.403 272.857 258.027 272.857 257.562ZM286.319 256.721C285.854 256.721 285.477 257.097 285.477 257.562C285.477 258.027 285.854 258.403 286.319 258.403H288.843C289.307 258.403 289.684 258.027 289.684 257.562C289.684 257.097 289.307 256.721 288.843 256.721H286.319Z" fill="#5339ab"></path>
<path fill-rule="evenodd" clip-rule="evenodd" d="M284.801 242.665C285.128 242.992 285.657 242.992 285.984 242.665L288.405 240.244C290.044 238.605 290.044 235.947 288.405 234.308C286.765 232.668 284.107 232.668 282.468 234.308L276.062 240.713C275.734 241.041 275.734 241.573 276.062 241.9C276.39 242.228 276.922 242.228 277.25 241.9L283.645 235.506C284.63 234.521 286.227 234.521 287.212 235.506C288.197 236.491 288.197 238.088 287.212 239.073L284.801 241.483C284.475 241.809 284.475 242.339 284.801 242.665ZM268.088 248.687C268.046 248.729 268.01 248.775 267.978 248.822L267.522 249.278L267.969 249.725C268.002 249.778 268.042 249.828 268.088 249.875C268.134 249.921 268.185 249.961 268.238 249.994L272.718 254.474C272.752 254.527 272.791 254.578 272.838 254.624C272.884 254.67 272.934 254.71 272.987 254.743L273.459 255.215L274.655 254.019L274.643 254.006L283.304 245.345C283.632 245.017 283.632 244.486 283.304 244.158C282.976 243.83 282.444 243.83 282.116 244.158L273.455 252.819L269.893 249.257L274.567 244.583C274.895 244.255 274.895 243.723 274.567 243.396C274.239 243.068 273.708 243.068 273.38 243.396L268.088 248.687Z" fill="#5339ab"></path>
<path fill-rule="evenodd" clip-rule="evenodd" d="M350.73 232.68C349.926 232.68 349.274 233.332 349.274 234.136V257.429C349.274 258.233 349.926 258.885 350.73 258.885H368.198C369.002 258.885 369.654 258.233 369.654 257.429V251.024C369.654 250.541 369.263 250.15 368.78 250.15C368.298 250.15 367.907 250.541 367.907 251.024V253.062V256.41C367.907 256.812 367.581 257.138 367.179 257.138H351.749C351.347 257.138 351.021 256.812 351.021 256.41V235.155C351.021 234.753 351.347 234.427 351.749 234.427H367.179C367.581 234.427 367.907 234.753 367.907 235.155V235.592V236.033C367.907 236.516 368.298 236.907 368.78 236.907C369.263 236.907 369.654 236.516 369.654 236.033V234.136C369.654 233.332 369.002 232.68 368.198 232.68H350.73ZM353.641 238.504C353.641 237.7 354.293 237.048 355.097 237.048H363.831C364.635 237.048 365.287 237.7 365.287 238.504C365.287 239.308 364.635 239.959 363.831 239.959H355.097C354.293 239.959 353.641 239.308 353.641 238.504ZM355.097 244.327C354.293 244.327 353.641 244.979 353.641 245.783C353.641 246.587 354.293 247.239 355.097 247.239H358.882L361.793 244.327H355.097Z" fill="#5339ab"></path>
<path fill-rule="evenodd" clip-rule="evenodd" d="M375.392 236.386C374.255 235.249 372.412 235.249 371.275 236.386L359.045 248.618C358.965 248.698 358.904 248.796 358.869 248.903L357.325 253.535C357.135 254.104 357.676 254.645 358.245 254.456L362.877 252.912C362.985 252.876 363.082 252.816 363.162 252.736L370.97 244.926C371.292 244.605 371.292 244.084 370.971 243.762C370.65 243.439 370.127 243.439 369.805 243.761L369.648 243.918L369.649 243.917L361.945 251.622L359.574 252.534C359.456 252.579 359.341 252.463 359.386 252.346L360.298 249.975L372.65 237.622C373.104 237.167 373.842 237.167 374.296 237.622C374.751 238.077 374.751 238.814 374.296 239.269L371.972 241.593C371.677 241.918 371.688 242.42 372.001 242.732C372.323 243.053 372.844 243.052 373.166 242.731L375.392 240.504C376.529 239.367 376.529 237.524 375.392 236.386Z" fill="#5339ab"></path>
<path fill-rule="evenodd" clip-rule="evenodd" d="M352.943 332.881C352.943 331.332 354.199 330.077 355.748 330.077H369.771C371.32 330.077 372.575 331.332 372.575 332.881V344.1C372.575 345.649 371.32 346.904 369.771 346.904H355.748C354.199 346.904 352.943 345.649 352.943 344.1V335.125V332.881ZM363.32 335.966H354.626V343.819C354.626 344.594 355.254 345.221 356.028 345.221H369.49C370.265 345.221 370.893 344.594 370.893 343.819V333.162C370.893 332.387 370.265 331.759 369.49 331.759H356.028C355.254 331.759 354.626 332.387 354.626 333.162V334.284H363.32C363.785 334.284 364.162 334.66 364.162 335.125C364.162 335.59 363.785 335.966 363.32 335.966ZM362.759 339.893C361.985 339.893 361.357 340.52 361.357 341.295V342.697C361.357 343.472 361.985 344.1 362.759 344.1C363.534 344.1 364.162 343.472 364.162 342.697V341.295C364.162 340.52 363.534 339.893 362.759 339.893ZM365.704 334.284C365.239 334.284 364.863 334.66 364.863 335.125C364.863 335.59 365.239 335.966 365.704 335.966H368.228C368.693 335.966 369.07 335.59 369.07 335.125C369.07 334.66 368.693 334.284 368.228 334.284H365.704Z" fill="#5339ab"></path>
<path d="M355.748 323.065C355.748 319.193 358.887 316.054 362.759 316.054C366.632 316.054 369.771 319.193 369.771 323.065V328.324C369.771 328.905 369.3 329.375 368.719 329.375C368.138 329.375 367.668 328.905 367.668 328.324V323.065C367.668 320.355 365.47 318.157 362.759 318.157C360.049 318.157 357.851 320.355 357.851 323.065V328.324C357.851 328.905 357.381 329.375 356.8 329.375C356.219 329.375 355.748 328.905 355.748 328.324V323.065Z" fill="#5339ab"></path>
<path fill-rule="evenodd" clip-rule="evenodd" d="M192.484 344.907C191.933 345.686 190.792 345.698 190.245 344.917C187.669 341.242 181.551 332.048 181.551 327.619C181.551 322.009 185.946 317.461 191.367 317.461C196.788 317.461 201.183 322.009 201.183 327.619C201.183 329.775 200.095 332.779 197.92 336.63C197.791 336.858 197.597 337.19 197.415 337.499C197.154 337.941 196.572 338.062 196.155 337.763C195.808 337.515 195.691 337.052 195.878 336.668L196.131 336.15C197.907 333.039 199.5 329.676 199.5 327.619C199.5 322.97 195.859 319.202 191.367 319.202C186.875 319.202 183.234 322.97 183.234 327.619C183.234 331.523 188.972 340.13 190.808 342.786C191.081 343.18 191.653 343.18 191.925 342.786C192.365 342.15 193.028 341.174 193.782 340.003L194.293 339.273C194.57 338.877 195.119 338.787 195.508 339.073C195.875 339.343 195.969 339.852 195.719 340.233C195.524 340.531 195.297 340.874 195.111 341.149C194.575 341.942 193.38 343.639 192.484 344.907Z" fill="#5339ab"></path>
<path fill-rule="evenodd" clip-rule="evenodd" d="M195.574 327.619C195.574 330.024 193.69 331.973 191.367 331.973C189.044 331.973 187.16 330.024 187.16 327.619C187.16 325.215 189.044 323.266 191.367 323.266C191.889 323.266 192.388 323.364 192.85 323.544C193.304 323.721 193.367 324.324 193.027 324.674L192.906 324.798C192.681 325.029 192.352 325.116 192.028 325.098C191.817 325.039 191.596 325.007 191.367 325.007C189.973 325.007 188.843 326.177 188.843 327.619C188.843 329.062 189.973 330.231 191.367 330.231C192.761 330.231 193.891 329.062 193.891 327.619C193.891 327.355 193.853 327.099 193.782 326.858C193.772 326.564 193.852 326.269 194.057 326.06C194.467 325.642 195.203 325.735 195.375 326.293C195.504 326.711 195.574 327.157 195.574 327.619Z" fill="#5339ab"></path>
<path fill-rule="evenodd" clip-rule="evenodd" d="M263.57 327.993C263.022 328.364 262.894 329.118 263.29 329.648C263.661 330.146 264.358 330.263 264.872 329.915L276.272 322.195C276.747 321.874 277.369 321.874 277.844 322.195L289.255 329.923C289.773 330.274 290.476 330.151 290.845 329.645C291.232 329.114 291.101 328.369 290.557 328L277.844 319.391C277.369 319.069 276.747 319.069 276.272 319.391L263.57 327.993ZM285.22 343.003V343.258C285.22 343.568 284.969 343.819 284.659 343.819H269.457C269.147 343.819 268.896 343.568 268.896 343.258V330.846C268.857 330.415 268.495 330.076 268.053 330.076C267.586 330.076 267.207 330.455 267.207 330.922V344.38C267.207 344.999 267.71 345.502 268.329 345.502H285.787C286.406 345.502 286.909 344.999 286.909 344.38V339.332C286.909 338.867 286.532 338.49 286.067 338.49C285.602 338.49 285.225 338.867 285.225 339.332V343.005L285.22 343.003ZM285.22 330.918C285.22 330.453 285.6 330.076 286.064 330.076C286.529 330.076 286.909 330.453 286.909 330.918V336.247C286.909 336.711 286.529 337.088 286.064 337.088C285.6 337.088 285.22 336.711 285.22 336.247V330.918Z" fill="#5339ab"></path>
<path fill-rule="evenodd" clip-rule="evenodd" d="M281.279 318.298C281.279 318.273 281.28 318.248 281.282 318.224C281.28 318.202 281.279 318.18 281.279 318.157C281.279 317.77 281.593 317.456 281.98 317.456H282.124H286.064H286.207C286.594 317.456 286.908 317.77 286.908 318.157C286.908 318.18 286.907 318.202 286.905 318.224C286.907 318.248 286.908 318.273 286.908 318.298V322.925C286.908 323.39 286.529 323.766 286.064 323.766C285.599 323.766 285.22 323.39 285.22 322.925V318.858H282.968V320.121C282.968 320.585 282.588 320.962 282.124 320.962C281.659 320.962 281.279 320.585 281.279 320.121V318.298ZM272.836 332.601C272.836 331.981 273.338 331.479 273.958 331.479H280.158C280.777 331.479 281.279 331.981 281.279 332.601V341.575C281.279 342.04 280.902 342.417 280.437 342.417C279.972 342.417 279.595 342.04 279.595 341.575V338.491H279.591V333.723C279.591 333.413 279.339 333.162 279.03 333.162H275.086C274.776 333.162 274.525 333.413 274.525 333.723V341.628C274.496 342.068 274.129 342.417 273.681 342.417C273.214 342.417 272.836 342.038 272.836 341.572V332.601Z" fill="#5339ab"></path>
<path fill-rule="evenodd" clip-rule="evenodd" d="M197.231 241.831C197.231 247.252 192.836 251.647 187.415 251.647C181.993 251.647 177.599 247.252 177.599 241.831C177.599 236.409 181.993 232.015 187.415 232.015C192.836 232.015 197.231 236.409 197.231 241.831ZM195.547 241.83C195.547 246.322 191.906 249.963 187.414 249.963C182.922 249.963 179.281 246.322 179.281 241.83C179.281 237.338 182.922 233.697 187.414 233.697C191.906 233.697 195.547 237.338 195.547 241.83Z" fill="#5339ab"></path>
<path fill-rule="evenodd" clip-rule="evenodd" d="M182.379 239.378C182.223 239.692 182.387 240.046 182.71 240.182C183.095 240.343 183.553 240.131 183.763 239.769C183.919 239.498 184.143 239.175 184.457 238.844C185.296 237.961 186.525 237.718 187.308 237.658C187.711 237.627 188.057 237.302 188.057 236.899C188.057 236.54 187.782 236.245 187.423 236.263C186.489 236.311 184.71 236.588 183.404 237.92C182.89 238.465 182.568 238.997 182.379 239.378ZM194.716 251.115C194.169 250.567 194.169 249.68 194.717 249.132C195.264 248.585 196.152 248.585 196.7 249.133L197.334 249.767C198.271 249.516 199.312 249.757 200.047 250.492L204.315 254.761C205.41 255.857 205.409 257.634 204.314 258.729C203.218 259.824 201.441 259.825 200.346 258.73L196.077 254.461C195.343 253.727 195.102 252.687 195.352 251.751L194.716 251.115ZM197.054 251.448C196.507 251.995 196.505 252.883 197.051 253.43L201.337 257.734C201.885 258.283 202.775 258.283 203.323 257.735C203.87 257.188 203.872 256.301 203.326 255.753L199.039 251.45C198.492 250.9 197.602 250.9 197.054 251.448Z" fill="#5339ab"></path>
<path fill-rule="evenodd" clip-rule="evenodd" d="M183.607 412.011L190.083 406.615C190.587 406.194 191.353 406.553 191.353 407.21V427.14C191.353 427.797 190.587 428.156 190.083 427.735L183.607 422.339H179.734C179.021 422.339 178.443 421.761 178.443 421.048V413.302C178.443 412.589 179.021 412.011 179.734 412.011H183.607ZM180.38 413.56C180.166 413.56 179.993 413.734 179.993 413.948V420.403C179.993 420.616 180.166 420.79 180.38 420.79H184.072L189.592 425.39C189.676 425.46 189.804 425.4 189.804 425.291V409.059C189.804 408.95 189.676 408.89 189.592 408.96L184.072 413.56H180.38ZM200.433 407.113C200.141 406.772 199.63 406.783 199.326 407.113C199.033 407.433 199.041 407.93 199.32 408.262C200.392 409.532 202.741 412.817 202.741 417.201C202.741 421.584 200.394 424.86 199.322 426.129C199.041 426.461 199.031 426.959 199.324 427.281C199.629 427.615 200.144 427.628 200.438 427.284C201.625 425.896 204.29 422.22 204.29 417.201C204.29 412.175 201.617 408.496 200.433 407.113ZM196.715 409.981C197.015 409.651 197.523 409.645 197.798 409.995C198.697 411.135 200.417 413.767 200.417 417.201C200.417 420.642 198.69 423.277 197.793 424.413C197.519 424.759 197.016 424.754 196.717 424.43C196.443 424.132 196.44 423.671 196.683 423.347C197.436 422.341 198.868 420.055 198.868 417.201C198.868 414.349 197.438 412.07 196.684 411.067C196.44 410.743 196.441 410.281 196.715 409.981ZM195.158 412.867C194.909 412.501 194.403 412.498 194.105 412.825C193.834 413.123 193.839 413.587 194.057 413.926C194.459 414.549 194.995 415.668 194.995 417.201C194.995 418.735 194.458 419.857 194.056 420.482C193.838 420.82 193.836 421.284 194.108 421.58C194.405 421.902 194.906 421.898 195.153 421.537C195.712 420.72 196.544 419.173 196.544 417.201C196.544 415.235 195.717 413.687 195.158 412.867Z" fill="#5339ab"></path>
<path fill-rule="evenodd" clip-rule="evenodd" d="M267.302 412.992C267.302 407.6 271.672 403.23 277.063 403.23C282.454 403.23 286.825 407.6 286.825 412.992V414.386C288.365 414.386 289.614 415.635 289.614 417.175V422.753C289.614 424.293 288.365 425.542 286.825 425.542V427.634C286.825 429.174 285.576 430.423 284.036 430.423H280.999C280.725 430.842 280.251 431.12 279.713 431.12H275.808C274.961 431.12 274.274 430.433 274.274 429.586C274.274 428.739 274.961 428.052 275.808 428.052H279.713C280.309 428.052 280.825 428.392 281.079 428.889H283.757C284.527 428.889 285.151 428.264 285.151 427.494V425.821V425.542H282.641V414.386H285.151V412.992C285.151 408.525 281.53 404.903 277.063 404.903C272.596 404.903 268.975 408.525 268.975 412.992V414.386H271.485V425.542H267.302C265.761 425.542 264.513 424.293 264.513 422.753V417.175C264.513 415.635 265.761 414.386 267.302 414.386V412.992ZM284.314 416.059H286.546C287.316 416.059 287.94 416.684 287.94 417.454V422.474C287.94 423.244 287.316 423.869 286.546 423.869H284.314V416.059ZM269.812 416.059H267.581C266.81 416.059 266.186 416.684 266.186 417.454V422.474C266.186 423.244 266.81 423.869 267.581 423.869H269.812V416.059Z" fill="#5339ab"></path>
<path fill-rule="evenodd" clip-rule="evenodd" d="M352.432 404.265C352.432 403.552 353.01 402.974 353.723 402.974H356.305H357.596H360.178H361.469H364.051H365.342H367.924H369.215H371.796C372.51 402.974 373.087 403.552 373.087 404.265V406.847C373.087 407.56 372.51 408.138 371.796 408.138H371.729L370.57 430.153C370.534 430.838 369.967 431.376 369.281 431.376H356.238C355.552 431.376 354.985 430.838 354.949 430.153L353.791 408.138H353.723C353.01 408.138 352.432 407.56 352.432 406.847V404.265ZM354.239 406.847H356.305V404.265H354.239C353.954 404.265 353.723 404.496 353.723 404.782V406.331C353.723 406.616 353.954 406.847 354.239 406.847ZM357.596 406.847H360.178V404.265H357.596V406.847ZM361.469 406.847H364.051V404.265H361.469V406.847ZM365.342 406.847H367.924V404.265H365.342V406.847ZM369.215 406.847H371.28C371.565 406.847 371.796 406.616 371.796 406.331V404.782C371.796 404.496 371.565 404.265 371.28 404.265H369.215V406.847ZM355.014 408.138H370.506L369.251 429.22C369.23 429.561 368.948 429.827 368.606 429.827H356.913C356.571 429.827 356.289 429.561 356.268 429.22L355.014 408.138ZM362.76 412.011C362.403 412.011 362.114 412.3 362.114 412.657V426.857C362.114 427.214 362.403 427.503 362.76 427.503C363.116 427.503 363.405 427.214 363.405 426.857V412.657C363.405 412.3 363.116 412.011 362.76 412.011ZM358.241 412.657C358.241 412.3 358.53 412.011 358.887 412.011C359.243 412.011 359.532 412.3 359.532 412.657V426.857C359.532 427.214 359.243 427.503 358.887 427.503C358.53 427.503 358.241 427.214 358.241 426.857V412.657ZM366.633 412.011C366.276 412.011 365.987 412.3 365.987 412.657V426.857C365.987 427.214 366.276 427.503 366.633 427.503C366.989 427.503 367.278 427.214 367.278 426.857V412.657C367.278 412.3 366.989 412.011 366.633 412.011Z" fill="#5339ab"></path>
<path d="M627.152 344.981C627.152 344.981 629.311 351.178 631.476 352.486C633.889 353.943 637.13 353.708 640.67 353.371C640.67 353.371 634.482 355.302 632.743 358.43C631.729 360.255 631.806 360.796 632.28 366.889C632.28 366.889 630.501 361.5 628.179 359.598C625.856 357.696 618.762 358.499 618.762 358.499C618.762 358.499 625.283 356.099 626.582 353.594C627.932 350.994 627.152 344.981 627.152 344.981Z" fill="#36e7e7"></path>
<path fill-rule="evenodd" clip-rule="evenodd" d="M467.597 297.379C464.918 297.738 462.618 298.045 461.927 297.908C459.794 297.485 458.387 299.668 456.597 302.445C454.663 305.444 452.282 309.137 448.057 310.988C445.127 312.272 445.011 315.351 444.876 318.933C444.736 322.642 444.576 326.89 441.251 330.239C431.061 340.501 428.475 352.708 427.888 355.896C424.387 374.937 434.131 380.176 438.956 382.771C440.034 383.35 440.866 383.797 441.251 384.237C441.419 384.579 441.591 384.918 441.766 385.253C440.412 395.338 436.817 406.278 427.457 403.766C415.439 409.475 495.998 432.658 483.976 418.997C477.199 411.296 472.994 403.336 470.414 396.034C467.126 379.771 468.549 359.02 468.549 359.02C468.549 359.02 486.339 361.31 490.583 355.896C494.827 350.481 485.365 304.984 478.502 297.006C477.665 296.032 472.095 296.777 467.597 297.379Z" fill="#FFCB9B"></path>
<path d="M481.785 303.129C481.785 303.129 480.427 299.683 479.62 298.671L464.704 299.954L454.841 305.888L455.883 363.144C457.273 362.128 460.983 359.423 464.704 356.728C469.355 353.36 467.832 342.214 464.704 336.12C461.577 330.025 463.02 317.515 463.822 311.1C464.624 304.685 481.785 303.129 481.785 303.129Z" fill="black" fill-opacity="0.152"></path>
<path d="M603.537 403.85C603.537 403.85 598.701 390.19 604.143 383.469C608.961 378.378 607.943 388.675 610.317 384.8C612.691 380.926 621.158 361.218 625.185 363.464C631.382 366.921 619.952 381.805 620.192 383.63C620.192 383.63 629.376 390.297 631.853 392.974C634.33 395.65 632.377 404.164 627.318 406.491C621.302 409.259 611.051 420.409 611.051 420.409L598.458 411.25C598.458 411.25 602.253 407.152 603.537 403.85Z" fill="#FFCB9B"></path>
<path d="M306.464 312.411C306.464 312.411 315.244 284.962 310.911 281.315C303.594 275.156 304.963 286.574 303.131 281.285C301.298 275.996 296.32 250.046 290.881 251.685C282.511 254.207 292.33 275.134 291.558 277.268C291.558 277.268 278.746 282.861 275.059 285.427C271.372 287.993 272.771 298.159 276.943 302.889C278.694 304.876 285.609 310.519 288.328 315.113C292.084 321.457 304.76 315.046 306.464 312.411Z" fill="#FFCB9B"></path>
<path fill-rule="evenodd" clip-rule="evenodd" d="M496.526 434.442C489.294 428.349 493.24 423.097 486.274 418.652L497.672 399.241C520.077 415.806 539.475 430.748 549.455 442.567C573.225 434.442 593.355 419.086 601.236 407.723C604.117 403.569 606.484 407.031 610.638 409.912C614.792 412.793 615.444 414.498 612.563 418.652C603.668 431.477 571.183 454.039 556.367 463.551C555.877 463.866 554.845 464.479 553.418 464.837C551.957 465.204 549.093 465.517 546.202 463.721C530.685 454.086 510.394 446.125 496.526 434.442Z" fill="#FFCB9B"></path>
<path fill-rule="evenodd" clip-rule="evenodd" d="M289.298 315.608C298.612 337.54 309.145 364.484 326.989 381.305C342.536 395.96 377.827 413.83 406.641 422.49C435.454 431.15 403.515 413.83 403.515 413.83L403.553 413.841L403.565 413.844L403.569 413.845C403.569 413.845 403.572 413.846 406.641 403.199C409.709 392.551 409.711 392.552 409.711 392.552L409.694 392.547L409.609 392.522C409.53 392.499 409.405 392.462 409.237 392.412C408.901 392.313 408.394 392.16 407.733 391.957C406.411 391.551 404.479 390.945 402.09 390.155C397.302 388.573 390.719 386.271 383.537 383.394C368.703 377.452 350.213 371.582 341.647 363.507C323.493 346.394 316.258 335.5 305.003 310.373C305.003 310.373 291.916 306.185 289.298 315.608Z" fill="#FFCB9B"></path>
<path d="M437.68 385.541C437.68 385.541 400.497 383.914 395.321 387.784C390.145 391.654 392.556 419.434 392.556 419.434C392.556 419.434 416.524 446.167 420.211 467.677C423.898 489.187 380.175 540.218 399.841 547.593C415.574 553.493 505.088 571.322 510.01 556.696C514.932 542.07 499.92 509.2 491.171 486.778V464.258C491.171 448.79 493.004 438.401 501.63 438.401L510.01 406.361C498.919 399.213 494.699 394.522 473.287 390.661C459.625 399.962 441.442 394.531 437.68 385.541Z" fill="#5339ab"></path>
<path d="M485.232 299.133L461.1 308.677C459.829 314.888 458.643 329.852 464.064 340.016C470.84 352.721 457.288 389.143 439.924 397.189C422.561 405.236 390.798 383.637 395.88 383.637C416.208 386.178 393.291 346.992 399.22 306.335C405.149 265.679 444.583 267.173 461.1 271.408C474.313 274.796 484.385 291.087 485.232 299.133Z" fill="#36e7e7"></path>
<path d="M419.245 460.975C422.356 455.647 452.432 470.071 490.663 466.087C493.985 465.74 492.868 468.857 492.774 472.197C492.583 478.982 493.236 481.087 493.209 485.141C493.196 486.99 492.505 488.648 490.663 488.798C478.925 489.754 435.694 483.397 421.659 481.26C419.039 480.86 418.224 478.352 418.17 475.702C418.076 471.11 417.164 464.539 419.245 460.975Z" fill="#36e7e7"></path>
</svg>
