<svg width="200" height="150" viewBox="0 0 800 600" fill="none" xmlns="http://www.w3.org/2000/svg" data-reactroot="">
<path d="M688.606 290.252L613.611 370.89L418.089 581.116C407.065 592.961 388.288 592.961 377.265 581.116L181.705 370.89L106.729 290.252C47.0911 226.149 47.0911 122.194 106.729 58.0725C136.547 26.0304 175.615 10 214.7 10C269.2 10 345.952 68.3484 380.086 96.7847C390.325 105.304 405.141 105.398 415.473 97.0089C450.374 68.6474 528.825 10 580.635 10C619.72 10 658.788 26.0304 688.625 58.0912C748.244 122.194 748.244 226.149 688.606 290.252Z" fill="#461bc2"></path>
<path d="M329.489 377.181C338.371 417.355 364.802 445.378 394.525 446.841C427.494 448.454 457.84 422.732 465.862 377.181C420.397 379.074 374.932 375.267 329.489 377.181Z" fill="white"></path>
<path d="M482.622 326.93C482.622 330.573 485.574 333.525 489.217 333.525C492.86 333.525 495.812 330.573 495.812 326.93C495.812 323.287 492.86 320.335 489.217 320.335C485.574 320.316 482.622 323.287 482.622 326.93Z" fill="#9f8aff"></path>
<path d="M499.119 343.43C499.119 347.073 502.071 350.025 505.714 350.025C509.357 350.025 512.309 347.073 512.309 343.43C512.309 339.787 509.357 336.835 505.714 336.835C502.089 336.835 499.119 339.787 499.119 343.43Z" fill="#9f8aff"></path>
<path d="M466.105 343.43C466.105 347.073 469.057 350.025 472.701 350.025C476.344 350.025 479.296 347.073 479.296 343.43C479.296 339.787 476.344 336.835 472.701 336.835C469.057 336.835 466.105 339.787 466.105 343.43Z" fill="#9f8aff"></path>
<path d="M548.648 326.93C548.648 330.573 551.6 333.525 555.243 333.525C558.886 333.525 561.838 330.573 561.838 326.93C561.838 323.287 558.886 320.335 555.243 320.335C551.6 320.316 548.648 323.287 548.648 326.93Z" fill="#9f8aff"></path>
<path d="M532.133 343.43C532.133 347.073 535.085 350.025 538.728 350.025C542.371 350.025 545.323 347.073 545.323 343.43C545.323 339.787 542.371 336.835 538.728 336.835C535.103 336.835 532.133 339.787 532.133 343.43Z" fill="#9f8aff"></path>
<path d="M515.635 326.93C515.635 330.573 518.587 333.525 522.23 333.525C525.873 333.525 528.825 330.573 528.825 326.93C528.825 323.287 525.873 320.335 522.23 320.335C518.587 320.316 515.635 323.287 515.635 326.93Z" fill="#9f8aff"></path>
<path d="M288.801 326.93C288.801 330.573 285.849 333.525 282.206 333.525C278.563 333.525 275.611 330.573 275.611 326.93C275.611 323.287 278.563 320.335 282.206 320.335C285.849 320.316 288.801 323.287 288.801 326.93Z" fill="#9f8aff"></path>
<path d="M272.302 343.43C272.302 347.073 269.35 350.025 265.707 350.025C262.063 350.025 259.111 347.073 259.111 343.43C259.111 339.787 262.063 336.835 265.707 336.835C269.331 336.835 272.302 339.787 272.302 343.43Z" fill="#9f8aff"></path>
<path d="M305.316 343.43C305.316 347.073 302.365 350.025 298.721 350.025C295.078 350.025 292.126 347.073 292.126 343.43C292.126 339.787 295.078 336.835 298.721 336.835C302.346 336.835 305.316 339.787 305.316 343.43Z" fill="#9f8aff"></path>
<path d="M222.774 326.93C222.774 330.573 219.822 333.525 216.179 333.525C212.535 333.525 209.583 330.573 209.583 326.93C209.583 323.287 212.535 320.335 216.179 320.335C219.822 320.316 222.774 323.287 222.774 326.93Z" fill="#9f8aff"></path>
<path d="M239.271 343.43C239.271 347.073 236.319 350.025 232.675 350.025C229.032 350.025 226.08 347.073 226.08 343.43C226.08 339.787 229.032 336.835 232.675 336.835C236.319 336.835 239.271 339.787 239.271 343.43Z" fill="#9f8aff"></path>
<path d="M255.787 326.93C255.787 330.573 252.835 333.525 249.192 333.525C245.549 333.525 242.597 330.573 242.597 326.93C242.597 323.287 245.549 320.335 249.192 320.335C252.835 320.316 255.787 323.287 255.787 326.93Z" fill="#9f8aff"></path>
<path d="M546.779 93.1457C545.901 95.8922 542.725 96.9571 539.978 95.2196C538.745 94.4349 537.475 93.2578 536.802 91.9687C535.139 88.7177 538.203 85.3921 540.95 84.981C541.959 84.8316 543.005 84.7568 544.033 84.7568C546.181 84.7568 548.797 86.2889 549.227 88.232C549.432 89.1288 548.591 90.2685 548.124 91.24C547.825 91.9126 547.339 92.4357 546.779 93.1457ZM542.388 93.5007C541.211 92.4544 540.053 91.4268 538.969 90.2685C538.913 90.1564 538.838 90.0816 538.764 90.0069C538.782 90.1377 538.82 90.2685 538.708 90.53C538.67 93.1831 540.707 93.2578 542.65 93.7623C542.725 93.6875 542.818 93.6128 542.949 93.5194C542.781 93.5754 542.65 93.5941 542.388 93.5007ZM546.686 90.0816C546.816 89.7453 547.115 89.2969 546.984 89.1101C545.976 87.4286 541.996 86.2702 540.24 87.0923C539.978 87.2044 539.661 87.4099 539.548 87.6715C539.324 88.1012 539.268 88.5683 539.137 89.0727C539.567 88.9793 540.016 88.9419 540.445 88.8485C540.763 88.7364 541.062 88.4562 541.379 88.4562C542.37 88.3814 543.379 88.4562 544.331 88.4562C543.79 89.9322 542.538 88.9419 541.604 89.2222C541.398 89.2782 541.155 89.353 540.931 89.409C541.043 89.6706 541.08 89.9508 541.267 90.1377C542.874 92.2302 544.182 92.2676 546.686 90.0816Z" fill="#4fb8ff"></path>
<path d="M616.189 111.415C617.852 107.679 621.813 106.539 623.943 109.603C625.307 111.639 626.876 113.564 628.147 115.675C629.006 117.039 627.362 119.393 625.718 119.636C624.765 119.785 623.85 120.253 622.915 120.589C622.093 120.869 621.29 121.28 620.43 121.392C616.021 121.878 614.732 118.141 615.05 114.666C615.143 113.62 615.704 112.592 616.189 111.415ZM617.591 117.413C618.413 118.029 619.253 119.206 620.038 119.169C621.533 119.132 623.046 118.422 624.522 117.936C624.765 117.861 625.064 117.413 625.008 117.245C624.242 114.853 624.373 112.032 622.019 110.444C621.421 110.033 620.169 109.995 619.552 110.332C617.983 111.21 616.918 115.395 617.591 117.413Z" fill="#4fb8ff"></path>
<path d="M536.261 132.883C534.991 134.49 533.926 134.64 532.357 133.351C531.665 132.753 530.152 132.883 529.087 133.126C526.957 133.631 525.051 133.145 524.454 131.501C523.893 129.95 524.958 126.905 526.527 126.307C528.639 125.447 530.769 124.681 532.955 124.27C533.945 124.102 535.421 124.532 536.056 125.242C537.551 127.036 538.317 129.165 537.102 131.52C536.878 131.968 536.635 132.36 536.261 132.883ZM532.469 126.064C531.609 126.213 530.731 126.344 529.853 126.512C530.245 127.391 530.526 128.325 531.049 129.128C531.628 129.932 532.487 130.548 533.16 131.333C534.019 132.379 534.449 131.688 534.804 130.922C535.963 128.493 535.514 127.409 532.469 126.064ZM526.583 129.464C526.864 130.081 526.957 131.034 527.406 131.277C528.041 131.594 528.938 131.351 529.722 131.389C529.573 130.903 529.386 130.455 529.199 130.006C529.124 129.763 529.068 129.558 528.975 129.334C528.209 127.876 527.592 127.839 526.583 129.464Z" fill="#4fb8ff"></path>
<path d="M564.529 172.367C563.632 171.563 563.483 170.611 563.202 169.508C562.1 165.174 564.996 162.483 566.79 159.326C567.406 158.298 568.434 157.345 569.48 156.691C571.404 155.552 573.273 156.654 573.273 158.971C573.291 162.95 571.46 166.257 567.948 167.92C565.725 168.966 565.426 170.648 564.529 172.367ZM569.05 159.681C568.135 161.101 567.182 162.502 566.323 163.978C566.024 164.482 565.986 165.136 565.818 165.771C566.509 165.678 567.35 165.79 567.929 165.454C569.742 164.295 570.489 162.371 570.956 160.391C571.087 159.942 570.732 159.344 570.601 158.84C570.19 159.027 569.742 159.214 569.05 159.681Z" fill="#4fb8ff"></path>
<path d="M568.04 58.5658C568.788 56.0435 570.077 54.1004 572.356 52.8113C573.907 51.9705 575.981 52.531 576.28 54.2312C576.728 56.8842 576.971 59.556 577.289 62.2464C577.345 62.564 577.419 62.9564 577.251 63.1806C576.99 63.5542 576.579 63.7784 576.205 64.0961C576.13 63.7037 576.055 63.2927 575.943 62.863C575.495 60.5649 575.028 58.2855 574.561 55.9688C574.187 54.0817 573.01 54.6422 572.076 55.2962C569.927 56.7535 569.068 60.8638 570.432 63.1245C570.749 63.7037 571.478 64.0961 572.001 64.5818C572.244 64.2829 572.73 63.984 572.73 63.7037C572.749 62.5267 572.618 61.387 572.524 60.2286C572.506 59.5186 572.487 58.7339 572.487 58.0053C572.991 58.5658 573.888 59.1076 573.963 59.7241C574.243 61.6112 575.233 63.33 574.168 65.46C573.253 67.3096 571.964 67.0294 570.861 66.5996C568.283 65.5907 566.919 61.3496 568.04 58.5658Z" fill="#4fb8ff"></path>
<path d="M531.722 50.4695C530.115 52.1511 530.134 52.9731 531.647 54.5799C532.469 55.458 533.16 56.4483 533.908 57.4198C534.636 58.3353 535.309 58.2605 536 57.4198C536.505 56.8593 537.065 56.3735 537.607 55.8504C538.466 55.0096 538.989 54.0941 538.018 53.0852C537.121 52.1137 535.047 52.2632 534.319 53.1786C533.964 53.571 533.627 54.0194 533.16 54.2997C532.861 54.4865 532.394 54.3744 531.983 54.3931C532.021 53.8886 531.834 53.0665 532.114 52.8984C533.478 51.8708 534.898 50.7498 536.449 50.2827C537.14 50.0772 538.373 51.2916 539.12 52.095C539.494 52.4687 539.457 53.3468 539.438 54.0381C539.438 54.6173 539.158 55.2525 539.102 55.8877C538.84 58.7837 534.132 61.2312 531.815 59.4563C529.909 57.999 528.265 56.2614 528.396 53.3281C528.527 51.1982 529.816 50.0398 531.18 49.087C533.086 47.7044 535.215 46.7142 537.738 47.2934C537.85 47.3494 537.999 47.2934 538.111 47.2934C537.868 47.5362 537.663 47.8539 537.327 47.9473C535.514 48.6759 533.646 49.3485 531.796 50.0398C531.778 50.0959 531.759 50.2267 531.722 50.4695Z" fill="#4fb8ff"></path>
<path d="M609.502 69.514C611.239 69.1964 612.827 68.6172 614.434 68.5798C615.312 68.5612 616.396 69.2338 617.031 69.8877C618.245 71.1768 619.254 70.5042 620.413 69.9998C620.674 69.8877 620.992 69.9064 621.291 69.869C621.16 70.1119 621.067 70.5042 620.861 70.5603C618.47 71.3263 617.666 73.531 616.396 75.3993C614.565 78.1458 610.735 78.6315 608.082 76.8006C606.344 75.5675 606.026 72.821 607.558 71.0647C608.063 70.4482 608.735 69.9998 609.502 69.514ZM612.491 74.0541C613.182 73.531 613.892 73.0639 614.546 72.5594C614.845 72.3165 615.144 72.1484 615.405 71.9242C615.125 71.5692 614.864 70.99 614.49 70.934C612.79 70.5416 611.146 70.7471 609.782 71.9802C608.922 72.7649 608.194 73.4749 609.483 74.4838C610.529 75.2872 611.557 75.6982 612.491 74.0541ZM613.537 74.8575C613.986 74.7828 614.434 74.7641 614.864 74.708C614.602 74.4838 614.284 74.0728 614.135 74.1102C613.78 74.2036 613.537 74.5959 613.537 74.8575Z" fill="#4fb8ff"></path>
<path d="M606.417 156.597C604.605 154.056 605.931 152.076 607.65 150.338C609.07 148.899 610.64 147.479 612.34 146.321C613.349 145.592 614.75 145.275 615.927 146.545C617.216 147.909 616.749 149.535 615.89 150.525C613.928 152.767 611.929 155.028 609.313 156.653C608.155 157.363 607.464 157.139 606.417 156.597ZM609.257 150.805C609.033 151.702 608.79 152.636 608.528 153.552C609.388 153.141 610.341 152.935 611.069 152.375C612.097 151.534 612.919 150.506 613.722 149.516C613.909 149.329 613.648 148.75 613.442 148.432C613.386 148.32 612.863 148.432 612.62 148.563C611.593 149.217 610.565 149.89 609.257 150.805Z" fill="#4fb8ff"></path>
<path d="M506.089 98.1517C504.556 96.6383 505.024 95.2371 505.64 93.4434C506.967 89.5199 510.629 89.1836 513.487 87.6516C513.973 87.39 515.113 87.6889 515.449 88.1C515.767 88.5297 515.617 89.5012 515.393 90.1365C514.16 93.8171 511.189 96.0404 508.218 98.1704C507.789 98.488 506.892 98.1517 506.089 98.1517ZM509.452 91.7993C509.209 92.3598 508.966 92.9016 508.76 93.4621C508.742 93.5369 509.209 93.8732 509.47 93.8732C510.535 93.8919 512.889 91.463 512.908 90.398C512.945 90.1552 512.889 89.9496 512.871 89.7068C512.572 89.7254 512.235 89.7068 512.011 89.8562C511.226 90.398 510.479 90.9772 509.452 91.7993Z" fill="#4fb8ff"></path>
<path d="M522.416 183.587C522.285 183.194 522.098 182.671 522.266 182.354C522.565 181.7 523.163 181.214 523.481 180.579C524.266 178.972 524.994 177.515 527.031 177.01C528.226 176.73 529.179 175.59 530.356 174.974C531.365 174.395 532.711 173.572 533.551 174.843C534 175.459 533.813 176.992 533.364 177.664C531.608 180.018 529.684 182.279 527.666 184.353C525.816 186.221 525.331 186.053 523.444 184.222C523.182 183.998 522.846 183.811 522.416 183.587ZM530.581 178.916C530.992 178.468 531.776 178.056 530.412 177.832C528.955 177.571 525.742 179.719 525.592 181.774C525.536 182.204 525.928 182.653 526.115 183.101C526.545 182.952 527.068 182.895 527.367 182.559C528.395 181.476 529.31 180.317 530.581 178.916Z" fill="#4fb8ff"></path>
<path d="M583.081 101.783C583.511 100.83 583.978 100.008 584.071 99.1858C584.165 98.4758 583.978 97.2801 583.567 97.0559C582.988 96.7382 581.867 96.9251 581.25 97.3174C578.597 99.0176 577.158 101.465 577.046 104.641C577.046 104.959 576.579 105.239 576.374 105.557C576.056 105.295 575.682 105.071 575.533 104.753C574.692 103.371 574.785 102.119 575.925 100.849C577.382 99.2792 578.616 97.4856 580.035 95.8788C581.138 94.5896 582.464 94.1226 584.183 94.8139C586.089 95.5799 586.425 97.0372 586.164 98.7747C585.771 101.11 585.155 103.39 582.651 104.268C581.773 104.548 580.708 104.268 579.699 104.268C579.737 103.277 579.512 102.194 579.867 101.372C580.222 100.606 581.175 100.139 581.848 99.5408C581.549 100.307 581.194 101.073 580.858 101.876C580.783 102.119 580.671 102.53 580.708 102.586C581.044 102.773 581.549 103.072 581.848 102.941C582.278 102.717 582.595 102.25 583.081 101.783Z" fill="#4fb8ff"></path>
<path d="M603.203 35.303C601.69 33.061 602.605 30.9871 604.268 29.3617C605.539 28.1286 607.127 27.2318 608.677 26.2976C609.668 25.6437 610.546 25.8865 611.293 26.8768C612.788 28.9319 612.713 30.7442 610.863 32.5005C609.836 33.4533 608.696 34.2567 607.669 35.2096C606.267 36.4988 604.847 36.1064 603.203 35.303ZM608.453 28.0351C608.192 28.2967 607.855 28.5583 607.613 28.8572C606.697 29.9035 605.669 30.9124 604.978 32.0708C604.735 32.4631 605.389 33.3599 605.613 34.0139C606.024 33.6775 606.435 33.3599 606.79 33.0236C607.22 32.5939 607.538 32.0708 608.061 31.7905C610.284 30.52 610.415 29.9035 608.734 28.2407C608.696 28.1846 608.715 28.0912 608.453 28.0351Z" fill="#4fb8ff"></path>
<path d="M510.608 49.8335C510.907 50.0764 511.299 50.5248 511.262 50.5621C510.589 51.2161 509.786 51.7953 509.188 52.4865C508.758 53.0097 508.142 53.9812 508.347 54.3175C509.45 55.9804 508.758 58.596 511.206 59.6049C511.636 59.7731 511.617 60.9315 511.804 61.6601C511.131 61.7909 510.44 62.0525 509.749 62.0338C508.571 62.0151 507.357 61.6975 506.199 61.7909C504.125 61.9217 502.724 60.6139 503.209 58.5774C504.144 54.467 506.236 51.2161 510.608 49.8335ZM507.413 59.1005C509.207 58.185 507.17 57.2882 507.357 56.3167C507.413 56.1485 506.329 55.7562 505.75 55.4759C505.732 55.4572 505.545 55.6254 505.507 55.7188C505.451 56.5595 505.134 57.4937 505.377 58.2224C505.563 58.6521 506.554 58.8016 507.413 59.1005Z" fill="#4fb8ff"></path>
<path d="M570.696 130.308C571.144 131.074 571.537 131.746 572.06 132.344C572.396 132.755 572.882 133.073 573.274 133.428C573.218 132.848 573.293 132.213 573.05 131.69C572.508 130.644 572.956 130.364 573.891 129.915C574.993 129.429 575.815 128.346 576.88 127.935C578.375 127.374 579.701 128.346 580.206 129.56C580.542 130.438 580.019 131.69 579.907 132.736C579.888 132.755 579.514 132.811 579.421 132.736C578.767 131.952 578.076 131.148 577.422 130.382C577.104 130.009 576.843 129.579 576.525 129.205C576.021 130.027 575.255 130.812 574.974 131.709C574.787 132.269 575.03 133.222 575.46 133.652C576.058 134.212 576.992 134.418 577.777 134.792C578.076 134.922 578.543 135.203 578.524 135.277C578.412 135.763 578.076 136.604 577.945 136.566C575.871 136.23 573.648 136.099 571.798 135.221C570.098 134.399 569.519 132.4 569.369 130.494C569.351 130.139 569.799 129.747 570.023 129.392C570.266 129.672 570.49 129.934 570.696 130.308Z" fill="#4fb8ff"></path>
<path d="M488.282 171.424C488.039 166.66 490.449 162.998 492.691 159.28C492.916 158.906 493.607 158.757 494.055 158.533C494.261 159.168 494.728 159.915 494.597 160.476C494.13 162.512 493.551 164.511 492.785 166.454C492.318 167.594 491.253 168.435 490.842 169.575C490.431 170.546 490.58 171.723 490.543 172.807C490.543 173.012 490.748 173.386 490.823 173.423C491.178 173.405 491.514 173.274 491.869 173.143C491.44 173.61 491.066 174.189 490.524 174.395C490.169 174.526 489.384 174.189 489.198 173.853C488.768 173.162 488.637 172.321 488.282 171.424Z" fill="#4fb8ff"></path>
<path d="M570.731 15.5535C571.086 15.3106 571.292 15.1611 571.497 15.1611C572.263 15.2546 573.011 15.3667 573.777 15.4601C573.366 16.114 573.048 16.8053 572.562 17.3845C572.002 18.0944 571.329 18.6923 570.656 19.3089C568.882 20.8783 567.088 22.485 565.257 23.9984C565.07 24.1852 564.528 24.2226 564.397 24.0918C564.136 23.7182 563.874 23.2884 563.856 22.84C563.781 22.5411 564.024 22.1487 564.229 21.8872C566.004 19.9441 567.798 18.0197 569.61 16.0953C569.872 15.8524 570.301 15.8151 570.731 15.5535Z" fill="#4fb8ff"></path>
<path d="M536.73 54.7726C536.674 54.9781 536.655 55.1089 536.599 55.1649C536.057 55.3704 535.534 55.576 534.936 55.7815C535.16 55.0902 535.16 54.2868 535.571 53.745C535.814 53.3526 536.524 53.2779 537.047 53.0911C536.954 53.6142 536.804 54.1187 536.73 54.7726Z" fill="#4fb8ff"></path>
<path d="M622.281 69.3032C622.412 69.0043 622.58 68.7988 622.786 68.5932C622.804 68.5746 623.047 68.7053 623.159 68.7614C622.898 68.9482 622.636 69.1724 622.281 69.3032Z" fill="#4fb8ff"></path>
<path d="M622.15 69.1516C622.094 69.2637 621.963 69.2824 621.832 69.3011C621.944 69.2637 622.019 69.189 622.15 69.1516Z" fill="#4fb8ff"></path>
<path d="M660.955 188.094C660.077 190.84 656.901 191.905 654.154 190.168C652.921 189.383 651.651 188.206 650.978 186.917C649.315 183.666 652.38 180.34 655.126 179.929C656.135 179.78 657.181 179.705 658.209 179.705C660.357 179.705 662.973 181.237 663.403 183.18C663.608 184.077 662.768 185.216 662.3 186.188C662.002 186.861 661.516 187.384 660.955 188.094ZM656.565 188.449C655.388 187.402 654.229 186.375 653.146 185.216C653.09 185.104 653.015 185.03 652.94 184.955C652.959 185.086 652.996 185.216 652.884 185.478C652.847 188.131 654.883 188.206 656.826 188.71C656.901 188.636 656.994 188.561 657.125 188.467C656.957 188.542 656.826 188.561 656.565 188.449ZM660.862 185.048C660.993 184.712 661.292 184.264 661.161 184.077C660.152 182.395 656.172 181.237 654.416 182.059C654.154 182.171 653.837 182.377 653.725 182.638C653.501 183.068 653.445 183.535 653.314 184.039C653.743 183.946 654.192 183.909 654.622 183.815C654.939 183.703 655.238 183.423 655.556 183.423C656.546 183.348 657.555 183.423 658.508 183.423C657.966 184.899 656.714 183.909 655.78 184.189C655.574 184.245 655.332 184.32 655.107 184.376C655.219 184.637 655.257 184.918 655.444 185.104C657.05 187.178 658.358 187.216 660.862 185.048Z" fill="#4fb8ff"></path>
<path d="M599.431 215.984C601.094 212.248 605.055 211.108 607.185 214.172C608.549 216.208 610.118 218.133 611.388 220.244C612.248 221.608 610.604 223.962 608.96 224.205C608.007 224.354 607.091 224.822 606.157 225.158C605.335 225.438 604.532 225.849 603.672 225.961C599.263 226.447 597.974 222.71 598.291 219.235C598.366 218.17 598.927 217.143 599.431 215.984ZM600.814 221.982C601.636 222.598 602.476 223.775 603.261 223.738C604.756 223.701 606.269 222.991 607.745 222.505C607.988 222.43 608.287 221.982 608.231 221.814C607.465 219.422 607.596 216.601 605.242 215.013C604.644 214.602 603.392 214.564 602.775 214.901C601.206 215.76 600.16 219.945 600.814 221.982Z" fill="#4fb8ff"></path>
<path d="M650.436 227.855C649.166 229.461 648.101 229.611 646.531 228.322C645.84 227.724 644.327 227.855 643.262 228.098C641.132 228.602 639.226 228.116 638.628 226.472C638.068 224.921 639.133 221.876 640.702 221.278C642.813 220.419 644.943 219.653 647.129 219.242C648.12 219.073 649.596 219.503 650.231 220.213C651.725 222.007 652.491 224.137 651.277 226.491C651.053 226.921 650.81 227.313 650.436 227.855ZM646.644 221.035C645.784 221.185 644.906 221.315 644.028 221.484C644.42 222.362 644.7 223.296 645.224 224.099C645.803 224.903 646.662 225.519 647.335 226.304C648.194 227.35 648.624 226.659 648.979 225.893C650.137 223.464 649.689 222.362 646.644 221.035ZM640.758 224.417C641.038 225.033 641.132 225.986 641.58 226.229C642.216 226.547 643.112 226.304 643.897 226.341C643.748 225.856 643.561 225.407 643.374 224.959C643.299 224.716 643.243 224.51 643.15 224.286C642.384 222.848 641.767 222.81 640.758 224.417Z" fill="#4fb8ff"></path>
<path d="M678.705 267.315C677.808 266.511 677.659 265.559 677.379 264.456C676.276 260.122 679.172 257.431 680.966 254.274C681.583 253.246 682.61 252.293 683.656 251.639C685.581 250.5 687.449 251.602 687.449 253.919C687.468 257.898 685.637 261.205 682.124 262.868C679.901 263.933 679.602 265.596 678.705 267.315ZM683.227 254.647C682.311 256.067 681.358 257.469 680.499 258.945C680.2 259.449 680.163 260.103 679.994 260.738C680.686 260.645 681.526 260.757 682.106 260.421C683.918 259.262 684.665 257.338 685.132 255.357C685.263 254.909 684.908 254.311 684.777 253.807C684.366 253.994 683.918 254.162 683.227 254.647Z" fill="#4fb8ff"></path>
<path d="M655.613 144.582C656.36 142.059 657.65 140.116 659.929 138.827C661.48 137.986 663.554 138.547 663.852 140.247C664.301 142.9 664.544 145.572 664.861 148.262C664.917 148.58 664.992 148.972 664.824 149.196C664.562 149.57 664.151 149.794 663.778 150.112C663.703 149.72 663.628 149.309 663.516 148.879C663.068 146.581 662.601 144.301 662.134 141.985C661.76 140.098 660.583 140.658 659.649 141.312C657.5 142.769 656.641 146.88 658.005 149.14C658.322 149.72 659.051 150.112 659.574 150.598C659.817 150.299 660.303 150 660.303 149.72C660.321 148.543 660.191 147.403 660.097 146.244C660.078 145.534 660.06 144.75 660.06 144.021C660.564 144.582 661.461 145.123 661.536 145.74C661.816 147.627 662.806 149.346 661.741 151.476C660.826 153.325 659.537 153.045 658.434 152.616C655.856 151.588 654.492 147.365 655.613 144.582Z" fill="#4fb8ff"></path>
<path d="M652.323 102.414C650.716 104.096 650.735 104.918 652.249 106.525C653.071 107.403 653.762 108.393 654.509 109.364C655.238 110.28 655.91 110.205 656.602 109.364C657.106 108.804 657.667 108.318 658.208 107.795C659.068 106.954 659.591 106.039 658.62 105.03C657.723 104.058 655.649 104.208 654.92 105.123C654.565 105.516 654.229 105.964 653.762 106.244C653.463 106.431 652.996 106.319 652.585 106.338C652.622 105.833 652.435 105.011 652.716 104.843C654.079 103.816 655.499 102.695 657.05 102.227C657.741 102.022 658.975 103.236 659.722 104.04C660.096 104.413 660.058 105.292 660.039 105.983C660.039 106.562 659.759 107.197 659.703 107.832C659.442 110.728 654.733 113.176 652.417 111.401C650.511 109.944 648.867 108.206 648.998 105.273C649.128 103.143 650.418 101.985 651.781 101.032C653.687 99.6491 655.817 98.6589 658.339 99.2381C658.451 99.2941 658.601 99.2381 658.713 99.2381C658.47 99.4809 658.265 99.7986 657.928 99.892C656.116 100.621 654.248 101.293 652.398 101.985C652.379 102.041 652.361 102.171 652.323 102.414Z" fill="#4fb8ff"></path>
<path d="M700.359 152.5C702.096 152.182 703.685 151.603 705.291 151.566C706.169 151.547 707.253 152.22 707.888 152.874C709.103 154.163 710.112 153.49 711.27 152.986C711.532 152.874 711.849 152.892 712.148 152.855C712.017 153.098 711.924 153.49 711.718 153.546C709.327 154.312 708.524 156.517 707.253 158.385C705.422 161.132 701.592 161.617 698.939 159.786C697.201 158.553 696.884 155.807 698.416 154.051C698.92 153.434 699.593 152.986 700.359 152.5ZM703.348 157.04C704.04 156.517 704.75 156.05 705.403 155.545C705.702 155.302 706.001 155.134 706.263 154.91C705.983 154.555 705.721 153.976 705.347 153.92C703.647 153.527 702.003 153.733 700.639 154.966C699.78 155.751 699.051 156.461 700.34 157.47C701.387 158.273 702.414 158.684 703.348 157.04ZM704.395 157.843C704.843 157.769 705.291 157.75 705.721 157.694C705.46 157.47 705.142 157.059 704.992 157.096C704.637 157.189 704.395 157.582 704.395 157.843Z" fill="#4fb8ff"></path>
<path d="M656.472 293.538C654.66 290.997 655.987 289.017 657.706 287.279C659.126 285.841 660.695 284.421 662.395 283.262C663.404 282.534 664.805 282.216 665.982 283.486C667.271 284.85 666.804 286.476 665.945 287.466C663.983 289.708 661.984 291.969 659.368 293.594C658.21 294.304 657.519 294.08 656.472 293.538ZM659.312 287.765C659.088 288.662 658.845 289.596 658.584 290.511C659.443 290.1 660.396 289.895 661.125 289.334C662.152 288.494 662.974 287.466 663.778 286.476C663.965 286.289 663.703 285.71 663.497 285.392C663.441 285.28 662.918 285.392 662.675 285.523C661.648 286.158 660.639 286.849 659.312 287.765Z" fill="#4fb8ff"></path>
<path d="M620.263 193.123C618.731 191.61 619.198 190.208 619.815 188.415C621.141 184.491 624.803 184.155 627.662 182.623C628.148 182.361 629.287 182.66 629.624 183.071C629.941 183.501 629.792 184.473 629.568 185.108C628.335 188.789 625.364 191.012 622.393 193.142C621.964 193.459 621.067 193.123 620.263 193.123ZM623.626 186.771C623.384 187.331 623.141 187.873 622.935 188.434C622.916 188.508 623.383 188.845 623.645 188.845C624.71 188.863 627.064 186.434 627.083 185.369C627.12 185.127 627.064 184.921 627.045 184.678C626.747 184.697 626.41 184.678 626.186 184.828C625.401 185.351 624.654 185.93 623.626 186.771Z" fill="#4fb8ff"></path>
<path d="M636.594 278.558C636.463 278.166 636.276 277.643 636.444 277.325C636.743 276.671 637.341 276.185 637.659 275.55C638.443 273.943 639.172 272.486 641.209 271.982C642.404 271.701 643.357 270.562 644.534 269.945C645.543 269.366 646.888 268.544 647.729 269.814C648.177 270.431 647.991 271.963 647.542 272.636C645.786 274.99 643.862 277.25 641.844 279.324C639.994 281.193 639.508 281.024 637.621 279.194C637.36 278.969 637.023 278.764 636.594 278.558ZM644.758 273.887C645.169 273.439 645.954 273.028 644.59 272.804C643.133 272.542 639.919 274.691 639.77 276.746C639.714 277.176 640.106 277.624 640.293 278.072C640.723 277.923 641.246 277.867 641.545 277.531C642.572 276.447 643.488 275.289 644.758 273.887Z" fill="#4fb8ff"></path>
<path d="M697.257 196.725C697.687 195.772 698.154 194.95 698.247 194.128C698.341 193.418 698.154 192.222 697.743 191.998C697.164 191.681 696.043 191.867 695.426 192.26C692.773 193.96 691.335 196.407 691.222 199.584C691.222 199.901 690.755 200.181 690.55 200.499C690.232 200.238 689.859 200.013 689.709 199.696C688.868 198.313 688.962 197.061 690.101 195.791C691.559 194.221 692.792 192.428 694.212 190.821C695.314 189.532 696.641 189.065 698.36 189.756C700.265 190.522 700.602 191.979 700.34 193.717C699.948 196.052 699.331 198.332 696.827 199.21C695.949 199.49 694.884 199.21 693.875 199.21C693.913 198.22 693.689 197.136 694.044 196.314C694.399 195.548 695.351 195.081 696.024 194.483C695.725 195.249 695.37 196.015 695.034 196.818C694.959 197.061 694.847 197.472 694.884 197.528C695.221 197.715 695.725 198.014 696.024 197.883C696.454 197.678 696.771 197.211 697.257 196.725Z" fill="#4fb8ff"></path>
<path d="M684.964 91.8598C683.451 89.6178 684.367 87.5439 686.029 85.9184C687.3 84.6853 688.888 83.7885 690.439 82.8543C691.429 82.2004 692.307 82.4433 693.054 83.4335C694.549 85.4887 694.474 87.301 692.625 89.0573C691.597 90.0101 690.457 90.8135 689.43 91.7663C688.029 93.0742 686.609 92.6818 684.964 91.8598ZM690.215 84.6106C689.953 84.8722 689.617 85.1337 689.374 85.4327C688.458 86.4789 687.431 87.4878 686.739 88.6462C686.497 89.0386 687.15 89.9354 687.375 90.5893C687.786 90.253 688.197 89.9354 688.552 89.5991C688.981 89.1693 689.299 88.6462 689.822 88.366C692.046 87.0955 692.176 86.4789 690.495 84.8161C690.457 84.7601 690.495 84.6666 690.215 84.6106Z" fill="#4fb8ff"></path>
<path d="M707.925 108.556C708.224 108.799 708.616 109.247 708.579 109.285C707.906 109.939 707.103 110.518 706.505 111.209C706.075 111.732 705.459 112.704 705.664 113.04C706.767 114.703 706.075 117.319 708.523 118.328C708.952 118.496 708.934 119.654 709.121 120.383C708.448 120.514 707.757 120.775 707.065 120.756C705.888 120.738 704.674 120.42 703.516 120.514C701.442 120.644 700.04 119.337 700.526 117.3C701.46 113.19 703.553 109.939 707.925 108.556ZM704.73 117.823C706.524 116.908 704.487 116.011 704.674 115.039C704.73 114.871 703.646 114.479 703.067 114.199C703.048 114.18 702.862 114.348 702.824 114.441C702.768 115.282 702.451 116.216 702.694 116.945C702.88 117.375 703.871 117.524 704.73 117.823Z" fill="#4fb8ff"></path>
<path d="M684.871 225.273C685.319 226.039 685.712 226.712 686.235 227.309C686.571 227.72 687.057 228.038 687.449 228.393C687.393 227.814 687.468 227.179 687.225 226.656C686.683 225.609 687.132 225.329 688.066 224.881C689.168 224.395 689.99 223.311 691.055 222.9C692.55 222.34 693.876 223.311 694.381 224.526C694.717 225.404 694.194 226.656 694.082 227.702C694.063 227.72 693.69 227.777 693.596 227.702C692.942 226.917 692.251 226.114 691.597 225.348C691.279 224.974 691.018 224.544 690.7 224.171C690.196 224.993 689.43 225.777 689.15 226.674C688.963 227.235 689.206 228.188 689.635 228.617C690.233 229.178 691.167 229.383 691.952 229.757C692.251 229.888 692.718 230.168 692.699 230.243C692.587 230.729 692.251 231.569 692.12 231.532C690.046 231.196 687.823 231.065 685.973 230.187C684.273 229.365 683.694 227.365 683.545 225.46C683.526 225.105 683.974 224.712 684.198 224.357C684.441 224.619 684.666 224.899 684.871 225.273Z" fill="#4fb8ff"></path>
<path d="M602.457 266.396C602.214 261.631 604.624 257.969 606.866 254.251C607.09 253.878 607.782 253.728 608.23 253.504C608.436 254.139 608.903 254.887 608.772 255.447C608.305 257.484 607.726 259.483 606.96 261.426C606.493 262.566 605.428 263.406 605.017 264.546C604.606 265.517 604.755 266.695 604.718 267.778C604.718 267.984 604.923 268.357 604.998 268.395C605.353 268.376 605.689 268.245 606.044 268.114C605.614 268.582 605.241 269.161 604.699 269.366C604.344 269.497 603.559 269.161 603.372 268.824C602.943 268.114 602.812 267.292 602.457 266.396Z" fill="#4fb8ff"></path>
<path d="M651.465 54.9931C651.82 54.7502 652.025 54.6007 652.231 54.6007C652.997 54.6941 653.744 54.8062 654.51 54.8996C654.099 55.5536 653.781 56.2448 653.296 56.824C652.735 57.534 652.062 58.1319 651.39 58.7484C649.615 60.3178 647.821 61.9246 645.99 63.438C645.803 63.6248 645.262 63.6622 645.131 63.5314C644.869 63.1577 644.608 62.728 644.589 62.2796C644.514 61.9807 644.757 61.5883 644.963 61.3268C646.738 59.3837 648.531 57.4593 650.344 55.5349C650.624 55.292 651.035 55.2546 651.465 54.9931Z" fill="#4fb8ff"></path>
<path d="M736.457 164.251C736.587 163.952 736.756 163.746 736.961 163.541C736.98 163.522 737.223 163.653 737.335 163.709C737.073 163.915 736.812 164.12 736.457 164.251Z" fill="#4fb8ff"></path>
<path d="M736.325 164.123C736.269 164.235 736.138 164.254 736.007 164.273C736.119 164.235 736.194 164.142 736.325 164.123Z" fill="#4fb8ff"></path>
<path d="M308.062 299.125H220.343C205.751 284.533 197.568 276.35 182.976 261.758V164.193C197.568 149.601 205.751 141.418 220.343 126.826H308.043C322.635 141.418 330.818 149.601 345.41 164.193V261.758C330.818 276.35 322.654 284.533 308.062 299.125Z" fill="white"></path>
<path d="M319.777 212.971C319.777 243.668 294.91 268.536 264.213 268.536C247.771 268.536 232.993 261.399 222.829 250.039C217.84 244.49 213.954 237.895 211.525 230.665C209.657 225.097 208.648 219.156 208.648 212.953C208.648 182.256 233.516 157.388 264.213 157.388C271.088 157.388 277.665 158.64 283.755 160.938C290.893 163.61 297.338 167.72 302.719 172.914C313.219 183.022 319.777 197.221 319.777 212.971Z" fill="#3D3D3D"></path>
<path d="M277.478 173.086C277.478 194.983 259.747 212.713 237.85 212.713C226.117 212.713 215.579 207.631 208.33 199.523C204.78 195.562 201.996 190.872 200.259 185.716C198.932 181.736 198.204 177.495 198.204 173.086C198.204 151.189 215.934 133.458 237.831 133.458C242.726 133.458 247.435 134.355 251.769 135.98C256.851 137.886 261.447 140.819 265.296 144.519C272.807 151.731 277.478 161.857 277.478 173.086Z" fill="white"></path>
<path d="M574.992 299.125H487.292C472.7 284.533 464.517 276.35 449.925 261.758V164.193C464.517 149.601 472.7 141.418 487.292 126.826H574.992C589.584 141.418 597.768 149.601 612.359 164.193V261.758C597.768 276.35 589.584 284.533 574.992 299.125Z" fill="white"></path>
<path d="M586.709 212.971C586.709 243.668 561.842 268.536 531.145 268.536C514.703 268.536 499.925 261.399 489.761 250.039C484.772 244.49 480.886 237.895 478.457 230.665C476.589 225.097 475.58 219.156 475.58 212.953C475.58 182.256 500.448 157.388 531.145 157.388C538.02 157.388 544.597 158.64 550.688 160.938C557.825 163.61 564.27 167.72 569.651 172.914C580.151 183.022 586.709 197.221 586.709 212.971Z" fill="#3D3D3D"></path>
<path d="M544.427 173.086C544.427 194.983 526.696 212.713 504.799 212.713C493.066 212.713 482.528 207.631 475.279 199.523C471.729 195.562 468.946 190.872 467.208 185.716C465.881 181.736 465.153 177.495 465.153 173.086C465.153 151.189 482.883 133.458 504.78 133.458C509.676 133.458 514.384 134.355 518.718 135.98C523.8 137.886 528.396 140.819 532.245 144.519C539.756 151.731 544.427 161.857 544.427 173.086Z" fill="white"></path>
</svg>
