<svg width="200" height="150" viewBox="0 0 800 600" fill="none" xmlns="http://www.w3.org/2000/svg" data-reactroot="">
<path d="M602.265 328.06C585.94 442.812 463.352 527.079 348.599 510.754C233.847 494.43 181.61 385.293 197.934 270.541C214.259 155.788 341.03 73.5449 455.783 89.8693C570.535 106.194 618.589 213.307 602.265 328.06Z" fill="#4fb8ff"></path>
<path d="M62.8047 412.785C77.5716 329.414 202.178 180.969 398.578 197.213C644.077 217.517 126.313 498.088 381.042 515.624C635.771 533.159 624.696 171.37 723.449 184.292C802.452 194.628 784.67 356.572 765.904 436.252" stroke="#005B9D" stroke-width="2" stroke-linecap="round"></path>
<path d="M38.3105 139.757L179.982 166.326L210.297 319.589L68.6257 293.02L38.3105 139.757Z" fill="#461bc2"></path>
<path d="M188.094 156.923L179.981 166.325L210.296 319.589L218.409 310.186L188.094 156.923Z" fill="#9f8aff"></path>
<path d="M188.084 156.985L180.094 166.359L38.3089 139.772L46.6234 131.413L188.084 156.985Z" fill="#9f8aff"></path>
<rect x="586.369" y="208.369" width="114.834" height="102.314" transform="rotate(7.71811 586.369 208.369)" fill="#461bc2"></rect>
<path d="M700.164 223.79L685.93 328.819L689.572 329.312L702.568 233.423L700.164 223.79Z" fill="#9f8aff"></path>
<path d="M572.629 309.754L688.987 325.524L688.494 329.166L581.29 314.637L572.629 309.754Z" fill="#9f8aff"></path>
<rect x="585.024" y="288.395" width="40.9444" height="3.28202" transform="rotate(7.71811 585.024 288.395)" fill="#9f8aff"></rect>
<rect x="586.788" y="275.386" width="40.9444" height="3.28202" transform="rotate(7.71811 586.788 275.386)" fill="#9f8aff"></rect>
<rect x="588.551" y="262.377" width="40.9444" height="3.28202" transform="rotate(7.71811 588.551 262.377)" fill="#9f8aff"></rect>
<rect x="590.313" y="249.368" width="40.9444" height="3.28202" transform="rotate(7.71811 590.313 249.368)" fill="#9f8aff"></rect>
<rect x="592.077" y="236.36" width="40.9444" height="3.28202" transform="rotate(7.71811 592.077 236.36)" fill="#9f8aff"></rect>
<rect x="593.84" y="223.351" width="40.9444" height="3.28202" transform="rotate(7.71811 593.84 223.351)" fill="#9f8aff"></rect>
<rect x="634.418" y="295.089" width="40.9444" height="3.28202" transform="rotate(7.71811 634.418 295.089)" fill="#9f8aff"></rect>
<rect x="636.182" y="282.08" width="40.9444" height="3.28202" transform="rotate(7.71811 636.182 282.08)" fill="#9f8aff"></rect>
<rect x="637.944" y="269.071" width="40.9444" height="3.28202" transform="rotate(7.71811 637.944 269.071)" fill="#9f8aff"></rect>
<rect x="643.233" y="230.045" width="40.9444" height="29.5372" transform="rotate(7.71811 643.233 230.045)" fill="#9f8aff"></rect>
<path d="M628.61 307.383L620.395 316.228L633.471 318L628.61 307.383Z" fill="#9f8aff"></path>
<rect x="378.549" y="261.908" width="95.8924" height="85.437" transform="rotate(21.7863 378.549 261.908)" fill="#461bc2"></rect>
<path d="M467.593 297.498L434.744 379.682L437.594 380.821L467.584 305.788L467.593 297.498Z" fill="#9f8aff"></path>
<path d="M346.84 341.242L437.89 377.634L436.751 380.484L352.864 346.955L346.84 341.242Z" fill="#9f8aff"></path>
<rect x="361.216" y="326.457" width="34.1906" height="2.74065" transform="rotate(21.7863 361.216 326.457)" fill="#9f8aff"></rect>
<rect x="365.285" y="316.277" width="34.1906" height="2.74065" transform="rotate(21.7863 365.285 316.277)" fill="#9f8aff"></rect>
<rect x="369.354" y="306.098" width="34.1906" height="2.74065" transform="rotate(21.7863 369.354 306.098)" fill="#9f8aff"></rect>
<rect x="373.422" y="295.919" width="34.1906" height="2.74065" transform="rotate(21.7863 373.422 295.919)" fill="#9f8aff"></rect>
<rect x="377.49" y="285.74" width="34.1906" height="2.74065" transform="rotate(21.7863 377.49 285.74)" fill="#9f8aff"></rect>
<rect x="381.559" y="275.56" width="34.1906" height="2.74065" transform="rotate(21.7863 381.559 275.56)" fill="#9f8aff"></rect>
<rect x="399.865" y="341.905" width="34.1906" height="2.74065" transform="rotate(21.7863 399.865 341.905)" fill="#9f8aff"></rect>
<rect x="403.934" y="331.725" width="34.1906" height="2.74065" transform="rotate(21.7863 403.934 331.725)" fill="#9f8aff"></rect>
<rect x="408.003" y="321.546" width="34.1906" height="2.74065" transform="rotate(21.7863 408.003 321.546)" fill="#9f8aff"></rect>
<rect x="420.209" y="291.009" width="34.1906" height="24.665" transform="rotate(21.7863 420.209 291.009)" fill="#9f8aff"></rect>
<path d="M392.665 350.685L384.216 356.181L394.448 360.271L392.665 350.685Z" fill="#9f8aff"></path>
</svg>
