<?xml version="1.0" encoding="UTF-8" standalone="no"?><!-- Generator: Gravit.io --><svg xmlns="http://www.w3.org/2000/svg" xmlns:xlink="http://www.w3.org/1999/xlink" style="isolation:isolate" viewBox="0 0 200 150" width="200pt" height="150pt"><defs><clipPath id="_clipPath_F112vKl1eRtBQ6JldIbm1Aarj37c0kkP"><rect width="200" height="150"/></clipPath></defs><g clip-path="url(#_clipPath_F112vKl1eRtBQ6JldIbm1Aarj37c0kkP)"><g opacity="0.9"><path d=" M 39.705 132.421 L 183.004 132.421 C 186.834 132.421 190 129.216 190 125.17 L 190 26.179 C 190 22.21 186.907 18.928 183.004 18.928 L 39.705 18.928 C 35.875 18.928 32.709 22.134 32.709 26.179 L 32.709 125.17 C 32.709 129.216 35.802 132.421 39.705 132.421 Z " fill="rgb(159,138,255)"/></g><path d=" M 171.812 111.758 C 173.878 108.822 175.509 105.125 175.509 99.796 C 175.509 94.576 173.987 90.879 171.812 87.943 L 173.769 87.943 C 175.618 90.335 177.575 94.033 177.575 99.796 C 177.575 105.56 175.618 109.257 173.769 111.649 L 171.812 111.649 L 171.812 111.758 Z " fill="rgb(79,184,255)"/><path d=" M 70.761 111.758 C 68.695 108.822 67.063 105.125 67.063 99.796 C 67.063 94.576 68.586 90.879 70.761 87.943 L 68.803 87.943 C 66.955 90.335 64.997 94.033 64.997 99.796 C 64.997 105.56 66.955 109.257 68.803 111.649 L 70.761 111.649 L 70.761 111.758 Z " fill="rgb(79,184,255)"/><path d=" M 141.03 32.641 L 176.303 32.641 L 176.303 40.888 L 141.03 40.888 L 141.03 32.641 Z " fill="rgb(70,27,194)"/><path d=" M 141.03 52.45 L 176.303 52.45 L 176.303 60.697 L 141.03 60.697 L 141.03 52.45 Z " fill="rgb(70,27,194)"/><path d=" M 58.775 52.45 L 138.304 52.45 L 138.304 60.697 L 58.775 60.697 L 58.775 52.45 Z " fill="rgb(70,27,194)"/><path d=" M 121.415 65.115 L 155.167 65.115 L 155.167 73.362 L 121.415 73.362 L 121.415 65.115 Z " fill="rgb(70,27,194)"/><path d=" M 68.421 65.115 L 102.174 65.115 L 102.174 73.362 L 68.421 73.362 L 68.421 65.115 Z " fill="rgb(70,27,194)"/><path d=" M 98.54 76.529 L 155.167 76.529 L 155.167 84.777 L 98.54 84.777 L 98.54 76.529 Z " fill="rgb(70,27,194)"/><path d=" M 111.797 89.011 L 168.424 89.011 L 168.424 97.258 L 111.797 97.258 L 111.797 89.011 Z " fill="rgb(70,27,194)"/><path d=" M 74.756 88.901 L 108.409 88.901 L 108.409 97.148 L 74.756 97.148 L 74.756 88.901 Z " fill="rgb(70,27,194)"/><path d=" M 105.585 67.591 L 105.585 66.18 L 118.009 66.18 L 118.009 67.591 L 105.585 67.591 Z  M 105.585 72.297 L 105.585 70.885 L 118.009 70.885 L 118.009 72.297 L 105.585 72.297 Z " fill="rgb(79,184,255)"/><path d=" M 111.797 101.492 L 168.424 101.492 L 168.424 109.74 L 111.797 109.74 L 111.797 101.492 Z " fill="rgb(70,27,194)"/><path d=" M 74.756 101.492 L 108.409 101.492 L 108.409 109.74 L 74.756 109.74 L 74.756 101.492 Z " fill="rgb(70,27,194)"/><path d=" M 36.036 45.574 C 42.131 45.574 43.041 49.304 43.041 51.942 C 43.041 54.308 42.677 56.582 42.313 58.948 C 41.949 61.313 41.585 63.678 41.585 66.044 C 41.585 74.778 47.044 77.871 54.141 77.871 L 55.96 77.871 L 55.96 73.14 L 54.505 73.14 C 49.683 73.049 47.59 70.502 47.59 65.589 C 47.59 63.496 47.954 61.495 48.227 59.402 C 48.591 57.31 48.955 55.217 48.955 52.852 C 48.955 47.302 46.498 44.391 42.768 43.39 L 42.768 43.208 C 46.589 42.207 48.955 39.387 48.955 33.837 C 48.955 31.472 48.591 29.47 48.227 27.287 C 47.954 25.194 47.59 23.102 47.59 21.191 C 47.59 16.551 49.41 13.822 54.414 13.731 L 56.051 13.731 L 56.051 9 L 54.323 9 C 46.953 9 41.677 12.366 41.677 20.281 C 41.677 22.738 42.04 25.012 42.404 27.469 C 42.768 29.925 43.132 32.291 43.132 34.747 C 43.132 37.749 42.222 41.116 36.127 41.116 L 36.127 45.574 L 36.036 45.574 Z " fill="rgb(79,184,255)"/><g><path d=" M 35.741 94.876 C 33.696 94.885 31.744 95.06 30.026 95.364 C 24.966 96.258 24.047 98.129 24.047 101.58 L 24.047 106.137 L 36.005 106.137 L 36.005 107.656 L 24.047 107.656 L 19.559 107.656 C 16.084 107.656 13.041 109.745 12.089 113.719 C 10.991 118.274 10.942 121.116 12.089 125.872 C 12.939 129.412 14.969 131.935 18.444 131.935 L 22.556 131.935 L 22.556 126.472 C 22.556 122.525 25.971 119.043 30.026 119.043 L 41.971 119.043 C 45.295 119.043 47.95 116.305 47.95 112.966 L 47.95 101.58 C 47.95 98.339 45.216 95.904 41.971 95.364 C 39.916 95.022 37.785 94.866 35.741 94.876 Z  M 29.274 98.541 C 30.509 98.541 31.518 99.566 31.518 100.827 C 31.518 102.083 30.509 103.099 29.274 103.099 C 28.034 103.099 27.03 102.083 27.03 100.827 C 27.03 99.566 28.034 98.541 29.274 98.541 Z " fill="rgb(48,105,152)"/><path d=" M 49.441 107.656 L 49.441 112.966 C 49.441 117.083 45.951 120.548 41.971 120.548 L 30.026 120.548 C 26.755 120.548 24.047 123.348 24.047 126.625 L 24.047 138.012 C 24.047 141.252 26.865 143.158 30.026 144.088 C 33.812 145.201 37.441 145.402 41.971 144.088 C 44.981 143.217 47.95 141.462 47.95 138.012 L 47.95 133.454 L 36.005 133.454 L 36.005 131.935 L 47.95 131.935 L 53.929 131.935 C 57.404 131.935 58.699 129.511 59.908 125.872 C 61.156 122.126 61.103 118.524 59.908 113.719 C 59.049 110.259 57.409 107.656 53.929 107.656 L 49.441 107.656 Z  M 42.723 136.492 C 43.963 136.492 44.967 137.508 44.967 138.764 C 44.967 140.025 43.963 141.05 42.723 141.05 C 41.488 141.05 40.479 140.025 40.479 138.764 C 40.479 137.508 41.488 136.492 42.723 136.492 Z " fill="rgb(255,212,59)"/></g></g></svg>