<svg width="200" height="150" viewBox="0 0 800 600" fill="none" xmlns="http://www.w3.org/2000/svg" data-reactroot="">
<path d="M375.88 444.609H342.888V501.643H375.88V444.609Z" fill="#4FB8FF"></path>
<path opacity="0.43" d="M399.506 376.336V423.691C392.637 423.483 385.039 423.378 377.234 423.378V376.336H399.506Z" fill="#4FB8FF"></path>
<path opacity="0.43" d="M341.536 376.336V423.795C333.626 423.899 326.028 424.107 319.263 424.315V376.336H341.536Z" fill="#4FB8FF"></path>
<path d="M399.506 423.691V433.682C399.506 444.819 390.451 453.769 379.419 453.769H339.35C328.214 453.769 319.263 444.819 319.263 433.682V424.316C326.028 424.107 333.626 423.899 341.536 423.795V431.393C341.536 433.995 343.617 436.18 346.323 436.18H372.55C375.152 436.18 377.338 434.099 377.338 431.393V423.379C385.144 423.379 392.637 423.483 399.506 423.691Z" fill="#4FB8FF"></path>
<path d="M377.338 367.592H341.536V376.23H377.338V367.592Z" fill="white"></path>
<path opacity="0.1" d="M632.845 447.627C452.064 415.884 266.808 415.884 86.0274 447.627C77.3891 449.188 69.063 443.672 67.5018 435.346C53.4515 363.95 39.5053 292.657 25.559 221.261C23.8938 212.935 30.7629 204.608 40.8583 202.839C251.509 165.788 467.364 165.788 678.014 202.839C688.11 204.608 694.875 212.935 693.313 221.261C679.367 292.657 665.421 363.95 651.475 435.346C649.705 443.672 641.483 449.084 632.845 447.627Z" fill="#9F8AFF"></path>
<path opacity="0.23" d="M626.496 435.971C449.774 405.893 269.098 405.893 92.3757 435.971C85.923 437.012 79.8866 432.953 78.6377 426.813C65.7322 357.81 52.8267 288.807 39.9212 219.909C38.7764 213.768 43.7721 207.732 51.2656 206.379C255.151 171.617 463.616 171.617 667.502 206.379C674.891 207.628 679.991 213.664 678.846 219.909C665.941 288.911 653.035 357.914 640.13 426.813C638.985 432.953 632.845 437.012 626.496 435.971Z" fill="#461BC2"></path>
<path opacity="0.23" d="M590.173 422.545C437.492 396.526 281.378 396.526 128.698 422.545C123.182 423.482 117.874 419.943 116.833 414.635C105.697 355.103 94.5606 295.468 83.4245 235.936C82.3837 230.628 86.7549 225.32 93.2076 224.279C269.409 194.305 449.565 194.305 625.663 224.279C632.115 225.32 636.487 230.628 635.446 235.936C624.31 295.572 613.174 355.103 602.037 414.739C600.997 420.047 595.689 423.586 590.173 422.545Z" fill="#461BC2"></path>
<path opacity="0.23" d="M264.727 296.717C260.356 273.508 255.985 249.154 251.718 225.945C251.301 223.863 253.071 221.782 255.568 221.365C324.259 209.709 394.615 209.709 463.305 221.365C465.803 221.782 467.468 223.863 467.156 225.945C462.785 249.154 458.413 273.508 454.146 296.717C398.882 294.531 319.888 293.699 264.727 296.717Z" fill="#461BC2"></path>
<path d="M417.824 293.699C378.899 292.137 339.974 292.137 300.946 293.699C299.905 267.784 298.968 241.973 297.927 216.058C338.934 214.496 379.836 214.496 420.842 216.058C419.801 241.973 418.864 267.888 417.824 293.699Z" fill="#4FB8FF"></path>
<path d="M541.881 409.223C420.736 393.091 298.03 393.091 176.885 409.223C172.098 409.848 167.726 406.621 167.102 401.938C163.876 378.521 160.545 355.103 157.319 331.582C156.694 326.899 160.233 322.527 165.333 321.903C294.179 304.834 424.691 304.834 553.538 321.903C558.638 322.527 562.176 326.899 561.552 331.582C558.325 354.999 554.995 378.416 551.768 401.938C551.04 406.621 546.669 409.848 541.881 409.223Z" fill="#9F8AFF"></path>
<path d="M534.805 316.908C418.343 302.962 300.633 302.962 184.067 316.908C183.755 314.202 183.443 311.392 183.131 308.686C300.321 294.636 418.656 294.636 535.846 308.686C535.429 311.392 535.117 314.098 534.805 316.908Z" fill="#461BC2"></path>
<path d="M503.79 341.782C503.478 345.321 503.062 348.963 502.75 352.502C419.905 344.176 336.644 343.135 253.695 349.276C253.383 345.737 253.174 342.094 252.862 338.556C336.436 332.311 420.425 333.456 503.79 341.782Z" fill="#461BC2"></path>
<path d="M248.804 338.867C249.116 342.406 249.324 346.048 249.637 349.587C229.342 351.148 208.943 353.126 188.752 355.519C188.336 351.981 187.919 348.338 187.503 344.8C207.798 342.406 228.301 340.428 248.804 338.867Z" fill="#461BC2"></path>
<path d="M251.198 370.299C251.51 373.837 251.718 377.48 252.031 381.019C232.152 382.58 212.273 384.453 192.395 386.847C191.978 383.308 191.562 379.666 191.146 376.127C211.129 373.837 231.111 371.86 251.198 370.299Z" fill="#461BC2"></path>
<path d="M528.874 366.135C416.263 352.709 302.507 352.709 189.897 366.135C189.792 365.199 189.688 364.262 189.584 363.325C302.403 349.795 416.367 349.795 529.186 363.325C529.082 364.158 528.978 365.199 528.874 366.135Z" fill="#461BC2"></path>
<path opacity="0.75" d="M467.258 381.122C396.903 375.71 326.235 375.606 255.879 380.81C255.567 377.271 255.359 373.629 255.047 370.09C325.923 364.886 397.111 364.99 467.987 370.402C467.883 373.941 467.571 377.584 467.258 381.122Z" fill="#461BC2"></path>
<path d="M214.563 336.786C205.3 337.723 196.037 338.763 186.879 339.804C186.358 335.641 185.838 331.478 185.422 327.315C194.684 326.17 204.051 325.129 213.418 324.297C213.626 328.46 214.043 332.623 214.563 336.786Z" fill="#461BC2"></path>
<path d="M246.202 333.976C236.939 334.705 227.676 335.537 218.413 336.37C217.997 332.207 217.581 328.044 217.164 323.881C226.531 322.944 235.794 322.111 245.161 321.383C245.577 325.65 245.889 329.813 246.202 333.976Z" fill="#461BC2"></path>
<path d="M277.946 331.894C268.683 332.414 259.421 333.039 250.158 333.767C249.846 329.604 249.533 325.441 249.221 321.174C258.588 320.446 267.955 319.821 277.218 319.301C277.53 323.464 277.738 327.627 277.946 331.894Z" fill="#461BC2"></path>
<path d="M309.687 330.437C300.424 330.749 291.162 331.166 281.899 331.686C281.691 327.523 281.483 323.36 281.274 319.093C290.641 318.572 300.008 318.156 309.375 317.844C309.479 322.007 309.583 326.274 309.687 330.437Z" fill="#461BC2"></path>
<path d="M341.536 329.708C332.273 329.813 323.01 330.021 313.748 330.333C313.644 326.17 313.435 321.903 313.331 317.74C322.698 317.427 332.065 317.219 341.432 317.115C341.432 321.278 341.432 325.441 341.536 329.708Z" fill="#E5F1F2"></path>
<path d="M373.279 329.605C364.016 329.501 354.753 329.501 345.49 329.605C345.49 325.442 345.386 321.175 345.386 317.012C354.753 316.908 364.12 316.908 373.487 317.012C373.383 321.279 373.383 325.442 373.279 329.605Z" fill="#461BC2"></path>
<path d="M405.127 330.333C395.864 330.021 386.601 329.813 377.339 329.708C377.339 325.545 377.443 321.278 377.443 317.115C386.809 317.219 396.176 317.427 405.543 317.74C405.335 321.903 405.231 326.066 405.127 330.333Z" fill="#E5F1F2"></path>
<path d="M436.87 331.582C427.607 331.062 418.344 330.646 409.081 330.333C409.185 326.17 409.394 321.903 409.498 317.74C418.864 318.052 428.231 318.469 437.598 318.989C437.39 323.256 437.078 327.419 436.87 331.582Z" fill="#461BC2"></path>
<path d="M468.614 333.664C459.352 332.935 450.089 332.311 440.826 331.791C441.034 327.627 441.346 323.464 441.554 319.197C450.921 319.718 460.288 320.342 469.551 321.071C469.239 325.338 468.927 329.501 468.614 333.664Z" fill="#E5F1F2"></path>
<path d="M500.357 336.369C491.094 335.433 481.831 334.704 472.569 333.976C472.881 329.812 473.193 325.649 473.505 321.486C482.872 322.215 492.135 323.047 501.502 323.984C501.19 328.043 500.773 332.206 500.357 336.369Z" fill="#E5F1F2"></path>
<path d="M531.996 339.804C522.733 338.659 513.574 337.723 504.311 336.786C504.728 332.623 505.144 328.46 505.56 324.297C514.927 325.234 524.19 326.274 533.557 327.315C533.036 331.478 532.516 335.641 531.996 339.804Z" fill="#461BC2"></path>
<path d="M582.992 226.777C582.888 226.777 582.784 226.777 582.784 226.777C435.62 205.65 286.374 205.546 139.106 226.361C138.169 226.465 137.233 225.841 137.128 224.8C137.024 223.863 137.649 222.927 138.69 222.719C286.27 201.799 435.828 202.007 583.408 223.135C584.345 223.239 585.073 224.176 584.969 225.216C584.657 226.153 583.929 226.777 582.992 226.777Z" fill="#461BC2"></path>
<path d="M181.777 356.353C177.198 356.977 172.514 357.498 167.935 358.122C167.414 354.583 166.998 351.045 166.478 347.402C171.161 346.778 175.74 346.153 180.424 345.633C180.84 349.275 181.257 352.814 181.777 356.353Z" fill="#461BC2"></path>
<path d="M179.696 339.804C175.013 340.429 170.329 340.949 165.646 341.574C165.125 338.035 164.709 334.497 164.189 330.854C168.872 330.229 173.555 329.605 178.343 328.98C178.759 332.727 179.28 336.266 179.696 339.804Z" fill="#461BC2"></path>
<path d="M183.754 372.068C179.175 372.588 174.595 373.212 170.016 373.837C169.496 370.298 169.079 366.76 168.559 363.117C173.138 362.493 177.718 361.868 182.401 361.348C182.817 364.886 183.234 368.529 183.754 372.068Z" fill="#461BC2"></path>
<path d="M185.627 387.784C181.152 388.305 176.573 388.929 172.097 389.554C171.577 386.015 171.161 382.476 170.64 378.834C175.22 378.209 179.695 377.585 184.274 377.064C184.795 380.603 185.211 384.142 185.627 387.784Z" fill="#461BC2"></path>
<path d="M247.251 313.353L246.525 313.408L252.547 392.069L253.273 392.014L247.251 313.353Z" fill="#461BC2"></path>
<path d="M298.03 219.492C312.913 218.867 325.298 229.171 325.506 242.18C325.715 255.19 314.266 265.91 299.904 266.534" fill="#461BC2"></path>
<path d="M407.727 246.968C382.853 246.135 357.874 246.031 333 246.447C333 244.47 332.896 242.492 332.896 240.515C357.874 240.099 382.957 240.307 407.935 241.035C407.831 243.013 407.831 244.99 407.727 246.968Z" fill="#9F8AFF"></path>
<path d="M387.953 259.249C363.287 258.833 338.517 258.937 313.747 259.665C313.643 257.688 313.643 255.71 313.539 253.733C338.309 253.005 363.183 252.9 387.953 253.317C387.953 255.294 387.953 257.272 387.953 259.249Z" fill="#9F8AFF"></path>
<path d="M435.517 292.137C384.832 289.535 333.938 289.535 283.253 292.137C283.253 292.97 283.357 293.698 283.357 294.531C334.042 291.929 384.727 291.929 435.413 294.531C435.413 293.698 435.517 292.97 435.517 292.137Z" fill="#9F8AFF"></path>
<path d="M420.842 216.161C379.731 214.6 338.621 214.6 297.615 216.161C297.615 216.994 297.719 217.722 297.719 218.555C338.725 216.89 379.835 216.89 420.842 218.555C420.842 217.722 420.842 216.89 420.842 216.161Z" fill="#9F8AFF"></path>
<path d="M418.968 282.562C418.76 282.562 418.447 282.562 418.239 282.562C408.768 282.146 401.171 274.756 401.483 265.91C401.587 261.851 403.356 258 406.479 255.19C409.913 251.964 414.701 250.299 419.592 250.507C424.484 250.715 429.167 252.796 432.29 256.231C435.1 259.353 436.557 263.308 436.349 267.367C435.828 275.901 428.231 282.562 418.968 282.562ZM418.76 258.312C416.158 258.312 413.556 259.249 411.786 260.914C410.225 262.371 409.393 264.141 409.289 266.118C409.185 270.593 413.244 274.444 418.447 274.652C423.651 274.861 428.022 271.322 428.335 266.847C428.439 264.973 427.71 262.996 426.253 261.435C424.484 259.561 421.882 258.416 419.072 258.208C419.072 258.312 418.968 258.312 418.76 258.312Z" fill="#9F8AFF"></path>
<path d="M336.435 292.762C331.023 292.866 325.611 292.97 320.199 293.074C320.095 289.848 319.991 286.622 319.991 283.395C325.403 283.291 330.919 283.187 336.331 283.083C336.331 286.309 336.435 289.536 336.435 292.762Z" fill="#E5F1F2"></path>
<path d="M357.146 292.554C351.734 292.554 346.322 292.554 340.91 292.658C340.91 289.432 340.806 286.205 340.806 282.979C346.322 282.875 351.734 282.875 357.25 282.875C357.146 286.101 357.146 289.328 357.146 292.554Z" fill="#E5F1F2"></path>
<path d="M377.961 292.658C372.549 292.554 367.137 292.554 361.725 292.554C361.725 289.328 361.725 286.101 361.725 282.875C367.241 282.875 372.653 282.875 378.169 282.979C377.961 286.205 377.961 289.432 377.961 292.658Z" fill="#E5F1F2"></path>
<path d="M398.672 293.074C393.26 292.97 387.848 292.866 382.436 292.762C382.436 289.536 382.54 286.309 382.54 283.083C388.056 283.187 393.468 283.291 398.88 283.395C398.776 286.622 398.776 289.848 398.672 293.074Z" fill="#E5F1F2"></path>
<path d="M466.323 511.115C392.324 511.115 326.444 511.115 252.55 511.115C250.781 511.115 249.219 509.553 249.219 506.743C249.219 504.662 250.052 502.789 251.301 502.372C286.895 489.05 431.874 489.05 467.468 502.372C468.717 502.789 469.549 504.662 469.549 506.743C469.549 509.553 467.988 511.115 466.323 511.115Z" fill="#9F8AFF"></path>
<path d="M579.454 555.763H130.468C128.075 555.763 125.889 557.428 124.64 555.451L121.622 550.768H585.803C588.093 555.451 584.762 555.867 579.454 555.763Z" fill="#461BC2"></path>
<path d="M585.698 550.768H121.517L181.049 523.499C184.067 522.147 187.294 521.418 190.52 521.418H519.193C522.628 521.418 525.958 522.147 528.976 523.604L585.698 550.768Z" fill="#9F8AFF"></path>
<path d="M581.535 536.717C581.535 536.717 586.115 529.535 610.261 527.558C630.764 525.893 648.353 529.119 661.883 538.902C668.231 543.586 669.168 560.03 661.05 559.509C661.05 559.509 604.745 557.428 595.794 555.659C589.966 554.514 586.739 545.667 582.576 542.545C581.223 541.608 580.703 539.527 581.535 536.717Z" fill="#461BC2"></path>
<path d="M581.536 536.717C581.536 536.717 586.844 524.436 610.261 521.626C629.932 519.232 648.353 529.12 661.883 538.903C668.232 543.586 666.567 551.496 658.865 551.288C658.865 551.288 602.456 550.767 596.315 548.894C590.799 547.229 590.903 535.468 581.536 536.717Z" fill="#9F8AFF"></path>
<path d="M351.735 70.7671H21.1883C20.5639 70.7671 20.1476 70.3508 20.1476 69.7263C20.1476 69.1019 20.5639 68.6855 21.1883 68.6855H351.735C352.36 68.6855 352.776 69.1019 352.776 69.7263C352.776 70.3508 352.36 70.7671 351.735 70.7671Z" fill="#9F8AFF"></path>
<path d="M518.88 129.57H112.461C111.837 129.57 111.421 129.154 111.421 128.529C111.421 127.905 111.837 127.488 112.461 127.488H518.88C519.504 127.488 519.921 127.905 519.921 128.529C519.921 129.154 519.504 129.57 518.88 129.57Z" fill="#9F8AFF"></path>
<path d="M122.766 116.665H29.097C27.0154 116.665 25.3502 114.999 25.3502 112.918V85.3376C25.3502 83.256 27.0154 81.5908 29.097 81.5908H122.766C124.847 81.5908 126.513 83.256 126.513 85.3376V112.918C126.617 114.999 124.951 116.665 122.766 116.665Z" fill="#9F8AFF"></path>
<path d="M237.77 116.665H144.101C142.02 116.665 140.354 114.999 140.354 112.918V85.3376C140.354 83.256 142.02 81.5908 144.101 81.5908H237.77C239.852 81.5908 241.517 83.256 241.517 85.3376V112.918C241.517 114.999 239.852 116.665 237.77 116.665Z" fill="#9F8AFF"></path>
<path d="M352.672 116.665H259.003C256.921 116.665 255.256 114.999 255.256 112.918V85.3376C255.256 83.256 256.921 81.5908 259.003 81.5908H352.672C354.753 81.5908 356.418 83.256 356.418 85.3376V112.918C356.418 114.999 354.753 116.665 352.672 116.665Z" fill="#9F8AFF"></path>
<path d="M467.573 116.665H373.904C371.823 116.665 370.157 114.999 370.157 112.918V85.3376C370.157 83.256 371.823 81.5908 373.904 81.5908H467.573C469.655 81.5908 471.32 83.256 471.32 85.3376V112.918C471.32 114.999 469.655 116.665 467.573 116.665Z" fill="#9F8AFF"></path>
<path d="M687.589 362.493C686.548 362.493 685.819 361.66 685.819 360.723V309.101C685.819 308.061 686.652 307.332 687.589 307.332C688.525 307.332 689.358 308.165 689.358 309.101V360.723C689.358 361.66 688.629 362.493 687.589 362.493Z" fill="#461BC2"></path>
<path d="M113.505 118.538H52.4124C51.3716 118.538 50.6431 117.705 50.6431 116.768C50.6431 115.832 51.4757 114.999 52.4124 114.999H113.505C114.546 114.999 115.275 115.832 115.275 116.768C115.275 117.705 114.546 118.538 113.505 118.538Z" fill="#461BC2"></path>
<path d="M701.744 321.487C704.503 321.487 706.739 319.251 706.739 316.492C706.739 313.733 704.503 311.496 701.744 311.496C698.985 311.496 696.748 313.733 696.748 316.492C696.748 319.251 698.985 321.487 701.744 321.487Z" fill="#461BC2"></path>
<path d="M701.744 343.552C704.503 343.552 706.739 341.315 706.739 338.556C706.739 335.797 704.503 333.561 701.744 333.561C698.985 333.561 696.748 335.797 696.748 338.556C696.748 341.315 698.985 343.552 701.744 343.552Z" fill="#461BC2"></path>
<path d="M701.744 365.72C704.503 365.72 706.739 363.483 706.739 360.724C706.739 357.965 704.503 355.729 701.744 355.729C698.985 355.729 696.748 357.965 696.748 360.724C696.748 363.483 698.985 365.72 701.744 365.72Z" fill="#461BC2"></path>
<path d="M701.744 387.784C704.503 387.784 706.739 385.548 706.739 382.789C706.739 380.03 704.503 377.793 701.744 377.793C698.985 377.793 696.748 380.03 696.748 382.789C696.748 385.548 698.985 387.784 701.744 387.784Z" fill="#461BC2"></path>
<path d="M701.744 409.95C704.503 409.95 706.739 407.714 706.739 404.955C706.739 402.196 704.503 399.959 701.744 399.959C698.985 399.959 696.748 402.196 696.748 404.955C696.748 407.714 698.985 409.95 701.744 409.95Z" fill="#461BC2"></path>
<path d="M785.733 320.759H716.21C715.273 320.759 714.441 319.926 714.441 318.99V314.722C714.441 313.786 715.273 312.953 716.21 312.953H785.733C786.67 312.953 787.503 313.786 787.503 314.722V318.99C787.398 320.03 786.67 320.759 785.733 320.759Z" fill="#9F8AFF"></path>
<path d="M785.733 342.823H716.21C715.273 342.823 714.441 341.991 714.441 341.054V336.787C714.441 335.85 715.273 335.018 716.21 335.018H785.733C786.67 335.018 787.503 335.85 787.503 336.787V341.054C787.398 342.095 786.67 342.823 785.733 342.823Z" fill="#9F8AFF"></path>
<path d="M785.733 364.888H716.21C715.273 364.888 714.441 364.055 714.441 363.118V358.851C714.441 357.915 715.273 357.082 716.21 357.082H785.733C786.67 357.082 787.503 357.915 787.503 358.851V363.118C787.398 364.159 786.67 364.888 785.733 364.888Z" fill="#9F8AFF"></path>
<path d="M785.733 387.056H716.21C715.273 387.056 714.441 386.223 714.441 385.286V381.019C714.441 380.083 715.273 379.25 716.21 379.25H785.733C786.67 379.25 787.503 380.083 787.503 381.019V385.286C787.398 386.223 786.67 387.056 785.733 387.056Z" fill="#9F8AFF"></path>
<path d="M785.733 409.12H716.21C715.273 409.12 714.441 408.288 714.441 407.351V403.084C714.441 402.147 715.273 401.314 716.21 401.314H785.733C786.67 401.314 787.503 402.147 787.503 403.084V407.351C787.398 408.288 786.67 409.12 785.733 409.12Z" fill="#9F8AFF"></path>
<path d="M41.0658 122.492H33.8845C32.1152 122.492 30.7622 121.035 30.7622 119.37V112.189C30.7622 110.419 32.2193 109.066 33.8845 109.066H41.0658C42.8351 109.066 44.1881 110.523 44.1881 112.189V119.37C44.1881 121.035 42.8351 122.492 41.0658 122.492Z" fill="#461BC2"></path>
<path d="M229.757 118.538H168.664C167.623 118.538 166.895 117.705 166.895 116.768C166.895 115.832 167.727 114.999 168.664 114.999H229.757C230.798 114.999 231.526 115.832 231.526 116.768C231.526 117.705 230.798 118.538 229.757 118.538Z" fill="#461BC2"></path>
<path d="M157.216 122.492H150.035C148.266 122.492 146.913 121.035 146.913 119.37V112.189C146.913 110.419 148.37 109.066 150.035 109.066H157.216C158.986 109.066 160.339 110.523 160.339 112.189V119.37C160.443 121.035 158.986 122.492 157.216 122.492Z" fill="#461BC2"></path>
<path d="M346.01 118.538H284.918C283.877 118.538 283.148 117.705 283.148 116.768C283.148 115.832 283.981 114.999 284.918 114.999H346.01C347.051 114.999 347.78 115.832 347.78 116.768C347.78 117.705 346.947 118.538 346.01 118.538Z" fill="#461BC2"></path>
<path d="M273.47 122.492H266.289C264.519 122.492 263.166 121.035 263.166 119.37V112.189C263.166 110.419 264.623 109.066 266.289 109.066H273.47C275.239 109.066 276.592 110.523 276.592 112.189V119.37C276.592 121.035 275.239 122.492 273.47 122.492Z" fill="#461BC2"></path>
<path d="M462.161 118.538H401.068C400.027 118.538 399.299 117.705 399.299 116.768C399.299 115.832 400.131 114.999 401.068 114.999H462.161C463.202 114.999 463.93 115.832 463.93 116.768C463.93 117.705 463.202 118.538 462.161 118.538Z" fill="#461BC2"></path>
<path d="M389.617 122.492H382.54C380.771 122.492 379.418 121.035 379.418 119.37V112.189C379.418 110.419 380.875 109.066 382.54 109.066H389.722C391.491 109.066 392.844 110.523 392.844 112.189V119.37C392.844 121.035 391.387 122.492 389.617 122.492Z" fill="#461BC2"></path>
<path opacity="0.23" d="M126.618 370.194C136.677 370.194 144.831 362.04 144.831 351.981C144.831 341.922 136.677 333.768 126.618 333.768C116.559 333.768 108.404 341.922 108.404 351.981C108.404 362.04 116.559 370.194 126.618 370.194Z" fill="#9F8AFF"></path>
<path d="M619.316 512.155C618.691 512.155 618.275 511.739 618.275 511.114V496.96C618.275 488.426 611.302 481.453 602.768 481.453H455.187C454.563 481.453 454.146 481.036 454.146 480.412C454.146 479.787 454.563 479.371 455.187 479.371H602.768C612.447 479.371 620.357 487.281 620.357 496.96V511.114C620.357 511.635 619.94 512.155 619.316 512.155Z" fill="#461BC2"></path>
<path d="M274.093 481.453H269.93C269.305 481.453 268.889 481.036 268.889 480.412C268.889 479.787 269.305 479.371 269.93 479.371H274.093C274.717 479.371 275.133 479.787 275.133 480.412C275.133 481.036 274.613 481.453 274.093 481.453Z" fill="#461BC2"></path>
<path d="M442.592 481.453H434.162C433.538 481.453 433.121 481.036 433.121 480.412C433.121 479.787 433.538 479.371 434.162 479.371H442.592C443.217 479.371 443.633 479.787 443.633 480.412C443.633 481.036 443.217 481.453 442.592 481.453ZM425.732 481.453H417.302C416.677 481.453 416.261 481.036 416.261 480.412C416.261 479.787 416.677 479.371 417.302 479.371H425.732C426.356 479.371 426.773 479.787 426.773 480.412C426.773 481.036 426.356 481.453 425.732 481.453ZM408.871 481.453H400.441C399.817 481.453 399.401 481.036 399.401 480.412C399.401 479.787 399.817 479.371 400.441 479.371H408.871C409.496 479.371 409.912 479.787 409.912 480.412C409.912 481.036 409.496 481.453 408.871 481.453ZM392.011 481.453H383.581C382.956 481.453 382.54 481.036 382.54 480.412C382.54 479.787 382.956 479.371 383.581 479.371H392.011C392.636 479.371 393.052 479.787 393.052 480.412C393.052 481.036 392.636 481.453 392.011 481.453ZM375.151 481.453H366.721C366.096 481.453 365.68 481.036 365.68 480.412C365.68 479.787 366.096 479.371 366.721 479.371H375.151C375.775 479.371 376.191 479.787 376.191 480.412C376.191 481.036 375.775 481.453 375.151 481.453ZM358.29 481.453H349.86C349.236 481.453 348.819 481.036 348.819 480.412C348.819 479.787 349.236 479.371 349.86 479.371H358.29C358.915 479.371 359.331 479.787 359.331 480.412C359.331 481.036 358.915 481.453 358.29 481.453ZM341.534 481.453H333.104C332.479 481.453 332.063 481.036 332.063 480.412C332.063 479.787 332.479 479.371 333.104 479.371H341.534C342.159 479.371 342.575 479.787 342.575 480.412C342.575 481.036 342.054 481.453 341.534 481.453ZM324.674 481.453H316.243C315.619 481.453 315.203 481.036 315.203 480.412C315.203 479.787 315.619 479.371 316.243 479.371H324.674C325.298 479.371 325.714 479.787 325.714 480.412C325.714 481.036 325.194 481.453 324.674 481.453ZM307.813 481.453H299.383C298.759 481.453 298.342 481.036 298.342 480.412C298.342 479.787 298.759 479.371 299.383 479.371H307.813C308.438 479.371 308.854 479.787 308.854 480.412C308.854 481.036 308.334 481.453 307.813 481.453ZM290.953 481.453H282.523C281.898 481.453 281.482 481.036 281.482 480.412C281.482 479.787 281.898 479.371 282.523 479.371H290.953C291.577 479.371 291.994 479.787 291.994 480.412C291.994 481.036 291.473 481.453 290.953 481.453Z" fill="#461BC2"></path>
<path d="M455.187 481.453H451.024C450.4 481.453 449.984 481.036 449.984 480.412C449.984 479.787 450.4 479.371 451.024 479.371H455.187C455.812 479.371 456.228 479.787 456.228 480.412C456.228 481.036 455.812 481.453 455.187 481.453Z" fill="#461BC2"></path>
<path opacity="0.37" d="M418.24 106.465C425.137 106.465 430.729 100.873 430.729 93.9755C430.729 87.0779 425.137 81.4863 418.24 81.4863C411.342 81.4863 405.751 87.0779 405.751 93.9755C405.751 100.873 411.342 106.465 418.24 106.465Z" fill="white"></path>
<path d="M269.931 481.453H143.166C133.487 481.453 125.577 473.543 125.577 463.864V376.336C125.577 375.711 125.993 375.295 126.618 375.295C127.242 375.295 127.659 375.711 127.659 376.336V463.864C127.659 472.398 134.632 479.371 143.166 479.371H269.931C270.556 479.371 270.972 479.788 270.972 480.412C270.972 481.037 270.452 481.453 269.931 481.453Z" fill="#461BC2"></path>
<path d="M126.616 378.105C112.15 378.105 100.389 366.344 100.389 351.878C100.389 337.411 112.15 325.65 126.616 325.65C141.083 325.65 152.844 337.411 152.844 351.878C152.844 366.344 141.083 378.105 126.616 378.105ZM126.616 329.293C114.127 329.293 104.032 339.388 104.032 351.878C104.032 364.367 114.127 374.462 126.616 374.462C139.105 374.462 149.201 364.367 149.201 351.878C149.201 339.388 139.105 329.293 126.616 329.293Z" fill="#461BC2"></path>
<path d="M619.315 514.445C622.822 514.445 625.664 511.603 625.664 508.097C625.664 504.59 622.822 501.748 619.315 501.748C615.809 501.748 612.967 504.59 612.967 508.097C612.967 511.603 615.809 514.445 619.315 514.445Z" fill="#461BC2"></path>
<path opacity="0.37" d="M418.241 100.324C421.747 100.324 424.589 97.4819 424.589 93.9756C424.589 90.4693 421.747 87.627 418.241 87.627C414.734 87.627 411.892 90.4693 411.892 93.9756C411.892 97.4819 414.734 100.324 418.241 100.324Z" fill="white"></path>
<path d="M496.4 42.562H492.237C491.613 42.562 491.196 42.1457 491.196 41.5212C491.196 40.8968 491.613 40.4805 492.237 40.4805H496.4C497.025 40.4805 497.441 40.8968 497.441 41.5212C497.441 42.1457 496.921 42.562 496.4 42.562Z" fill="#461BC2"></path>
<path d="M608.908 53.1778C608.284 53.1778 607.867 52.7615 607.867 52.137V45.5802C607.867 45.0598 607.763 44.5394 607.451 44.0191C607.139 43.4987 607.347 42.8742 607.867 42.562C608.388 42.2498 609.012 42.4579 609.324 42.9783C609.741 43.7068 609.949 44.6435 609.949 45.5802V52.137C609.949 52.7615 609.533 53.1778 608.908 53.1778ZM600.478 42.562H591.839C591.215 42.562 590.799 42.1457 590.799 41.5212C590.799 40.8968 591.215 40.4805 591.839 40.4805H600.478C601.102 40.4805 601.519 40.8968 601.519 41.5212C601.519 42.1457 601.102 42.562 600.478 42.562ZM583.097 42.562H574.459C573.834 42.562 573.418 42.1457 573.418 41.5212C573.418 40.8968 573.834 40.4805 574.459 40.4805H583.097C583.722 40.4805 584.138 40.8968 584.138 41.5212C584.138 42.1457 583.722 42.562 583.097 42.562ZM565.82 42.562H557.182C556.558 42.562 556.141 42.1457 556.141 41.5212C556.141 40.8968 556.558 40.4805 557.182 40.4805H565.82C566.445 40.4805 566.861 40.8968 566.861 41.5212C566.861 42.1457 566.341 42.562 565.82 42.562ZM548.44 42.562H539.801C539.177 42.562 538.761 42.1457 538.761 41.5212C538.761 40.8968 539.177 40.4805 539.801 40.4805H548.44C549.064 40.4805 549.48 40.8968 549.48 41.5212C549.48 42.1457 548.96 42.562 548.44 42.562ZM531.059 42.562H522.421C521.796 42.562 521.38 42.1457 521.38 41.5212C521.38 40.8968 521.796 40.4805 522.421 40.4805H531.059C531.683 40.4805 532.1 40.8968 532.1 41.5212C532.1 42.1457 531.683 42.562 531.059 42.562ZM513.678 42.562H505.04C504.415 42.562 503.999 42.1457 503.999 41.5212C503.999 40.8968 504.415 40.4805 505.04 40.4805H513.678C514.303 40.4805 514.719 40.8968 514.719 41.5212C514.719 42.1457 514.303 42.562 513.678 42.562Z" fill="#461BC2"></path>
<path d="M608.906 66.0835C608.281 66.0835 607.865 65.6671 607.865 65.0427V60.8796C607.865 60.2552 608.281 59.8389 608.906 59.8389C609.53 59.8389 609.947 60.2552 609.947 60.8796V65.0427C609.947 65.5631 609.53 66.0835 608.906 66.0835Z" fill="#461BC2"></path>
<path d="M418.863 92.7268C418.238 92.7268 417.822 92.3105 417.822 91.6861V45.6843C417.822 42.7702 420.112 40.4805 423.026 40.4805H492.133C492.757 40.4805 493.173 40.8968 493.173 41.5212C493.173 42.1457 492.757 42.562 492.133 42.562H423.026C421.257 42.562 419.904 43.915 419.904 45.6843V91.7901C419.904 92.3105 419.487 92.7268 418.863 92.7268Z" fill="#461BC2"></path>
<path opacity="0.82" d="M126.616 364.054C133.284 364.054 138.689 358.649 138.689 351.981C138.689 345.313 133.284 339.908 126.616 339.908C119.949 339.908 114.544 345.313 114.544 351.981C114.544 358.649 119.949 364.054 126.616 364.054Z" fill="#9F8AFF"></path>
<path opacity="0.23" d="M757.841 79.7177V270.386C757.841 278.504 751.285 285.061 743.167 285.061H466.74C458.622 285.061 452.065 278.504 452.065 270.386V79.7177C452.065 71.5998 458.622 65.043 466.74 65.043H743.167C751.285 65.043 757.841 71.5998 757.841 79.7177Z" fill="#461BC2"></path>
<path opacity="0.23" d="M733.695 277.462H476.314C468.82 277.462 462.68 271.322 462.68 263.828V86.2737C462.68 78.7802 468.82 72.6396 476.314 72.6396H733.695C741.188 72.6396 747.329 78.7802 747.329 86.2737V263.828C747.329 271.322 741.188 277.462 733.695 277.462Z" fill="#461BC2"></path>
<path d="M712.151 269.24H497.753C494.631 269.24 492.133 266.742 492.133 263.62C492.133 260.498 494.631 258 497.753 258H712.151C715.273 258 717.771 260.498 717.771 263.62C717.771 266.742 715.273 269.24 712.151 269.24Z" fill="#461BC2"></path>
<path d="M594.545 269.24H497.753C494.631 269.24 492.133 266.742 492.133 263.62C492.133 260.498 494.631 258 497.753 258H594.545C597.667 258 600.165 260.498 600.165 263.62C600.165 266.742 597.667 269.24 594.545 269.24Z" fill="#461BC2"></path>
<path d="M610.781 269.24H576.228C573.105 269.24 570.607 266.742 570.607 263.62C570.607 260.498 573.105 258 576.228 258H610.781C613.903 258 616.401 260.498 616.401 263.62C616.401 266.742 613.903 269.24 610.781 269.24Z" fill="#9F8AFF"></path>
<path d="M714.442 91.6865H495.673V250.611H714.442V91.6865Z" fill="#4FB8FF"></path>
<path opacity="0.5" d="M615.15 109.066C643.459 109.066 666.46 132.067 666.46 160.376C666.46 188.685 643.459 211.686 615.15 211.686" fill="#461BC2"></path>
<path opacity="0.5" d="M615.15 109.066C586.842 109.066 563.841 132.067 563.841 160.376C563.841 188.685 586.842 211.686 615.15 211.686" fill="#461BC2"></path>
<path d="M623.684 98.6592C650.224 98.6592 671.767 120.203 671.767 146.742C671.767 173.282 650.224 194.826 623.684 194.826" fill="#461BC2"></path>
<path d="M623.686 98.6592C597.146 98.6592 575.603 120.203 575.603 146.742C575.603 173.282 597.146 194.826 623.686 194.826" fill="#461BC2"></path>
<path opacity="0.5" d="M616.401 148.616H495.464V160.793H616.401V148.616Z" fill="#461BC2"></path>
<path opacity="0.5" d="M562.073 168.703H495.464V180.88H562.073V168.703Z" fill="#461BC2"></path>
<path d="M631.284 143.62H495.464V155.797H631.284V143.62Z" fill="#9F8AFF"></path>
<path d="M570.191 163.707H495.464V175.884H570.191V163.707Z" fill="#9F8AFF"></path>
<path d="M563.427 205.441H495.673V210.957H563.427V205.441Z" fill="#9F8AFF"></path>
<path d="M563.53 215.433H495.776V220.949H563.53V215.433Z" fill="#9F8AFF"></path>
<path d="M714.442 91.6865H495.673V96.5781H714.442V91.6865Z" fill="#461BC2"></path>
<path opacity="0.3" d="M757.841 177.757V194.618H680.409C676.037 194.618 672.499 191.079 672.499 186.708V185.563C672.499 181.192 676.037 177.653 680.409 177.653H757.841V177.757Z" fill="#461BC2"></path>
<path opacity="0.3" d="M757.841 202.215V220.949H725.057C724.121 220.949 723.288 220.116 723.288 219.179H680.409C676.037 219.179 672.499 215.641 672.499 211.269V210.125C672.499 205.753 676.037 202.215 680.409 202.215H757.841Z" fill="#461BC2"></path>
<path d="M769.498 185.771H691.857C687.486 185.771 683.948 182.232 683.948 177.861V176.716C683.948 172.345 687.486 168.807 691.857 168.807H769.498C773.87 168.807 777.408 172.345 777.408 176.716V177.861C777.408 182.232 773.87 185.771 769.498 185.771Z" fill="#9F8AFF"></path>
<path d="M769.498 210.229H691.857C687.486 210.229 683.948 206.691 683.948 202.319V201.174C683.948 196.803 687.486 193.265 691.857 193.265H769.498C773.87 193.265 777.408 196.803 777.408 201.174V202.319C777.408 206.691 773.87 210.229 769.498 210.229Z" fill="#9F8AFF"></path>
<path d="M788.231 211.999H736.609C735.568 211.999 734.84 211.166 734.84 210.229C734.84 209.293 735.672 208.46 736.609 208.46H788.231C789.272 208.46 790 209.293 790 210.229C790 211.166 789.168 211.999 788.231 211.999Z" fill="#4FB8FF"></path>
<path opacity="0.4" d="M624.102 246.656C611.092 246.656 600.476 236.04 600.476 223.031C600.476 210.021 611.092 199.405 624.102 199.405C637.111 199.405 647.727 210.021 647.727 223.031C647.727 236.04 637.111 246.656 624.102 246.656ZM624.102 211.062C617.545 211.062 612.133 216.474 612.133 223.031C612.133 229.587 617.545 234.999 624.102 234.999C630.658 234.999 636.07 229.587 636.07 223.031C636.174 216.474 630.763 211.062 624.102 211.062Z" fill="#461BC2"></path>
<path d="M608.906 134.774C612.413 134.774 615.255 131.931 615.255 128.425C615.255 124.919 612.413 122.076 608.906 122.076C605.4 122.076 602.558 124.919 602.558 128.425C602.558 131.931 605.4 134.774 608.906 134.774Z" fill="#461BC2"></path>
<path d="M608.906 126.864C608.281 126.864 607.865 126.448 607.865 125.823V65.0427C607.865 64.4183 608.281 64.002 608.906 64.002C609.53 64.002 609.947 64.4183 609.947 65.0427V125.823C609.947 126.448 609.53 126.864 608.906 126.864Z" fill="#461BC2"></path>
<path d="M641.067 236.665C628.058 236.665 617.442 226.049 617.442 213.039C617.442 200.03 628.058 189.414 641.067 189.414C654.077 189.414 664.692 200.03 664.692 213.039C664.588 226.153 654.077 236.665 641.067 236.665ZM641.067 201.175C634.51 201.175 629.098 206.587 629.098 213.143C629.098 219.7 634.51 225.112 641.067 225.112C647.624 225.112 653.036 219.7 653.036 213.143C653.036 206.483 647.624 201.175 641.067 201.175Z" fill="#9F8AFF"></path>
<path d="M170.433 469.796H150.242C146.287 469.796 143.06 466.57 143.06 462.615C143.06 458.66 146.287 455.434 150.242 455.434H170.433C174.387 455.434 177.614 458.66 177.614 462.615C177.614 466.57 174.387 469.796 170.433 469.796ZM150.242 457.515C147.432 457.515 145.142 459.805 145.142 462.615C145.142 465.425 147.432 467.715 150.242 467.715H170.433C173.243 467.715 175.532 465.425 175.532 462.615C175.532 459.805 173.243 457.515 170.433 457.515H150.242Z" fill="#4FB8FF"></path>
<path d="M208.317 469.796H188.126C184.171 469.796 180.945 466.57 180.945 462.615C180.945 458.66 184.171 455.434 188.126 455.434H208.317C212.272 455.434 215.498 458.66 215.498 462.615C215.498 466.57 212.272 469.796 208.317 469.796ZM188.126 457.515C185.316 457.515 183.026 459.805 183.026 462.615C183.026 465.425 185.316 467.715 188.126 467.715H208.317C211.127 467.715 213.416 465.425 213.416 462.615C213.416 459.805 211.127 457.515 208.317 457.515H188.126Z" fill="#4FB8FF"></path>
<path d="M665.63 515.277H645.439C641.484 515.277 638.258 512.05 638.258 508.095C638.258 504.14 641.484 500.914 645.439 500.914H665.63C669.585 500.914 672.811 504.14 672.811 508.095C672.811 512.05 669.585 515.277 665.63 515.277ZM645.439 502.892C642.629 502.892 640.339 505.181 640.339 507.991C640.339 510.801 642.629 513.091 645.439 513.091H665.63C668.44 513.091 670.729 510.801 670.729 507.991C670.729 505.181 668.44 502.892 665.63 502.892H645.439Z" fill="#4FB8FF"></path>
<path d="M703.617 515.277H683.426C679.471 515.277 676.245 512.05 676.245 508.095C676.245 504.14 679.471 500.914 683.426 500.914H703.617C707.572 500.914 710.798 504.14 710.798 508.095C710.798 512.05 707.572 515.277 703.617 515.277ZM683.426 502.892C680.616 502.892 678.326 505.181 678.326 507.991C678.326 510.801 680.616 513.091 683.426 513.091H703.617C706.427 513.091 708.716 510.801 708.716 507.991C708.716 505.181 706.427 502.892 703.617 502.892H683.426Z" fill="#4FB8FF"></path>
<path d="M49.4964 61.1916H29.3055C25.3506 61.1916 22.1243 57.9653 22.1243 54.0104C22.1243 50.0555 25.3506 46.8291 29.3055 46.8291H49.4964C53.4513 46.8291 56.6776 50.0555 56.6776 54.0104C56.6776 57.9653 53.4513 61.1916 49.4964 61.1916ZM29.3055 48.9106C26.4955 48.9106 24.2058 51.2003 24.2058 54.0104C24.2058 56.8204 26.4955 59.1101 29.3055 59.1101H49.4964C52.3064 59.1101 54.5961 56.8204 54.5961 54.0104C54.5961 51.2003 52.3064 48.9106 49.4964 48.9106H29.3055Z" fill="#4FB8FF"></path>
<path d="M87.3805 61.1916H67.1897C63.2348 61.1916 60.0084 57.9653 60.0084 54.0104C60.0084 50.0555 63.2348 46.8291 67.1897 46.8291H87.3805C91.3354 46.8291 94.5618 50.0555 94.5618 54.0104C94.5618 57.9653 91.4395 61.1916 87.3805 61.1916ZM67.1897 48.9106C64.3796 48.9106 62.09 51.2003 62.09 54.0104C62.09 56.8204 64.3796 59.1101 67.1897 59.1101H87.3805C90.1906 59.1101 92.4803 56.8204 92.4803 54.0104C92.4803 51.2003 90.1906 48.9106 87.3805 48.9106H67.1897Z" fill="#4FB8FF"></path>
<path d="M318.742 171.097H286.79C283.564 171.097 280.962 168.495 280.962 165.268V158.816C280.962 155.589 283.564 152.987 286.79 152.987H318.742C321.968 152.987 324.57 155.589 324.57 158.816V165.268C324.57 168.495 321.968 171.097 318.742 171.097ZM286.894 155.589C285.125 155.589 283.668 157.046 283.668 158.816V165.268C283.668 167.038 285.125 168.495 286.894 168.495H318.846C320.615 168.495 322.072 167.038 322.072 165.268V158.816C322.072 157.046 320.615 155.589 318.846 155.589H286.894Z" fill="#4FB8FF"></path>
<path d="M370.261 171.097H338.309C335.083 171.097 332.481 168.495 332.481 165.268V158.816C332.481 155.589 335.083 152.987 338.309 152.987H370.261C373.487 152.987 376.089 155.589 376.089 158.816V165.268C376.089 168.495 373.487 171.097 370.261 171.097ZM338.309 155.589C336.54 155.589 335.083 157.046 335.083 158.816V165.268C335.083 167.038 336.54 168.495 338.309 168.495H370.261C372.03 168.495 373.487 167.038 373.487 165.268V158.816C373.487 157.046 372.03 155.589 370.261 155.589H338.309Z" fill="#4FB8FF"></path>
<path d="M421.778 171.097H389.826C386.6 171.097 383.998 168.495 383.998 165.268V158.816C383.998 155.589 386.6 152.987 389.826 152.987H421.778C425.004 152.987 427.606 155.589 427.606 158.816V165.268C427.606 168.495 425.004 171.097 421.778 171.097ZM389.826 155.589C388.057 155.589 386.6 157.046 386.6 158.816V165.268C386.6 167.038 388.057 168.495 389.826 168.495H421.778C423.547 168.495 425.004 167.038 425.004 165.268V158.816C425.004 157.046 423.547 155.589 421.778 155.589H389.826Z" fill="#4FB8FF"></path>
<path opacity="0.2" d="M77.9087 286.518C77.1802 283.187 73.9538 281.002 70.6234 281.73C55.5323 282.146 32.7396 286.518 19.4178 292.242C16.0873 292.97 13.9017 296.197 14.6303 299.527L16.3996 308.166C17.1281 311.496 20.3545 313.682 23.6849 312.953C37.9434 307.437 60.7361 302.754 74.8905 302.441C78.221 301.713 80.4066 298.486 79.678 295.156L77.9087 286.518Z" fill="#461BC2"></path>
<path opacity="0.2" d="M84.2582 296.092L81.9685 284.956C81.0318 280.273 76.3484 277.255 71.8731 278.295C51.8904 278.816 33.3648 282.667 16.8166 289.848C14.631 290.368 12.6536 291.617 11.4047 293.595C10.1557 295.572 9.73944 297.862 10.1557 300.151L12.4454 311.288C13.278 315.347 16.9207 318.261 21.0838 318.157C21.6042 318.157 22.2286 318.053 22.749 317.948C41.1705 310.767 59.5921 306.916 77.4932 306.5C82.2807 305.355 85.2989 300.776 84.2582 296.092ZM77.3891 304.939C59.3839 305.459 40.8583 309.31 22.3327 316.491C18.3778 317.324 14.631 314.826 13.7984 310.871L11.5087 299.735C11.0924 297.862 11.5087 295.884 12.5495 294.323C13.5903 292.658 15.2555 291.617 17.1289 291.201H17.2329C33.677 284.124 51.9945 280.273 71.9772 279.752C72.3935 279.648 72.9138 279.648 73.3302 279.648C76.7647 279.544 79.7829 281.938 80.5114 285.373L82.8011 296.509C83.7378 300.255 81.24 304.106 77.3891 304.939Z" fill="#461BC2"></path>
<path d="M25.8712 279.96C39.2971 274.444 62.1939 270.489 77.285 270.281C80.6154 269.657 83.8418 271.842 84.5704 275.173L86.2356 283.811C86.86 287.142 84.6744 290.368 81.344 291.097C67.1896 291.201 44.2928 295.468 29.9302 300.776C26.5998 301.4 23.3734 299.215 22.6449 295.884L20.9797 287.246C20.3552 283.811 22.5408 280.585 25.8712 279.96Z" fill="#461BC2"></path>
<path d="M27.1193 305.771C25.35 305.771 23.6848 305.251 22.3318 304.314C20.4584 303.065 19.1054 301.088 18.6891 298.798L16.5035 287.662C15.5668 282.978 18.6891 278.503 23.2685 277.567C39.9207 270.697 58.5504 267.159 78.5331 266.951C80.7187 266.534 83.0084 267.055 84.8817 268.304C86.7551 269.553 88.1081 271.53 88.5244 273.82L90.71 284.956C91.6467 289.639 88.5244 294.219 83.841 295.051C65.8357 295.259 47.4142 298.798 28.8886 305.563C28.3682 305.667 27.7438 305.771 27.1193 305.771ZM80.1983 268.096C79.782 268.096 79.2616 268.096 78.8453 268.2C58.8626 268.408 40.4411 271.842 23.8929 278.711H23.7889C19.834 279.44 17.3361 283.291 18.0647 287.142L20.2503 298.278C20.5625 300.151 21.7073 301.816 23.2685 302.857C24.8296 303.898 26.8071 304.314 28.6805 304.002C47.3101 297.133 65.8357 293.594 83.841 293.49C85.6103 293.178 87.2755 292.033 88.3163 290.472C89.357 288.911 89.7733 286.933 89.4611 285.06L87.2755 273.924C86.9633 272.05 85.8184 270.385 84.2573 269.344C83.0084 268.616 81.5513 268.096 80.1983 268.096Z" fill="#461BC2"></path>
<path opacity="0.2" d="M639.505 369.57C640.337 366.239 638.36 362.909 635.029 362.076C621.291 355.831 598.915 349.795 584.344 349.171C581.014 348.338 577.683 350.315 576.851 353.646L574.665 362.18C573.833 365.511 575.81 368.841 579.14 369.674C594.44 370.923 616.92 376.647 629.826 382.475C633.156 383.308 636.487 381.33 637.319 378L639.505 369.57Z" fill="#461BC2"></path>
<path opacity="0.2" d="M641.067 381.018L643.773 369.986C644.918 365.406 642.108 360.619 637.633 359.578C619.419 351.356 601.102 346.777 582.993 345.944C580.807 345.424 578.517 345.736 576.54 346.985C574.562 348.13 573.209 350.107 572.585 352.293L569.879 363.325C568.838 367.384 570.92 371.547 574.666 373.316C575.187 373.524 575.707 373.732 576.332 373.836C596.002 375.502 614.216 379.977 630.66 387.366C635.239 388.407 639.922 385.597 641.067 381.018ZM631.076 385.909C614.632 378.52 596.314 373.941 576.54 372.275C572.689 371.339 570.295 367.384 571.232 363.533L573.938 352.501C574.354 350.627 575.603 349.066 577.268 348.025C578.934 346.985 580.911 346.777 582.784 347.193H582.888C600.79 347.921 619.003 352.501 637.112 360.723C637.529 360.827 637.945 361.035 638.361 361.139C641.484 362.596 643.149 366.031 642.316 369.465L639.61 380.497C638.673 384.556 634.823 386.846 631.076 385.909Z" fill="#461BC2"></path>
<path d="M595.585 341.053C610.052 341.886 632.428 348.338 646.062 354.791C649.393 355.624 651.266 359.058 650.433 362.389L648.144 370.923C647.311 374.253 643.877 376.127 640.546 375.294C627.745 369.258 605.368 363.117 590.069 361.556C586.739 360.724 584.865 357.289 585.698 353.959L587.988 345.424C588.82 342.094 592.255 340.116 595.585 341.053Z" fill="#461BC2"></path>
<path d="M585.387 364.783C583.826 364.054 582.577 362.806 581.744 361.348C580.599 359.371 580.287 356.977 580.912 354.792L583.826 343.864C585.075 339.284 589.758 336.578 594.338 337.723C612.343 338.868 630.66 343.76 648.665 352.294C650.747 352.814 652.62 354.271 653.765 356.249C654.91 358.226 655.222 360.62 654.598 362.806L651.684 373.734C650.435 378.313 645.647 381.123 641.068 379.874C624.832 372.172 606.723 367.281 587.052 365.407C586.532 365.199 586.011 364.991 585.387 364.783ZM649.498 354.063C649.082 353.855 648.665 353.751 648.249 353.543C630.244 345.008 612.031 340.117 594.233 339.076H594.129C590.279 338.035 586.324 340.325 585.283 344.176L582.369 355.104C581.848 356.977 582.161 358.955 583.097 360.62C584.034 362.285 585.595 363.534 587.469 363.95C607.139 365.928 625.456 370.819 641.796 378.521C643.566 378.937 645.543 378.729 647.208 377.793C648.874 376.856 650.122 375.295 650.539 373.421L653.453 362.493C653.973 360.62 653.661 358.642 652.724 356.977C651.892 355.624 650.851 354.688 649.498 354.063Z" fill="#461BC2"></path>
</svg>
