<?xml version="1.0" encoding="UTF-8" standalone="no"?><!-- Generator: Gravit.io --><svg xmlns="http://www.w3.org/2000/svg" xmlns:xlink="http://www.w3.org/1999/xlink" style="isolation:isolate" viewBox="0 0 275 200" width="275pt" height="200pt"><defs><clipPath id="_clipPath_wKGuFPzTryWZ8EA8u36GBxdttqU5d11q"><rect width="275" height="200"/></clipPath></defs><g clip-path="url(#_clipPath_wKGuFPzTryWZ8EA8u36GBxdttqU5d11q)"><g><g><path d=" M 65.616 132.808 L 33.356 100.548 L 28.83 96.022 L 33.356 91.452 L 65.616 59.237 L 97.831 26.977 L 102.401 22.452 L 106.926 26.977 L 139.186 59.237 L 171.401 91.452 L 175.971 96.022 L 171.401 100.548 L 139.186 132.808 L 106.926 165.023 L 102.401 169.593 L 97.831 165.023 L 65.616 132.808 Z  M 102.401 176 C 104.014 176 105.492 175.418 106.568 174.387 L 107.24 173.805 L 143.711 137.333 L 180.138 100.861 L 180.81 100.234 C 181.796 99.069 182.378 97.635 182.378 96.022 C 182.378 94.409 181.796 92.931 180.81 91.811 L 180.138 91.183 L 143.711 54.712 L 107.24 18.24 L 106.568 17.613 C 105.492 16.627 104.014 16 102.401 16 C 100.743 16 99.264 16.627 98.189 17.613 L 97.517 18.24 L 61.045 54.712 L 24.619 91.183 L 23.991 91.811 C 22.961 92.931 22.378 94.409 22.378 96.022 C 22.378 97.635 22.961 99.069 23.991 100.234 L 24.619 100.861 L 61.045 137.333 L 97.517 173.805 L 98.189 174.387 C 99.264 175.418 100.743 176 102.401 176 Z " fill-rule="evenodd" fill="rgb(0,0,0)"/><path d=" M 102.401 22.452 L 139.186 59.282 L 176.016 96.112 L 139.186 132.942 L 102.401 169.772 L 65.571 132.942 L 28.741 96.112 L 65.571 59.282 L 102.401 22.452 Z  M 102.401 59.327 L 120.771 77.697 L 139.186 96.112 L 120.771 114.482 L 102.401 132.897 L 83.986 114.482 L 65.616 96.112 L 83.986 77.697 L 102.401 59.327 Z " fill-rule="evenodd" fill="rgb(254,254,254)"/><path d=" M 83.986 114.482 L 102.401 132.897 L 120.771 114.482 L 139.186 96.112 L 120.771 77.697 L 102.401 59.327 L 83.986 77.697 L 65.616 96.112 L 83.986 114.482 Z  M 88.466 110.002 L 102.401 123.936 L 116.291 110.002 L 130.225 96.112 L 116.291 82.178 L 102.401 68.288 L 88.466 82.178 L 74.532 96.112 L 88.466 110.002 Z " fill-rule="evenodd" fill="rgb(0,0,0)"/></g></g><g><g><path d=" M 163.561 178.566 L 156.27 166.302 L 163.561 154.039 L 167.076 166.302 L 163.561 178.566 Z  M 147.334 177.369 L 138.174 168.284 L 152.755 168.284 L 160.046 180.547 L 147.334 177.369 Z  M 147.334 155.198 L 160.009 152.019 L 152.718 164.283 L 138.136 164.283 L 147.334 155.198 Z  M 165.954 146 L 149.39 150.3 L 146.923 154.525 L 141.95 154.487 L 129.799 166.302 L 141.95 178.117 L 146.923 178.08 L 149.39 182.305 L 165.954 186.642 L 170.403 170.527 L 167.898 166.34 L 170.403 162.152 L 165.954 146 Z " fill="rgb(17,11,9)"/></g></g><g><path d=" M 71.457 183.647 C 71.457 183.647 66.033 185.164 63.883 186.407 C 61.734 187.651 48.271 191.134 44.804 189.443 C 42.085 188.117 39.195 179.793 43.918 179.393 C 48.641 178.993 54.586 180.835 55.683 180.654 C 56.781 180.473 58.435 178.824 61.775 179.198 C 65.114 179.572 70.22 177.396 70.22 177.396 L 71.457 183.647 Z " fill="rgb(70,27,194)"/><path d=" M 80.669 164.597 C 80.669 164.597 60.983 166.068 52.297 166.101 L 35.249 129.704 C 34.222 127.51 35.022 124.896 37.101 123.652 C 39.251 122.365 42.213 120.728 45.569 119.249 C 49.724 117.417 54.481 115.828 59.052 115.448 C 60.421 115.332 61.774 115.327 63.087 115.454 C 67.875 115.921 71.065 116.28 73.185 116.548 C 75.533 116.844 77.298 118.831 77.313 121.198 C 77.384 132.152 77.837 161.958 80.669 164.597 Z " fill="rgb(70,27,194)"/><path d=" M 58.825 149.931 L 60.63 149.726 C 60.63 149.726 62.004 148.407 63.267 148.355 C 64.53 148.302 65.428 148.667 64.849 149.931 C 64.27 151.194 63.568 150.773 63.934 151.983 C 64.299 153.194 58.825 151.486 58.825 151.486 L 58.825 149.931 Z " fill="rgb(137,103,86)"/><path d=" M 36.758 165.723 L 35.81 160.197 C 40.231 160.336 44.277 163.817 55.52 164.274 C 71.7 164.932 78.409 162.845 78.409 162.845 L 98.217 157.187 L 74.142 175.013 L 47.456 169.541 L 36.758 165.723 Z " fill="rgb(159,138,255)"/><g opacity="0.33"><path d=" M 36.758 165.723 L 35.81 160.197 C 40.231 160.336 44.277 163.817 55.52 164.274 C 71.7 164.932 78.409 162.845 78.409 162.845 L 98.217 157.187 L 74.142 175.013 L 47.456 169.541 L 36.758 165.723 Z " fill="rgb(35,31,32)"/></g><path d=" M 76.611 160.821 L 75.324 158.002 L 81.14 148.878 L 73.299 133.799 L 68.858 117.451 C 70.141 116.867 73.388 115.955 76.276 118.277 C 81.944 122.834 90.619 145.884 90.619 145.884 C 91.652 148.115 91.244 150.748 89.583 152.561 L 81.334 161.567 C 79.947 163.082 77.464 162.689 76.611 160.821 Z " fill="rgb(70,27,194)"/><path d=" M 40.457 166.754 C 38.581 166.754 36.742 166.137 35.23 164.969 C 33.248 163.439 32.039 161.127 31.912 158.627 C 31.912 158.627 31.391 136.061 33.352 128.879 C 34.226 125.678 37.97 122.352 39.5 122.619 L 42.193 127.472 L 43.546 154.198 L 53.512 152.123 L 55.927 163.717 L 42.206 166.574 C 41.625 166.695 41.039 166.754 40.457 166.754 Z " fill="rgb(70,27,194)"/><path d=" M 79.253 157.471 C 79.253 157.471 77.772 155.106 77.304 155.002 C 76.837 154.898 75.457 154.298 74.962 154.024 C 74.532 153.787 73.224 153.404 73.302 154.131 C 73.38 154.859 73.949 155.236 74.357 155.51 C 74.495 155.602 75.237 155.817 75.588 156.426 C 75.858 156.895 75.751 157.883 75.729 158.041 C 75.677 158.405 77.338 158.041 77.546 158.665 C 77.754 159.289 79.253 157.471 79.253 157.471 Z " fill="rgb(137,103,86)"/><path d=" M 56.971 126.047 L 57.917 133.691 C 58.051 134.109 57.863 134.563 57.473 134.763 C 56.984 135.015 56.386 134.772 56.212 134.25 L 53.74 126.872 C 53.74 126.872 50.091 127.274 49.099 126.31 C 47.056 124.333 45.861 120.315 45.569 119.249 C 49.725 117.417 54.481 115.828 59.053 115.448 C 59.221 116.418 62.036 124.882 56.971 126.047 Z " fill="rgb(79,184,255)"/><path d=" M 75.247 160.355 L 61.125 153.712 C 60.336 153.341 59.997 152.401 60.368 151.612 L 60.368 151.612 C 60.739 150.822 61.68 150.484 62.469 150.855 L 76.591 157.498 C 77.38 157.869 77.719 158.809 77.348 159.599 C 76.977 160.388 76.036 160.727 75.247 160.355 Z " fill="rgb(25,25,25)"/><path d=" M 74.73 156.386 L 72.598 155.383 C 72.426 155.302 72.351 155.096 72.433 154.923 L 72.5 154.779 C 72.582 154.606 72.788 154.532 72.96 154.613 L 75.092 155.616 C 75.265 155.697 75.339 155.903 75.258 156.076 L 75.19 156.22 C 75.109 156.393 74.903 156.467 74.73 156.386 Z " fill="rgb(25,25,25)"/><path d=" M 69.743 156.917 L 67.611 155.914 C 67.439 155.833 67.365 155.627 67.446 155.454 L 67.514 155.31 C 67.595 155.138 67.801 155.063 67.973 155.145 L 70.105 156.147 C 70.278 156.229 70.352 156.434 70.271 156.607 L 70.203 156.751 C 70.122 156.924 69.916 156.998 69.743 156.917 Z " fill="rgb(159,138,255)"/><path d=" M 66.305 151.31 L 64.174 150.307 C 64.001 150.226 63.927 150.02 64.008 149.847 L 64.076 149.703 C 64.157 149.53 64.363 149.456 64.535 149.537 L 66.667 150.54 C 66.84 150.621 66.914 150.827 66.833 151 L 66.765 151.144 C 66.684 151.317 66.478 151.391 66.305 151.31 Z " fill="rgb(25,25,25)"/><path d=" M 64.335 151.733 L 64.968 150.387 C 65.036 150.241 65.21 150.179 65.355 150.247 L 65.598 150.361 C 65.743 150.43 65.806 150.603 65.737 150.749 L 65.104 152.095 C 65.036 152.24 64.862 152.303 64.717 152.234 L 64.474 152.12 C 64.329 152.052 64.266 151.878 64.335 151.733 Z " fill="rgb(25,25,25)"/><path d=" M 72.79 156.744 L 73.423 155.398 C 73.491 155.253 73.665 155.19 73.81 155.259 L 74.053 155.373 C 74.198 155.441 74.261 155.615 74.192 155.76 L 73.559 157.106 C 73.491 157.251 73.317 157.314 73.172 157.245 L 72.929 157.131 C 72.784 157.063 72.721 156.889 72.79 156.744 Z " fill="rgb(25,25,25)"/><path d=" M 72.782 156.761 L 73.415 155.415 C 73.483 155.27 73.657 155.207 73.802 155.276 L 74.045 155.39 C 74.19 155.458 74.253 155.632 74.184 155.777 L 73.552 157.123 C 73.483 157.268 73.309 157.331 73.164 157.262 L 72.922 157.148 C 72.776 157.08 72.713 156.906 72.782 156.761 Z " fill="rgb(25,25,25)"/><path d=" M 58.825 149.931 C 58.825 149.931 51.748 155.271 53.656 158.141 C 54.372 159.219 55.454 160.502 55.673 160.52 C 56.096 160.554 58.659 161.344 59.884 161.381 C 60.331 161.395 60.742 161.145 60.939 160.744 L 61.299 160.011 L 61.847 159.929 C 62.477 159.834 62.998 159.386 63.186 158.777 L 63.404 158.071 C 63.404 158.071 66.668 158.773 67.036 157.879 C 67.405 156.984 64.352 155.668 62.72 154.931 C 61.088 154.194 67.422 156.352 67.545 154.826 C 67.667 153.3 62.194 151.247 62.194 151.247 L 58.825 149.931 Z " fill="rgb(156,119,97)"/><path d=" M 65.609 187.378 C 80.413 182.115 93.661 176.53 103.069 170.15 C 106.458 168.591 108.008 164.632 106.578 161.186 L 106.578 161.186 C 104.976 157.325 100.348 155.746 96.72 157.824 L 61.338 178.092 L 65.609 187.378 Z " fill="rgb(159,138,255)"/><path d=" M 77.929 186.775 C 77.929 186.775 83.71 185.377 85.97 186.406 C 88.23 187.435 101.967 189.598 105.253 187.579 C 107.832 185.996 109.901 177.431 105.162 177.491 C 100.422 177.55 94.684 179.96 93.574 179.886 C 92.465 179.812 90.658 178.331 87.37 179.027 C 84.083 179.722 78.79 178.051 78.79 178.051 L 77.929 186.775 Z " fill="rgb(70,27,194)"/><path d=" M 79.175 157.38 L 77.181 158.008 C 77.181 158.008 76.838 158.467 76.244 158.39 C 75.65 158.313 73.355 157.873 73.166 158.766 C 72.977 159.658 73.801 159.748 74.753 160.092 C 75.705 160.436 77.335 160.872 77.726 160.624 C 78.118 160.376 78.987 159.402 78.987 159.402 L 79.175 157.38 Z " fill="rgb(156,119,97)"/><path d=" M 79.097 157.437 C 79.097 157.437 79.04 161.342 78.726 162.652 C 78.413 163.963 76.346 164.761 76.346 164.761 C 76.346 164.761 73.71 164.932 72.77 163.992 C 71.829 163.051 72.428 162.282 72.428 162.282 C 72.428 162.282 71.587 161.27 71.915 160.7 C 71.915 160.7 70.575 159.817 71.117 159.104 C 71.658 158.392 73.297 159.603 73.297 159.603 C 73.297 159.603 76.498 161.085 77.6 160.415 C 78.703 159.746 79.097 157.437 79.097 157.437 Z " fill="rgb(156,119,97)"/><path d=" M 49.836 115.938 L 50.525 120.464 C 50.769 122.062 52.262 123.161 53.86 122.917 L 53.86 122.917 C 55.458 122.674 56.556 121.181 56.313 119.583 L 55.708 115.61 C 55.676 115.399 55.478 115.254 55.267 115.286 L 53.15 115.608 C 52.175 115.757 51.219 115.711 50.315 115.497 L 50.309 115.495 C 50.04 115.436 49.794 115.665 49.836 115.938 Z " fill="rgb(156,119,97)"/><path d=" M 50.442 116.189 C 50.853 116.419 55.43 118.96 56.139 118.3 L 55.776 115.92 L 53.276 116.3 C 52.302 116.449 51.346 116.403 50.442 116.189 Z " fill="rgb(18,20,48)"/><path d=" M 45.341 114.48 C 47.199 116.054 51.554 116.887 54.931 116.17 C 58.473 115.419 62.319 111.847 61.852 107.557 L 60.764 97.573 C 60.296 93.284 56.44 90.185 52.15 90.653 L 47.087 91.204 C 42.797 91.672 39.699 95.528 40.167 99.818 C 40.167 99.818 42.376 111.967 45.341 114.48 Z " fill="rgb(156,119,97)"/><path d=" M 38.133 106.558 C 38.312 108.201 41.112 108.904 42.566 108.745 C 44.019 108.587 43.576 107.627 43.396 105.984 C 43.217 104.341 41.894 103.138 40.44 103.296 C 38.987 103.454 37.954 104.915 38.133 106.558 Z " fill="rgb(156,119,97)"/><path d=" M 46.664 94.878 C 46.664 94.878 43.237 100.878 43.77 103.472 C 44.302 106.065 42.688 106.271 42.688 106.271 C 42.688 106.271 40.906 103.3 40.285 103.321 C 39.663 103.342 37.597 96.166 40.41 95.319 C 43.223 94.471 46.664 94.878 46.664 94.878 Z " fill="rgb(18,20,48)"/><path d=" M 54.326 101.711 C 54.436 101.653 54.572 101.695 54.631 101.805 C 55.84 104.089 56.344 105.77 56.576 106.774 C 56.628 106.998 56.687 107.28 56.688 107.556 C 56.689 107.834 56.63 108.136 56.417 108.375 C 56.234 108.581 55.988 108.684 55.742 108.728 C 55.497 108.773 55.237 108.763 55.003 108.733 C 54.534 108.672 54.124 108.523 54.048 108.494 C 53.931 108.45 53.872 108.32 53.916 108.204 C 53.96 108.087 54.09 108.028 54.206 108.072 C 54.271 108.096 54.643 108.232 55.061 108.286 C 55.269 108.313 55.478 108.318 55.661 108.285 C 55.843 108.252 55.984 108.183 56.08 108.076 C 56.191 107.952 56.238 107.777 56.237 107.557 C 56.237 107.337 56.188 107.099 56.137 106.875 L 56.356 106.824 L 56.137 106.875 C 55.913 105.907 55.422 104.264 54.232 102.016 C 54.174 101.906 54.216 101.77 54.326 101.711 Z " fill-rule="evenodd" fill="rgb(18,20,48)"/><path d=" M 38.972 98.413 C 36.222 96.653 35.925 93.271 37.32 91.768 C 38.437 90.564 40.835 90.351 42.845 91.646 C 42.551 88.992 43.584 86.616 45.445 85.666 C 46.436 85.161 48.579 84.591 49.735 85.926 C 50.64 86.972 50.616 88.812 49.475 90.216 C 50.324 86.017 52.94 82.829 56.234 82.156 C 58.326 81.729 61.746 82.1 62.604 84.236 C 63.371 86.148 61.968 89.182 58.704 90.736 C 61.183 88.214 63.751 87.23 64.748 88.006 C 65.753 88.787 65.418 91.549 64.152 93.315 C 63.687 93.964 63.16 94.389 62.604 94.765 C 59.123 97.118 54.98 97.204 54.225 97.211 C 50.409 97.247 49.624 96.113 47.247 96.846 C 45.315 97.442 44.007 98.754 43.235 99.705 C 41.814 99.274 40.393 98.843 38.972 98.413 Z " fill="rgb(18,20,48)"/><path d=" M 51.603 103.087 C 51.252 103.056 50.66 103.055 49.775 103.209 C 49.131 103.32 48.728 103.534 48.498 103.698 C 48.382 103.78 48.306 103.853 48.265 103.897 C 48.244 103.919 48.231 103.935 48.227 103.941 C 48.226 103.941 48.226 103.942 48.225 103.942 C 48.016 104.245 47.602 104.326 47.293 104.122 C 46.98 103.915 46.894 103.494 47.101 103.181 L 47.667 103.556 C 47.101 103.181 47.101 103.181 47.102 103.181 L 47.102 103.18 L 47.103 103.179 L 47.105 103.175 L 47.11 103.168 C 47.113 103.163 47.117 103.158 47.122 103.151 C 47.131 103.138 47.143 103.122 47.157 103.104 C 47.186 103.068 47.224 103.022 47.273 102.969 C 47.372 102.864 47.515 102.73 47.711 102.591 C 48.104 102.311 48.697 102.017 49.544 101.871 L 49.66 102.54 L 49.544 101.871 C 50.529 101.7 51.239 101.692 51.722 101.734 C 51.963 101.755 52.147 101.789 52.279 101.822 C 52.346 101.838 52.399 101.853 52.44 101.867 C 52.46 101.873 52.477 101.88 52.492 101.885 C 52.499 101.888 52.505 101.89 52.511 101.892 L 52.519 101.896 L 52.522 101.897 L 52.524 101.898 L 52.525 101.898 C 52.525 101.898 52.526 101.898 52.27 102.507 L 52.526 101.898 C 52.871 102.044 53.034 102.442 52.888 102.787 C 52.745 103.127 52.358 103.29 52.016 103.157 C 52.016 103.157 52.016 103.156 52.015 103.156 C 52.009 103.154 51.99 103.148 51.958 103.141 C 51.895 103.125 51.779 103.102 51.603 103.087 Z " fill-rule="evenodd" fill="rgb(18,20,48)"/><path d=" M 62.443 100.829 C 62.443 100.829 62.443 100.83 61.979 101.325 L 62.443 100.83 C 62.717 101.086 62.73 101.516 62.474 101.789 C 62.22 102.059 61.799 102.076 61.525 101.83 C 61.525 101.83 61.524 101.829 61.524 101.829 C 61.517 101.824 61.502 101.812 61.476 101.795 C 61.426 101.761 61.336 101.708 61.204 101.655 C 60.942 101.549 60.5 101.434 59.847 101.474 C 58.951 101.529 58.376 101.666 58.041 101.777 C 57.874 101.833 57.766 101.882 57.708 101.912 C 57.679 101.927 57.662 101.937 57.656 101.94 C 57.656 101.941 57.656 101.941 57.656 101.941 C 57.354 102.15 56.939 102.081 56.721 101.783 C 56.5 101.48 56.566 101.055 56.869 100.834 L 57.266 101.377 C 56.869 100.834 56.869 100.834 56.87 100.834 L 56.87 100.833 L 56.872 100.832 L 56.875 100.83 L 56.882 100.825 C 56.887 100.822 56.893 100.818 56.899 100.813 C 56.912 100.805 56.927 100.795 56.945 100.784 C 56.982 100.761 57.03 100.734 57.091 100.703 C 57.212 100.641 57.384 100.565 57.613 100.489 C 58.073 100.336 58.766 100.18 59.764 100.119 C 60.622 100.066 61.266 100.215 61.714 100.396 C 61.936 100.487 62.106 100.583 62.227 100.663 C 62.287 100.703 62.335 100.739 62.371 100.768 C 62.389 100.782 62.404 100.795 62.416 100.805 C 62.422 100.81 62.427 100.815 62.432 100.819 L 62.438 100.825 L 62.441 100.827 L 62.442 100.829 L 62.443 100.829 Z " fill-rule="evenodd" fill="rgb(18,20,48)"/><path d=" M 50.796 104.977 C 50.835 105.304 50.6 105.602 50.269 105.641 C 50.168 105.652 50.074 105.639 49.985 105.602 C 49.784 105.526 49.633 105.343 49.606 105.117 C 49.576 104.857 49.716 104.619 49.935 104.511 C 49.993 104.48 50.059 104.459 50.13 104.451 C 50.46 104.412 50.758 104.647 50.796 104.977 Z " fill="rgb(18,20,48)"/><path d=" M 59.944 103.351 C 59.982 103.678 59.747 103.975 59.42 104.014 C 59.09 104.052 58.792 103.817 58.754 103.49 C 58.715 103.16 58.95 102.862 59.281 102.824 C 59.608 102.785 59.905 103.021 59.944 103.351 Z " fill="rgb(18,20,48)"/><path d=" M 55.05 113.434 C 52.655 113.644 52.044 111.342 51.945 111.239 L 56.92 110.365 C 57.208 112.3 56.237 113.328 55.05 113.434 Z " fill="rgb(255,255,255)"/><path d=" M 83.044 187.865 C 69.043 185.214 55.087 182.178 39.535 175.013 C 36.21 173.798 33.287 167.102 34.502 163.777 L 34.502 163.777 C 35.77 160.307 39.701 158.624 43.087 160.101 L 85.839 176.2 L 83.044 187.865 Z " fill="rgb(159,138,255)"/><path d=" M 60.022 128.728 L 58.419 129.202 L 58.341 128.938 L 59.944 128.464 L 60.022 128.728 Z " fill-rule="evenodd" fill="rgb(79,184,255)"/><path d=" M 60.464 132.159 L 58.861 132.633 L 58.783 132.369 L 60.386 131.894 L 60.464 132.159 Z " fill-rule="evenodd" fill="rgb(79,184,255)"/><path d=" M 73.714 170.85 C 73.739 170.778 73.817 170.739 73.889 170.763 L 85.09 174.507 C 85.533 174.656 85.775 175.132 85.633 175.577 L 82.96 183.94 C 82.937 184.012 82.859 184.052 82.787 184.029 C 82.714 184.006 82.675 183.929 82.698 183.856 L 85.371 175.493 C 85.467 175.192 85.303 174.869 85.003 174.769 L 73.801 171.024 C 73.729 171 73.69 170.922 73.714 170.85 Z " fill-rule="evenodd" fill="rgb(25,25,25)"/></g><path d=" M 212.228 156.95 C 209.254 156.95 207.237 158.21 205.725 160.529 L 205.624 160.529 L 205.624 157.555 L 200.381 157.555 L 200.381 179.433 L 205.725 179.433 L 205.725 167.032 C 205.725 164.058 207.59 161.991 210.161 161.991 C 212.581 161.991 214.396 163.453 214.396 166.024 L 214.396 179.484 L 219.739 179.484 L 219.739 165.167 C 219.789 160.378 216.765 156.95 212.228 156.95 L 212.228 156.95 Z  M 192.265 170.208 C 192.265 173.132 190.601 175.148 187.879 175.148 C 185.409 175.148 183.846 173.737 183.846 171.166 L 183.846 157.555 L 178.503 157.555 L 178.503 162.667 L 178.503 172.174 C 178.503 176.963 181.225 180.089 186.115 180.089 C 189.19 180.089 190.904 178.929 192.366 176.913 L 192.517 176.913 L 192.517 179.484 L 197.659 179.484 L 197.659 157.555 L 192.315 157.555 L 192.315 170.208 L 192.265 170.208 Z  M 222.613 157.555 L 227.956 157.555 L 227.956 179.433 L 222.613 179.433 L 222.613 157.555 Z  M 222.613 150.75 L 227.956 150.75 L 227.956 155.135 L 222.613 155.135 L 222.613 150.75 Z  M 258.253 157.555 L 255.077 167.435 C 254.372 169.452 253.817 172.225 253.817 172.225 L 253.666 172.225 C 253.666 172.225 252.96 169.452 252.254 167.435 L 248.675 157.555 L 242.928 157.555 L 248.826 173.132 C 250.087 176.459 250.49 177.87 250.49 179.08 C 250.49 180.895 249.532 182.055 247.264 182.055 L 245.196 182.055 L 245.196 186.642 L 248.625 186.642 C 253.061 186.642 254.624 184.878 256.287 180.038 L 264 157.605 L 258.253 157.605 L 258.253 157.555 Z  M 237.937 173.031 L 237.937 161.437 L 241.366 161.437 L 241.366 157.605 L 237.937 157.605 L 237.937 150.75 L 232.594 150.75 L 232.594 157.555 L 229.569 157.555 L 229.569 161.386 L 232.594 161.386 L 232.594 174.241 C 232.594 178.375 235.719 179.484 238.542 179.484 C 240.861 179.484 241.466 179.383 241.466 179.383 L 241.466 175.148 L 240.105 175.148 C 238.845 175.199 237.937 174.645 237.937 173.031 Z " fill="rgb(17,11,9)"/></g></svg>