<svg width="200" height="150" viewBox="0 0 800 600" fill="none" xmlns="http://www.w3.org/2000/svg" data-reactroot="">
<path d="M283.202 553.166H272.149C271.524 553.166 271.107 552.749 271.107 552.123C271.107 551.498 271.524 551.081 272.149 551.081H283.202C283.828 551.081 284.245 551.498 284.245 552.123C284.245 552.749 283.828 553.166 283.202 553.166ZM261.096 553.166H250.043C249.417 553.166 249 552.749 249 552.123C249 551.498 249.417 551.081 250.043 551.081H261.096C261.722 551.081 262.139 551.498 262.139 552.123C262.139 552.749 261.722 553.166 261.096 553.166ZM238.99 553.166H227.936C227.311 553.166 226.894 552.749 226.894 552.123C226.894 551.498 227.311 551.081 227.936 551.081H238.99C239.615 551.081 240.032 551.498 240.032 552.123C240.032 552.749 239.615 553.166 238.99 553.166ZM216.883 553.166H205.83C205.204 553.166 204.787 552.749 204.787 552.123C204.787 551.498 205.204 551.081 205.83 551.081H216.883C217.509 551.081 217.926 551.498 217.926 552.123C217.926 552.749 217.509 553.166 216.883 553.166ZM194.777 553.166H183.723C183.098 553.166 182.681 552.749 182.681 552.123C182.681 551.498 183.098 551.081 183.723 551.081H194.777C195.402 551.081 195.82 551.498 195.82 552.123C195.82 552.749 195.402 553.166 194.777 553.166ZM172.67 553.166H161.617C160.991 553.166 160.574 552.749 160.574 552.123C160.574 551.498 160.991 551.081 161.617 551.081H172.67C173.296 551.081 173.713 551.498 173.713 552.123C173.713 552.749 173.296 553.166 172.67 553.166ZM150.564 553.166H139.511C138.885 553.166 138.468 552.749 138.468 552.123C138.468 551.498 138.885 551.081 139.511 551.081H150.564C151.189 551.081 151.606 551.498 151.606 552.123C151.606 552.749 151.189 553.166 150.564 553.166ZM128.457 553.166H117.404C116.778 553.166 116.361 552.749 116.361 552.123C116.361 551.498 116.778 551.081 117.404 551.081H128.457C129.083 551.081 129.5 551.498 129.5 552.123C129.5 552.749 128.874 553.166 128.457 553.166ZM106.351 553.166H95.2975C94.6719 553.166 94.2548 552.749 94.2548 552.123C94.2548 551.498 94.6719 551.081 95.2975 551.081H106.351C106.977 551.081 107.394 551.498 107.394 552.123C107.394 552.749 106.768 553.166 106.351 553.166ZM84.0357 553.166H72.9826C72.357 553.166 71.9398 552.749 71.9398 552.123C71.9398 551.498 72.357 551.081 72.9826 551.081H84.0357C84.6613 551.081 85.0784 551.498 85.0784 552.123C85.0784 552.749 84.6613 553.166 84.0357 553.166ZM61.9293 553.166H50.8761C50.2504 553.166 49.8333 552.749 49.8333 552.123C49.8333 551.498 50.2504 551.081 50.8761 551.081H61.9293C62.5549 551.081 62.972 551.498 62.972 552.123C62.972 552.749 62.5549 553.166 61.9293 553.166ZM39.8229 553.166H36.069C33.5663 553.166 31.0636 552.749 28.561 552.123C27.9354 551.915 27.7269 551.498 27.7269 550.872C27.9354 550.246 28.3525 550.038 28.9781 550.038C31.2722 550.664 33.5663 550.872 35.8603 550.872H39.6144C40.24 550.872 40.6571 551.289 40.6571 551.915C40.6571 552.541 40.4485 553.166 39.8229 553.166ZM18.9677 547.327C18.7591 547.327 18.5506 547.327 18.3421 547.118C15.2138 544.616 12.9197 541.487 11.4599 537.942C11.2513 537.316 11.4599 536.899 12.0855 536.482C12.7112 536.273 13.1283 536.482 13.5454 537.108C14.7967 540.236 17.0908 543.156 19.802 545.45C20.2191 545.867 20.219 546.492 20.0105 546.91C19.5933 547.118 19.3848 547.327 18.9677 547.327ZM11.0428 527.723C10.4171 527.723 10 527.306 10 526.68V515.627C10 515.001 10.4171 514.584 11.0428 514.584C11.6684 514.584 12.0855 515.001 12.0855 515.627V526.68C12.0855 527.306 11.6684 527.723 11.0428 527.723ZM11.0428 505.616C10.4171 505.616 10 505.199 10 504.574V493.52C10 492.895 10.4171 492.478 11.0428 492.478C11.6684 492.478 12.0855 492.895 12.0855 493.52V504.574C12.0855 504.991 11.6684 505.616 11.0428 505.616ZM11.0428 483.51C10.4171 483.51 10 483.093 10 482.467V471.414C10 470.788 10.4171 470.371 11.0428 470.371C11.6684 470.371 12.0855 470.788 12.0855 471.414V482.467C12.0855 482.884 11.6684 483.51 11.0428 483.51ZM11.0428 461.195C10.4171 461.195 10 460.778 10 460.152V449.099C10 448.473 10.4171 448.056 11.0428 448.056C11.6684 448.056 12.0855 448.473 12.0855 449.099V460.152C12.0855 460.778 11.6684 461.195 11.0428 461.195ZM11.0428 439.089C10.4171 439.089 10 438.671 10 438.046V426.992C10 426.367 10.4171 425.95 11.0428 425.95C11.6684 425.95 12.0855 426.367 12.0855 426.992V438.046C12.0855 438.671 11.6684 439.089 11.0428 439.089ZM11.0428 416.982C10.4171 416.982 10 416.565 10 415.939V404.886C10 404.26 10.4171 403.843 11.0428 403.843C11.6684 403.843 12.0855 404.26 12.0855 404.886V415.939C12.0855 416.565 11.6684 416.982 11.0428 416.982ZM11.0428 394.876C10.4171 394.876 10 394.458 10 393.833V382.78C10 382.154 10.4171 381.737 11.0428 381.737C11.6684 381.737 12.0855 382.154 12.0855 382.78V393.833C12.0855 394.458 11.6684 394.876 11.0428 394.876ZM11.0428 372.769C10.4171 372.769 10 372.352 10 371.726V360.673C10 360.047 10.4171 359.63 11.0428 359.63C11.6684 359.63 12.0855 360.047 12.0855 360.673V371.726C12.0855 372.352 11.6684 372.769 11.0428 372.769ZM11.0428 350.663C10.4171 350.663 10 350.246 10 349.62V338.567C10 337.941 10.4171 337.524 11.0428 337.524C11.6684 337.524 12.0855 337.941 12.0855 338.567V349.62C12.0855 350.246 11.6684 350.663 11.0428 350.663ZM11.0428 328.556C10.4171 328.556 10 328.139 10 327.513V316.46C10 315.834 10.4171 315.417 11.0428 315.417C11.6684 315.417 12.0855 315.834 12.0855 316.46V327.513C12.0855 328.139 11.6684 328.556 11.0428 328.556ZM11.0428 306.45C10.4171 306.45 10 306.033 10 305.407V294.354C10 293.728 10.4171 293.311 11.0428 293.311C11.6684 293.311 12.0855 293.728 12.0855 294.354V305.407C12.0855 306.033 11.6684 306.45 11.0428 306.45ZM11.0428 284.343C10.4171 284.343 10 283.926 10 283.3V272.247C10 271.622 10.4171 271.205 11.0428 271.205C11.6684 271.205 12.0855 271.622 12.0855 272.247V283.3C12.0855 283.718 11.6684 284.343 11.0428 284.343ZM11.0428 262.237C10.4171 262.237 10 261.82 10 261.194V250.141C10 249.515 10.4171 249.098 11.0428 249.098C11.6684 249.098 12.0855 249.515 12.0855 250.141V261.194C12.0855 261.611 11.6684 262.237 11.0428 262.237ZM11.0428 239.922C10.4171 239.922 10 239.505 10 238.879V227.826C10 227.2 10.4171 226.783 11.0428 226.783C11.6684 226.783 12.0855 227.2 12.0855 227.826V238.879C12.0855 239.505 11.6684 239.922 11.0428 239.922ZM11.0428 217.815C10.4171 217.815 10 217.398 10 216.772V205.719C10 205.094 10.4171 204.677 11.0428 204.677C11.6684 204.677 12.0855 205.094 12.0855 205.719V216.772C12.0855 217.398 11.6684 217.815 11.0428 217.815ZM11.0428 195.709C10.4171 195.709 10 195.292 10 194.666V183.613C10 182.987 10.4171 182.57 11.0428 182.57C11.6684 182.57 12.0855 182.987 12.0855 183.613V194.666C12.0855 195.292 11.6684 195.709 11.0428 195.709ZM11.0428 173.602C10.4171 173.602 10 173.185 10 172.56V165.886C10 164.426 10.2086 162.966 10.4171 161.506C10.6257 160.881 11.0427 160.672 11.6684 160.672C12.294 160.881 12.5026 161.298 12.5026 161.923C12.2941 163.175 12.0855 164.635 12.0855 165.886V172.56C12.0855 173.185 11.6684 173.602 11.0428 173.602ZM16.6737 152.956C16.4651 152.956 16.2565 152.956 16.0479 152.747C15.6308 152.33 15.6308 151.704 16.0479 151.287C18.5505 148.576 21.8874 146.282 25.6414 145.031C26.267 144.822 26.6841 145.031 26.8926 145.656C27.1012 146.282 26.8927 146.699 26.267 146.908C22.9302 148.159 19.8019 150.245 17.5078 152.747C17.2993 152.956 17.0908 152.956 16.6737 152.956ZM110.313 145.031H103.223C102.597 145.031 102.18 144.614 102.18 143.988C102.18 143.362 102.597 142.945 103.223 142.945H110.313C110.939 142.945 111.356 143.362 111.356 143.988C111.356 144.614 110.73 145.031 110.313 145.031ZM91.9608 145.031H80.9074C80.2818 145.031 79.8647 144.614 79.8647 143.988C79.8647 143.362 80.2818 142.945 80.9074 142.945H91.9608C92.5864 142.945 93.0035 143.362 93.0035 143.988C93.0035 144.614 92.5864 145.031 91.9608 145.031ZM69.8543 145.031H58.801C58.1753 145.031 57.7582 144.614 57.7582 143.988C57.7582 143.362 58.1753 142.945 58.801 142.945H69.8543C70.48 142.945 70.8971 143.362 70.8971 143.988C70.8971 144.614 70.48 145.031 69.8543 145.031ZM47.7478 145.031H36.6946C36.0689 145.031 35.6518 144.614 35.6518 143.988C35.6518 143.362 36.0689 142.945 36.6946 142.945H47.7478C48.3734 142.945 48.7905 143.362 48.7905 143.988C48.7905 144.614 48.3734 145.031 47.7478 145.031Z" fill="#3913B8"></path>
<path d="M90.5031 206.971H45.873V251.601H90.5031V206.971Z" fill="#3913B8"></path>
<path d="M74.652 243.884L62.9731 227.826C62.3475 226.991 62.5561 225.532 63.3903 224.906C64.2245 224.28 65.6844 224.489 66.3101 225.323L75.2777 237.628L106.977 210.307C107.812 209.473 109.063 209.682 109.897 210.516C110.731 211.35 110.523 212.602 109.689 213.436L74.652 243.884Z" fill="#9F8AFF"></path>
<path d="M90.5031 291.225H45.873V335.855H90.5031V291.225Z" fill="#3913B8"></path>
<path d="M74.652 328.139L62.9731 312.081C62.3475 311.246 62.5561 309.787 63.3903 309.161C64.2245 308.535 65.6844 308.744 66.3101 309.578L75.2777 321.883L106.977 294.562C107.812 293.728 109.063 293.937 109.897 294.771C110.731 295.605 110.523 296.856 109.689 297.691L74.652 328.139Z" fill="#9F8AFF"></path>
<path d="M90.5031 375.48H45.873V420.11H90.5031V375.48Z" fill="#3913B8"></path>
<path d="M74.652 412.394L62.9731 396.336C62.3475 395.501 62.5561 394.041 63.3903 393.416C64.2245 392.79 65.6844 392.999 66.3101 393.833L75.2777 406.137L106.977 378.817C107.812 377.983 109.063 378.192 109.897 379.026C110.731 379.86 110.523 381.111 109.689 381.945L74.652 412.394Z" fill="#9F8AFF"></path>
<path d="M90.5031 459.735H45.873V504.365H90.5031V459.735Z" fill="#3913B8"></path>
<path d="M74.652 496.649L62.9731 480.59C62.3475 479.756 62.5561 478.296 63.3903 477.671C64.2245 477.045 65.6844 477.253 66.3101 478.088L75.2777 490.392L106.977 463.072C107.812 462.238 109.063 462.446 109.897 463.281C110.731 464.115 110.523 465.366 109.689 466.2L74.652 496.649Z" fill="#9F8AFF"></path>
<path opacity="0.5" d="M294.049 215.104H127.625V243.467H294.049V215.104Z" fill="#3913B8"></path>
<path d="M295.092 328.973H126.582V298.524H295.092V328.973ZM128.668 326.887H293.006V300.61H128.668V326.887Z" fill="#9F8AFF"></path>
<path d="M295.092 413.229H126.582V382.78H295.092V413.229ZM128.668 411.143H293.006V384.866H128.668V411.143Z" fill="#9F8AFF"></path>
<path opacity="0.5" d="M294.049 467.87H127.625V496.233H294.049V467.87Z" fill="#3913B8"></path>
<path d="M250.668 91.8496H212.504L209.584 69.1174C209.584 64.9464 200.408 41.7972 188.937 45.9683C184.975 47.4281 182.472 51.5991 182.472 55.7701V86.8443C182.472 93.9351 176.841 99.5659 169.751 99.5659H158.697V166.72H182.055C186.643 166.72 191.023 168.597 194.36 171.725L194.777 172.142C199.782 177.147 247.54 184.029 259.011 175.27C263.599 171.725 267.144 167.554 267.144 162.966V108.534C267.561 99.3575 260.053 91.8496 250.668 91.8496Z" fill="#9F8AFF"></path>
<path d="M164.116 174.853H142.218C139.09 174.853 136.379 172.142 136.379 169.014V97.272C136.379 94.1438 139.09 91.4326 142.218 91.4326H164.116C167.244 91.4326 169.956 94.1438 169.956 97.272V169.222C169.956 172.351 167.244 174.853 164.116 174.853Z" fill="#3913B8"></path>
<path opacity="0.18" d="M446.097 496.44C446.097 496.44 357.462 510.83 351.414 539.611C346.409 562.968 710.749 553.375 725.764 547.536C744.951 540.028 758.299 522.718 761.01 502.28L446.097 496.44Z" fill="#001C59"></path>
<path opacity="0.16" d="M664.09 86.9359L527.52 66.71L483.646 362.956L620.216 383.182L664.09 86.9359Z" fill="#9F8AFF"></path>
<path d="M742.035 515.836H444.641C433.587 515.836 424.828 506.868 424.828 496.023V270.162C424.828 259.109 433.796 250.35 444.641 250.35H742.035C753.088 250.35 761.847 259.317 761.847 270.162V495.815C761.847 506.868 752.88 515.836 742.035 515.836Z" fill="#9F8AFF"></path>
<path opacity="0.72" d="M783.671 166.61L669.219 89.4062L501.75 337.675L616.202 414.879L783.671 166.61Z" fill="#4FB8FF"></path>
<path d="M580.94 103.803L443.887 120.398L479.884 417.692L616.937 401.097L580.94 103.803Z" fill="#4FB8FF"></path>
<path opacity="0.18" d="M617.114 401.132L480.095 417.816L461.117 260.777L599.804 258.691L617.114 401.132Z" fill="#001C59"></path>
<path d="M643.598 408.015L642.556 407.806L507.414 374.855L507.623 373.812L578.739 81.8398L579.781 82.0485L714.923 115L714.714 116.042L643.598 408.015ZM509.917 373.395L642.138 405.512L712.42 116.459L580.199 84.3425L509.917 373.395Z" fill="#00376E"></path>
<path d="M606.893 289.141C603.347 289.141 599.802 288.724 596.256 287.89C572.065 282.05 557.257 257.65 563.097 233.458C566.016 221.779 573.107 211.768 583.535 205.512C593.754 199.255 606.059 197.378 617.737 200.298C641.929 206.137 656.737 230.538 650.897 254.73C645.892 275.168 627.331 289.141 606.893 289.141ZM606.893 200.924C599.176 200.924 591.46 203.009 584.578 207.18C574.776 213.228 567.893 222.613 565.182 233.875C562.471 245.137 564.348 256.607 570.188 266.409C576.236 276.211 585.621 283.093 596.674 285.804C619.823 291.435 642.972 277.254 648.603 254.104C651.314 242.843 649.437 231.372 643.598 221.57C637.55 211.768 628.165 204.886 617.112 202.175C613.775 201.341 610.229 200.924 606.893 200.924Z" fill="#00376E"></path>
<path d="M533.904 380.277L531.819 379.86L534.53 368.599C528.482 366.513 524.728 360.465 525.771 354L513.258 350.872L513.675 348.786L528.065 352.332L527.856 353.374C527.231 356.294 527.648 359.214 529.108 361.716C530.568 364.219 533.07 366.096 535.99 366.722L537.032 366.93L533.904 380.277Z" fill="#00376E"></path>
<path d="M708.669 141.069L695.53 137.941L695.739 136.898C697.199 131.059 693.445 125.011 687.605 123.551L686.562 123.342L690.108 108.952L692.193 109.369L689.065 121.882C695.113 123.968 698.867 130.016 697.824 136.481L709.086 139.192L708.669 141.069Z" fill="#00376E"></path>
<path d="M586.874 111.245L572.484 107.7L572.902 105.614L585.415 108.743C586.457 105.823 588.334 103.32 591.046 101.652C593.757 99.9834 596.885 99.3577 600.013 99.9834L602.724 88.7217L604.81 89.1387L601.682 102.278L600.639 102.069C597.719 101.443 594.799 101.86 592.297 103.32C589.794 104.78 587.917 107.283 587.292 110.202L586.874 111.245Z" fill="#00376E"></path>
<path d="M620.869 402.175L618.783 401.758L622.328 387.368L623.371 387.577C626.291 388.202 629.211 387.785 631.713 386.325C634.216 384.865 636.093 382.363 636.719 379.443L636.927 378.4L650.066 381.529L649.649 383.614L638.387 380.903C636.302 386.951 630.254 390.705 623.788 389.662L620.869 402.175Z" fill="#00376E"></path>
<path d="M719.719 538.152H422.324C411.271 538.152 402.512 529.184 402.512 518.339V292.686C402.512 281.633 411.479 272.874 422.324 272.874H719.719C730.772 272.874 739.531 281.842 739.531 292.686V518.339C739.531 529.393 730.772 538.152 719.719 538.152Z" fill="#3913B8"></path>
<path opacity="0.18" d="M788.957 426.159C788.957 434.918 781.866 442.009 773.316 442.009H623.158C614.399 442.009 607.309 434.918 607.309 426.159V372.562C607.309 372.562 610.228 425.534 630.875 426.576C674.462 428.662 788.957 426.159 788.957 426.159Z" fill="#001C59"></path>
<path opacity="0.18" d="M739.531 518.339C739.531 529.392 730.564 538.151 719.719 538.151H422.324C411.271 538.151 402.512 529.183 402.512 518.339V292.686C402.512 281.633 421.699 503.949 453.19 513.751C484.681 523.761 739.531 518.339 739.531 518.339Z" fill="#001C59"></path>
<path d="M773.107 442.842H623.158C613.982 442.842 606.266 435.335 606.266 425.95V372.561C606.266 363.384 613.773 355.668 623.158 355.668H773.107C782.283 355.668 790 363.176 790 372.561V426.158C790 435.335 782.283 442.842 773.107 442.842ZM623.158 357.753C615.025 357.753 608.351 364.427 608.351 372.561V426.158C608.351 434.292 615.025 440.965 623.158 440.965H773.107C781.24 440.965 787.914 434.292 787.914 426.158V372.561C787.914 364.427 781.24 357.753 773.107 357.753H623.158Z" fill="#4FB8FF"></path>
<path d="M645.474 411.977C653.421 411.977 659.864 405.535 659.864 397.587C659.864 389.64 653.421 383.197 645.474 383.197C637.526 383.197 631.084 389.64 631.084 397.587C631.084 405.535 637.526 411.977 645.474 411.977Z" fill="#9F8AFF"></path>
</svg>
