<svg width="200" height="150" viewBox="0 0 800 600" fill="none" xmlns="http://www.w3.org/2000/svg" data-reactroot="">
<path fill-rule="evenodd" clip-rule="evenodd" d="M747.784 137.566C753.604 143.207 757.709 150.334 758.059 160.836C758.41 171.351 754.604 178.971 748.494 184.978C742.432 190.939 734.11 195.304 725.448 199.412C723.732 200.225 722.003 201.029 720.273 201.833C713.213 205.113 706.136 208.402 699.869 212.419C692.088 217.406 685.677 223.446 682.229 231.824C676.828 244.947 674.612 254.855 674.831 264.026C675.05 273.197 677.707 281.728 682.221 292.11L680.351 292.923C675.796 282.445 673.022 273.631 672.793 264.074C672.564 254.518 674.883 244.316 680.344 231.048C684.012 222.137 690.798 215.812 698.769 210.703C705.164 206.603 712.401 203.241 719.472 199.956C721.187 199.159 722.893 198.367 724.574 197.57C733.241 193.46 741.274 189.218 747.064 183.525C752.807 177.878 756.351 170.796 756.021 160.904C755.691 151 751.86 144.355 746.365 139.03C741.995 134.796 736.613 131.424 731.023 127.923C729.498 126.967 727.956 126.001 726.416 125.006C719.293 120.403 712.279 115.205 707.489 107.484C702.681 99.7327 700.18 89.5505 701.848 75.0918L703.874 75.3255C702.247 89.4207 704.701 99.1215 709.222 106.409C713.76 113.726 720.447 118.721 727.523 123.294C729.002 124.249 730.502 125.189 732.002 126.128C737.619 129.645 743.243 133.167 747.784 137.566Z" fill="#9f8aff"></path>
<path d="M123.028 517.699C98.3496 468.634 112.672 396.731 164.386 378.235C197.746 366.303 225.83 396.788 260.062 405.921C307.035 418.452 355.535 413.158 371.996 434.809C397.312 468.109 358.462 510.226 321.33 540.616C260.463 590.431 155.784 582.822 123.028 517.699Z" fill="#4fb8ff"></path>
<path d="M177.288 478.061C186.572 478.061 194.098 470.535 194.098 461.251C194.098 451.967 186.572 444.441 177.288 444.441C168.004 444.441 160.478 451.967 160.478 461.251C160.478 470.535 168.004 478.061 177.288 478.061Z" fill="#F24E1E"></path>
<path d="M227.635 478.061C236.919 478.061 244.445 470.535 244.445 461.251C244.445 451.967 236.919 444.441 227.635 444.441C218.351 444.441 210.825 451.967 210.825 461.251C210.825 470.535 218.351 478.061 227.635 478.061Z" fill="#FF7262"></path>
<path d="M277.982 478.061C287.266 478.061 294.792 470.535 294.792 461.251C294.792 451.967 287.266 444.441 277.982 444.441C268.698 444.441 261.172 451.967 261.172 461.251C261.172 470.535 268.698 478.061 277.982 478.061Z" fill="#A259FF"></path>
<path d="M177.288 528.491C186.572 528.491 194.098 520.965 194.098 511.681C194.098 502.397 186.572 494.871 177.288 494.871C168.004 494.871 160.478 502.397 160.478 511.681C160.478 520.965 168.004 528.491 177.288 528.491Z" fill="#1ABCFE"></path>
<path d="M227.635 528.491C236.919 528.491 244.445 520.965 244.445 511.681C244.445 502.397 236.919 494.871 227.635 494.871C218.351 494.871 210.825 502.397 210.825 511.681C210.825 520.965 218.351 528.491 227.635 528.491Z" fill="#0ACF83"></path>
<path d="M277.982 528.491C287.266 528.491 294.792 520.965 294.792 511.681C294.792 502.397 287.266 494.871 277.982 494.871C268.698 494.871 261.172 502.397 261.172 511.681C261.172 520.965 268.698 528.491 277.982 528.491Z" fill="#EAF0FE"></path>
<path fill-rule="evenodd" clip-rule="evenodd" d="M292.03 441.28C293.566 442.804 293.577 445.284 292.053 446.82L282.33 456.626C280.806 458.162 278.326 458.173 276.79 456.649C275.253 455.126 275.243 452.646 276.766 451.109L286.49 441.304C288.013 439.767 290.493 439.757 292.03 441.28Z" fill="#461bc2"></path>
<path opacity="0.2" d="M357.172 391.407L361.786 384.898C369.779 387.205 379.503 386.463 383.458 382.425C389.226 376.657 386.589 364.709 377.608 355.727C368.626 346.746 356.678 344.191 350.909 349.877C346.872 353.915 346.13 363.556 348.437 371.548L341.928 376.163L357.172 391.407Z" fill="#9f8aff"></path>
<path fill-rule="evenodd" clip-rule="evenodd" d="M363.885 343.474C369.55 344.706 375.432 348.013 380.377 352.957C385.316 357.896 388.645 363.775 389.89 369.441C391.122 375.052 390.38 381.031 386.242 385.182C383.324 388.15 378.818 389.5 374.535 389.938C370.993 390.301 367.131 390.092 363.442 389.336L360.367 393.673C359.7 394.614 358.651 395.214 357.501 395.311C356.352 395.408 355.217 394.993 354.401 394.177L339.157 378.933C338.341 378.117 337.926 376.983 338.023 375.833C338.121 374.683 338.72 373.634 339.662 372.967L343.998 369.893C343.242 366.211 343.034 362.364 343.396 358.83C343.837 354.534 345.194 350.052 348.139 347.107L348.159 347.087C352.306 342.999 358.274 342.254 363.885 343.474ZM353.669 352.657C352.58 353.754 351.552 356.107 351.19 359.629C350.841 363.033 351.183 366.937 352.2 370.462C352.663 372.063 352.062 373.781 350.702 374.745L347.979 376.675L356.659 385.355L358.59 382.632C359.553 381.273 361.271 380.672 362.872 381.134C366.395 382.151 370.32 382.494 373.737 382.144C377.295 381.78 379.621 380.744 380.659 379.684L380.687 379.656C382.304 378.038 383.125 375.166 382.237 371.122C381.36 367.127 378.88 362.541 374.837 358.498C370.8 354.46 366.217 351.999 362.22 351.13C358.179 350.251 355.292 351.065 353.669 352.657Z" fill="#461bc2"></path>
<path opacity="0.83" d="M331.71 416.457L306.166 442.001L301.716 437.552L292.899 446.369L287.131 440.601L295.948 431.784L291.416 427.252L316.96 401.707L331.71 416.457Z" fill="#9f8aff"></path>
<path fill-rule="evenodd" clip-rule="evenodd" d="M314.189 398.938C315.719 397.409 318.2 397.409 319.73 398.938L334.479 413.688C336.009 415.218 336.009 417.699 334.479 419.228L308.935 444.773C307.405 446.303 304.925 446.303 303.395 444.773L301.715 443.093L295.668 449.14C294.138 450.67 291.658 450.67 290.128 449.14L284.36 443.372C283.625 442.637 283.213 441.641 283.213 440.602C283.213 439.563 283.625 438.567 284.36 437.832L290.407 431.785L288.645 430.023C287.115 428.493 287.115 426.013 288.645 424.483L314.189 398.938ZM296.955 427.253L298.717 429.015C299.452 429.75 299.865 430.746 299.865 431.785C299.865 432.824 299.452 433.82 298.717 434.555L292.67 440.602L292.898 440.83L298.945 434.783C300.475 433.253 302.955 433.253 304.485 434.783L306.165 436.463L326.169 416.458L316.959 407.249L296.955 427.253Z" fill="#461bc2"></path>
<path fill-rule="evenodd" clip-rule="evenodd" d="M359.693 388.472C361.223 390.001 361.223 392.482 359.693 394.012L335.22 418.485C333.69 420.015 331.21 420.015 329.68 418.485C328.15 416.955 328.15 414.475 329.68 412.945L354.153 388.472C355.683 386.942 358.163 386.942 359.693 388.472Z" fill="#461bc2"></path>
<path fill-rule="evenodd" clip-rule="evenodd" d="M345.026 373.724C346.556 375.253 346.556 377.734 345.026 379.264L320.553 403.737C319.023 405.267 316.542 405.267 315.013 403.737C313.483 402.207 313.483 399.727 315.013 398.197L339.486 373.724C341.016 372.194 343.496 372.194 345.026 373.724Z" fill="#461bc2"></path>
<path fill-rule="evenodd" clip-rule="evenodd" d="M329.929 364.741C331.459 363.211 333.939 363.211 335.469 364.741L369.418 398.691C370.948 400.22 370.948 402.701 369.418 404.231C367.889 405.761 365.408 405.761 363.878 404.231L329.929 370.281C328.399 368.751 328.399 366.271 329.929 364.741Z" fill="#461bc2"></path>
<path opacity="0.1" fill-rule="evenodd" clip-rule="evenodd" d="M380.316 411.624C385.642 413.406 390.94 416.476 395.145 420.358C399.345 424.235 401.885 428.381 402.437 432.016C402.983 435.615 401.583 439.072 397.113 440.806C393.957 442.053 389.455 442.036 385.27 441.511C381.81 441.078 378.107 440.242 374.634 439.109L373.055 440.04L379.329 445.831C380.63 447.032 380.346 448.523 378.694 449.161C377.043 449.799 374.649 449.343 373.348 448.142L367.224 442.489L344.059 451.44C343.923 451.492 343.783 451.537 343.638 451.575C343.521 451.638 343.394 451.697 343.258 451.749L315.68 462.405C314.028 463.043 311.634 462.587 310.333 461.386L308.905 460.067L302.376 462.59C300.725 463.228 298.331 462.771 297.03 461.57L296.87 461.423L288.647 464.636C287.001 465.28 284.606 464.83 283.298 463.631C281.99 462.433 282.264 460.94 283.91 460.297L292.158 457.074L292.124 457.042C291.499 456.466 291.215 455.791 291.334 455.166C291.453 454.542 291.965 454.019 292.759 453.712L299.287 451.19L297.788 449.807C296.487 448.606 296.771 447.115 298.423 446.477L326.002 435.821C326.2 435.744 326.409 435.683 326.625 435.638C326.707 435.598 326.792 435.561 326.882 435.527L350.002 426.594L344.474 421.491C343.173 420.29 343.457 418.799 345.108 418.161C346.76 417.523 349.154 417.979 350.455 419.18L356.029 424.324L358.097 423.846C357.789 421.493 358.029 419.143 358.784 417.085C359.701 414.584 361.524 412.139 364.703 410.911L364.725 410.903C369.195 409.209 375.04 409.858 380.316 411.624ZM354.714 430.943L333.739 439.047L341.537 446.244L362.512 438.14L354.714 430.943Z" fill="black"></path>
<path d="M282.047 348.574H235.972V356.621H282.047V348.574Z" fill="#F2F4FF"></path>
<path d="M282.047 361.699H235.972V369.746H282.047V361.699Z" fill="#F2F4FF"></path>
<path d="M229.267 306.332H161.065C151.677 306.332 144.014 298.764 144.014 289.281V110.154C144.014 100.767 151.582 93.1035 161.065 93.1035H229.267V306.332Z" fill="#9f8aff"></path>
<path d="M533.927 306.332H224.383C213.175 306.332 204.075 297.232 204.075 286.024V113.411C204.075 102.204 213.175 93.1035 224.383 93.1035H533.927C545.134 93.1035 554.234 102.204 554.234 113.411V286.024C554.234 297.232 545.134 306.332 533.927 306.332Z" fill="#461bc2"></path>
<path d="M365.518 213.146H338.403C333.924 213.146 330.325 209.546 330.325 205.067V203.947C330.325 199.468 333.924 195.869 338.403 195.869H365.518C369.997 195.869 373.596 199.468 373.596 203.947V205.067C373.596 209.546 369.997 213.146 365.518 213.146Z" fill="#F2F4FF"></path>
<path d="M417.907 213.146H390.793C386.314 213.146 382.715 209.546 382.715 205.067V203.947C382.715 199.468 386.314 195.869 390.793 195.869H417.907C422.386 195.869 425.986 199.468 425.986 203.947V205.067C425.986 209.546 422.386 213.146 417.907 213.146Z" fill="#F2F4FF"></path>
<path d="M470.216 213.146H443.101C438.622 213.146 435.023 209.546 435.023 205.067V203.947C435.023 199.468 438.622 195.869 443.101 195.869H470.216C474.695 195.869 478.294 199.468 478.294 203.947V205.067C478.294 209.546 474.695 213.146 470.216 213.146Z" fill="#F2F4FF"></path>
<path d="M522.605 213.146H495.491C491.012 213.146 487.413 209.546 487.413 205.067V203.947C487.413 199.468 491.012 195.869 495.491 195.869H522.605C527.084 195.869 530.684 199.468 530.684 203.947V205.067C530.684 209.546 527.004 213.146 522.605 213.146Z" fill="#F2F4FF"></path>
<path d="M301.972 176.919H225.915C221.987 176.919 218.73 173.758 218.73 169.734V120.882C218.73 116.954 221.892 113.697 225.915 113.697H301.972C305.899 113.697 309.156 116.858 309.156 120.882V169.734C309.06 173.662 305.899 176.919 301.972 176.919Z" fill="#9f8aff"></path>
<path fill-rule="evenodd" clip-rule="evenodd" d="M225.915 176.715H301.972C305.781 176.715 308.858 173.554 308.952 169.732V120.882C308.952 116.973 305.788 113.901 301.972 113.901H225.915C222.006 113.901 218.934 117.065 218.934 120.882V169.734C218.934 173.643 222.098 176.715 225.915 176.715ZM309.156 169.734V120.882C309.156 116.858 305.899 113.697 301.972 113.697H225.915C221.892 113.697 218.73 116.954 218.73 120.882V169.734C218.73 173.758 221.987 176.919 225.915 176.919H301.972C305.899 176.919 309.06 173.662 309.156 169.734Z" fill="#177E95"></path>
<path fill-rule="evenodd" clip-rule="evenodd" d="M268.541 133.145H227.256V131.414H268.541V133.145Z" fill="#461bc2"></path>
<path fill-rule="evenodd" clip-rule="evenodd" d="M274.576 137.36H227.256V135.629H274.576V137.36Z" fill="#461bc2"></path>
<path fill-rule="evenodd" clip-rule="evenodd" d="M274.576 141.575H227.256V139.844H274.576V141.575Z" fill="#461bc2"></path>
<path fill-rule="evenodd" clip-rule="evenodd" d="M300.632 133.145H283.006V131.414H300.632V133.145Z" fill="#461bc2"></path>
<path fill-rule="evenodd" clip-rule="evenodd" d="M300.632 137.36H283.006V135.629H300.632V137.36Z" fill="#461bc2"></path>
<path fill-rule="evenodd" clip-rule="evenodd" d="M300.632 141.575H283.006V139.844H300.632V141.575Z" fill="#461bc2"></path>
<path d="M300.631 150.576H227.256V153.169H300.631V150.576Z" fill="#461bc2"></path>
<path d="M257.621 169.551H231.566C229.172 169.551 227.256 167.635 227.256 165.24C227.256 162.845 229.172 160.93 231.566 160.93H257.621C260.016 160.93 261.932 162.845 261.932 165.24C261.932 167.539 260.016 169.551 257.621 169.551Z" fill="#461bc2"></path>
<path d="M414.908 176.919H338.851C334.924 176.919 331.667 173.758 331.667 169.734V120.882C331.667 116.954 334.828 113.697 338.851 113.697H414.908C418.836 113.697 422.093 116.858 422.093 120.882V169.734C422.093 173.662 418.836 176.919 414.908 176.919Z" fill="#9f8aff"></path>
<path fill-rule="evenodd" clip-rule="evenodd" d="M338.851 176.715H414.908C418.723 176.715 421.889 173.549 421.889 169.734V120.882C421.889 116.973 418.725 113.901 414.908 113.901H338.851C334.942 113.901 331.871 117.065 331.871 120.882V169.734C331.871 173.643 335.035 176.715 338.851 176.715ZM338.851 176.919H414.908C418.836 176.919 422.093 173.662 422.093 169.734V120.882C422.093 116.858 418.836 113.697 414.908 113.697H338.851C334.828 113.697 331.667 116.954 331.667 120.882V169.734C331.667 173.758 334.924 176.919 338.851 176.919Z" fill="#177E95"></path>
<path fill-rule="evenodd" clip-rule="evenodd" d="M381.574 133.145H340.192V131.414H381.574V133.145Z" fill="#461bc2"></path>
<path fill-rule="evenodd" clip-rule="evenodd" d="M387.513 137.36H340.192V135.629H387.513V137.36Z" fill="#461bc2"></path>
<path d="M370.558 169.551H344.503C342.108 169.551 340.192 167.635 340.192 165.24C340.192 162.845 342.108 160.93 344.503 160.93H370.558C372.953 160.93 374.868 162.845 374.868 165.24C374.868 167.539 372.953 169.551 370.558 169.551Z" fill="#461bc2"></path>
<path d="M527.845 176.919H451.788C447.86 176.919 444.604 173.758 444.604 169.734V120.882C444.604 116.954 447.765 113.697 451.788 113.697H527.845C531.772 113.697 535.029 116.858 535.029 120.882V169.734C535.029 173.662 531.772 176.919 527.845 176.919Z" fill="#9f8aff"></path>
<path fill-rule="evenodd" clip-rule="evenodd" d="M451.788 176.715H527.845C531.66 176.715 534.825 173.549 534.825 169.734V120.882C534.825 116.973 531.661 113.901 527.845 113.901H451.788C447.879 113.901 444.807 117.065 444.807 120.882V169.734C444.807 173.643 447.971 176.715 451.788 176.715ZM451.788 176.919H527.845C531.772 176.919 535.029 173.662 535.029 169.734V120.882C535.029 116.858 531.772 113.697 527.845 113.697H451.788C447.765 113.697 444.604 116.954 444.604 120.882V169.734C444.604 173.758 447.86 176.919 451.788 176.919Z" fill="#177E95"></path>
<path d="M469.92 122.127H453.129V125.767H469.92V122.127Z" fill="#461bc2"></path>
<path d="M356.984 122.127H340.192V125.767H356.984V122.127Z" fill="#461bc2"></path>
<path d="M244.047 122.127H227.256V125.767H244.047V122.127Z" fill="#461bc2"></path>
<path fill-rule="evenodd" clip-rule="evenodd" d="M494.51 133.145H453.129V131.414H494.51V133.145Z" fill="#461bc2"></path>
<path fill-rule="evenodd" clip-rule="evenodd" d="M500.449 137.36H453.129V135.629H500.449V137.36Z" fill="#461bc2"></path>
<path opacity="0.5" fill-rule="evenodd" clip-rule="evenodd" d="M526.599 155.859C526.599 156.422 526.143 156.879 525.58 156.879H454.148C453.585 156.879 453.129 156.422 453.129 155.859V142.43C453.129 141.867 453.585 141.41 454.148 141.41H525.58C526.143 141.41 526.599 141.867 526.599 142.43V155.859Z" fill="#461bc2"></path>
<path d="M483.494 169.551H457.439C455.044 169.551 453.129 167.635 453.129 165.24C453.129 162.845 455.044 160.93 457.439 160.93H483.494C485.889 160.93 487.805 162.845 487.805 165.24C487.805 167.539 485.889 169.551 483.494 169.551Z" fill="#461bc2"></path>
<path fill-rule="evenodd" clip-rule="evenodd" d="M362.783 144.741H345.158V143.01H362.783V144.741Z" fill="#461bc2"></path>
<path fill-rule="evenodd" clip-rule="evenodd" d="M385.693 144.741H368.068V143.01H385.693V144.741Z" fill="#461bc2"></path>
<path fill-rule="evenodd" clip-rule="evenodd" d="M408.603 144.741H390.977V143.01H408.603V144.741Z" fill="#461bc2"></path>
<path fill-rule="evenodd" clip-rule="evenodd" d="M362.783 148.956H345.158V147.225H362.783V148.956Z" fill="#461bc2"></path>
<path fill-rule="evenodd" clip-rule="evenodd" d="M385.693 148.956H368.068V147.225H385.693V148.956Z" fill="#461bc2"></path>
<path fill-rule="evenodd" clip-rule="evenodd" d="M408.603 148.956H390.977V147.225H408.603V148.956Z" fill="#461bc2"></path>
<path fill-rule="evenodd" clip-rule="evenodd" d="M362.783 153.17H345.158V151.439H362.783V153.17Z" fill="#461bc2"></path>
<path fill-rule="evenodd" clip-rule="evenodd" d="M385.693 153.17H368.068V151.439H385.693V153.17Z" fill="#461bc2"></path>
<path fill-rule="evenodd" clip-rule="evenodd" d="M408.603 153.17H390.977V151.439H408.603V153.17Z" fill="#461bc2"></path>
<path d="M296.99 339.668H238.271C234.152 339.668 230.8 336.316 230.8 332.197V198.091C230.8 193.972 234.152 190.619 238.271 190.619H296.99C301.109 190.619 304.462 193.972 304.462 198.091V332.197C304.558 336.316 301.205 339.668 296.99 339.668Z" fill="white"></path>
<path d="M285.974 272.424H235.971V280.47H285.974V272.424Z" fill="#F2F4FF"></path>
<path d="M275.628 320.797H235.971V328.843H275.628V320.797Z" fill="#9f8aff"></path>
<path d="M292.583 300.49H235.971V315.721H292.583V300.49Z" fill="#F2F4FF"></path>
<path d="M291.816 260.738H243.442C240.281 260.738 237.791 258.152 237.791 255.086V204.222C237.791 201.061 240.377 198.57 243.442 198.57H291.816C294.977 198.57 297.468 201.157 297.468 204.222V255.086C297.564 258.152 294.977 260.738 291.816 260.738Z" fill="#9f8aff"></path>
<path opacity="0.35" d="M195.454 122.607H154.743V127.972H195.454V122.607Z" fill="black" fill-opacity="0.25"></path>
<path opacity="0.35" d="M195.454 135.826H154.743V141.19H195.454V135.826Z" fill="black" fill-opacity="0.25"></path>
<path opacity="0.35" d="M195.454 149.045H154.743V154.409H195.454V149.045Z" fill="black" fill-opacity="0.25"></path>
<path opacity="0.35" d="M195.454 162.264H154.743V167.628H195.454V162.264Z" fill="black" fill-opacity="0.25"></path>
<path opacity="0.35" d="M195.454 240.045H154.743V245.409H195.454V240.045Z" fill="black" fill-opacity="0.25"></path>
<path opacity="0.35" d="M195.454 253.264H154.743V258.628H195.454V253.264Z" fill="black" fill-opacity="0.25"></path>
<path opacity="0.35" d="M195.454 266.482H154.743V271.847H195.454V266.482Z" fill="black" fill-opacity="0.25"></path>
<path opacity="0.35" d="M195.454 279.701H154.743V285.065H195.454V279.701Z" fill="black" fill-opacity="0.25"></path>
<path d="M290.669 245.314C289.712 244.356 288.083 244.356 287.125 245.314L285.88 246.559L284.635 245.314C283.677 244.356 282.048 244.356 281.09 245.314C280.133 246.272 280.133 247.9 281.09 248.858L282.336 250.104L285.88 253.648L289.424 250.104L290.669 248.858C291.627 247.805 291.627 246.272 290.669 245.314Z" fill="#FCFCFC"></path>
<path d="M359.595 276.695H335.867C333.54 276.695 331.667 274.821 331.667 272.494V234.802C331.667 232.475 333.54 230.602 335.867 230.602H359.595C361.922 230.602 363.796 232.475 363.796 234.802V272.494C363.796 274.765 361.922 276.695 359.595 276.695Z" fill="#9f8aff"></path>
<path d="M382.148 232.668H371.117V234.304H382.148V232.668Z" fill="#9f8aff"></path>
<path d="M382.148 236.311H371.117V237.947H382.148V236.311Z" fill="#9f8aff"></path>
<path d="M382.148 239.951H371.117V241.587H382.148V239.951Z" fill="#9f8aff"></path>
<path d="M382.148 249.189H371.117V250.826H382.148V249.189Z" fill="#9f8aff"></path>
<path d="M382.148 252.83H371.117V254.466H382.148V252.83Z" fill="#9f8aff"></path>
<path d="M382.148 256.473H371.117V258.109H382.148V256.473Z" fill="#9f8aff"></path>
<path d="M382.148 265.709H371.117V267.345H382.148V265.709Z" fill="#9f8aff"></path>
<path d="M382.148 269.352H371.117V270.988H382.148V269.352Z" fill="#9f8aff"></path>
<path d="M382.148 272.992H371.117V274.628H382.148V272.992Z" fill="#9f8aff"></path>
<path d="M360.104 268.748C359.537 268.18 358.572 268.18 358.004 268.748L357.266 269.486L356.528 268.748C355.961 268.18 354.996 268.18 354.428 268.748C353.86 269.316 353.86 270.281 354.428 270.848L355.166 271.586L357.266 273.687L359.366 271.586L360.104 270.848C360.672 270.281 360.672 269.372 360.104 268.748Z" fill="#FCFCFC"></path>
<path d="M417.557 50.0273H81.4729V75.7153H417.557V50.0273Z" fill="#9f8aff"></path>
<path d="M107.57 56.0352H91.9736V58.2684H107.57V56.0352Z" fill="#461bc2"></path>
<path d="M107.57 61.7031H91.9741V63.9363H107.57V61.7031Z" fill="#461bc2"></path>
<path d="M107.57 67.373H91.9741V69.6063H107.57V67.373Z" fill="#461bc2"></path>
<path opacity="0.35" d="M149.372 55.0234H133.776V70.6197H149.372V55.0234Z" fill="black" fill-opacity="0.25"></path>
<path opacity="0.35" d="M194.528 55.0234H178.932V70.6197H194.528V55.0234Z" fill="black" fill-opacity="0.25"></path>
<path opacity="0.35" d="M239.687 55.0234H224.091V70.6197H239.687V55.0234Z" fill="black" fill-opacity="0.25"></path>
<path opacity="0.35" d="M284.846 55.0234H269.25V70.6197H284.846V55.0234Z" fill="black" fill-opacity="0.25"></path>
<path d="M438.046 50.0273H426.731V75.7153H438.046V50.0273Z" fill="#9f8aff"></path>
<path d="M458.537 50.0273H447.222V75.7153H458.537V50.0273Z" fill="#9f8aff"></path>
<path fill-rule="evenodd" clip-rule="evenodd" d="M467.302 52.4744C467.302 51.6299 467.986 50.9453 468.831 50.9453H539.167C540.011 50.9453 540.696 51.6299 540.696 52.4744C540.696 53.3188 540.011 54.0034 539.167 54.0034H468.831C467.986 54.0034 467.302 53.3188 467.302 52.4744Z" fill="#9f8aff"></path>
<path fill-rule="evenodd" clip-rule="evenodd" d="M491.868 36.1638C491.868 35.3193 492.552 34.6348 493.397 34.6348H525.609C526.453 34.6348 527.138 35.3193 527.138 36.1638C527.138 37.0083 526.453 37.6929 525.609 37.6929H493.397C492.552 37.6929 491.868 37.0083 491.868 36.1638Z" fill="#9f8aff"></path>
<path fill-rule="evenodd" clip-rule="evenodd" d="M467.302 36.1638C467.302 35.3193 467.986 34.6348 468.831 34.6348H484.427C485.272 34.6348 485.956 35.3193 485.956 36.1638C485.956 37.0083 485.272 37.6929 484.427 37.6929H468.831C467.986 37.6929 467.302 37.0083 467.302 36.1638Z" fill="#9f8aff"></path>
<path fill-rule="evenodd" clip-rule="evenodd" d="M491.868 28.0095C491.868 27.165 492.553 26.4805 493.397 26.4805H525.609C526.454 26.4805 527.138 27.165 527.138 28.0095C527.138 28.854 526.454 29.5386 525.609 29.5386H493.397C492.553 29.5386 491.868 28.854 491.868 28.0095Z" fill="#66F7DD"></path>
<path fill-rule="evenodd" clip-rule="evenodd" d="M467.302 28.0095C467.302 27.165 467.987 26.4805 468.831 26.4805H484.428C485.272 26.4805 485.957 27.165 485.957 28.0095C485.957 28.854 485.272 29.5386 484.428 29.5386H468.831C467.987 29.5386 467.302 28.854 467.302 28.0095Z" fill="#66F7DD"></path>
<path fill-rule="evenodd" clip-rule="evenodd" d="M509.197 44.3201C509.197 43.4756 509.881 42.791 510.726 42.791H525.609C526.453 42.791 527.138 43.4756 527.138 44.3201C527.138 45.1645 526.453 45.8491 525.609 45.8491H510.726C509.881 45.8491 509.197 45.1645 509.197 44.3201Z" fill="#9f8aff"></path>
<path fill-rule="evenodd" clip-rule="evenodd" d="M467.302 44.3201C467.302 43.4756 467.986 42.791 468.831 42.791H501.96C502.805 42.791 503.489 43.4756 503.489 44.3201C503.489 45.1645 502.805 45.8491 501.96 45.8491H468.831C467.986 45.8491 467.302 45.1645 467.302 44.3201Z" fill="#9f8aff"></path>
<g filter="url(#filter0_d)">
<path d="M539.168 75.6136H469.953C468.73 75.6136 467.608 74.5942 467.608 73.269V62.9734C467.608 61.7502 468.628 60.6289 469.953 60.6289H539.168C540.391 60.6289 541.512 61.6483 541.512 62.9734V73.371C541.41 74.5942 540.391 75.6136 539.168 75.6136Z" fill="#461bc2"></path>
</g>
<path fill-rule="evenodd" clip-rule="evenodd" d="M85.6523 40.8531C87.3975 40.8531 88.8123 39.4383 88.8123 37.6931C88.8123 35.9478 87.3975 34.533 85.6523 34.533C83.9071 34.533 82.4923 35.9478 82.4923 37.6931C82.4923 39.4383 83.9071 40.8531 85.6523 40.8531ZM89.8317 37.6931C89.8317 40.0013 87.9605 41.8725 85.6523 41.8725C83.3441 41.8725 81.4729 40.0013 81.4729 37.6931C81.4729 35.3848 83.3441 33.5137 85.6523 33.5137C87.9605 33.5137 89.8317 35.3848 89.8317 37.6931Z" fill="#461bc2"></path>
<path fill-rule="evenodd" clip-rule="evenodd" d="M98.1916 40.8531C99.9368 40.8531 101.352 39.4383 101.352 37.6931C101.352 35.9478 99.9368 34.533 98.1916 34.533C96.4464 34.533 95.0316 35.9478 95.0316 37.6931C95.0316 39.4383 96.4464 40.8531 98.1916 40.8531ZM102.371 37.6931C102.371 40.0013 100.5 41.8725 98.1916 41.8725C95.8834 41.8725 94.0122 40.0013 94.0122 37.6931C94.0122 35.3848 95.8834 33.5137 98.1916 33.5137C100.5 33.5137 102.371 35.3848 102.371 37.6931Z" fill="#461bc2"></path>
<path fill-rule="evenodd" clip-rule="evenodd" d="M111.035 40.8531C112.78 40.8531 114.195 39.4383 114.195 37.6931C114.195 35.9478 112.78 34.533 111.035 34.533C109.29 34.533 107.875 35.9478 107.875 37.6931C107.875 39.4383 109.29 40.8531 111.035 40.8531ZM115.215 37.6931C115.215 40.0013 113.343 41.8725 111.035 41.8725C108.727 41.8725 106.856 40.0013 106.856 37.6931C106.856 35.3848 108.727 33.5137 111.035 33.5137C113.343 33.5137 115.215 35.3848 115.215 37.6931Z" fill="#461bc2"></path>
<path opacity="0.64" d="M186.454 215.522H11.3269C10.6133 215.522 10.0017 214.911 10.0017 214.197V185.757C10.0017 185.043 10.6133 184.432 11.3269 184.432H186.454C187.167 184.432 187.779 185.043 187.779 185.757V214.197C187.779 214.911 187.167 215.522 186.454 215.522Z" fill="#4fb8ff"></path>
<path fill-rule="evenodd" clip-rule="evenodd" d="M153.548 195.644C154.169 196.36 155.034 197.274 156.08 198.184C158.379 200.181 161.224 201.865 164.129 201.865C167.034 201.865 169.879 200.181 172.178 198.184C173.224 197.274 174.088 196.36 174.71 195.644C174.088 194.929 173.224 194.014 172.178 193.105C169.879 191.107 167.034 189.424 164.129 189.424C161.224 189.424 158.379 191.107 156.08 193.105C155.034 194.014 154.169 194.929 153.548 195.644ZM177.584 195.644C179.41 194.346 179.41 194.346 179.41 194.345L179.406 194.341L179.4 194.332L179.381 194.305C179.365 194.283 179.343 194.254 179.316 194.217C179.261 194.142 179.183 194.039 179.083 193.91C178.884 193.652 178.596 193.292 178.229 192.864C177.497 192.011 176.436 190.87 175.117 189.723C172.548 187.49 168.665 184.943 164.129 184.943C159.592 184.943 155.71 187.49 153.141 189.723C151.821 190.87 150.76 192.011 150.028 192.864C149.661 193.292 149.374 193.652 149.174 193.91C149.075 194.039 148.997 194.142 148.942 194.217C148.914 194.254 148.893 194.283 148.877 194.305L148.858 194.332L148.851 194.341L148.848 194.345C148.848 194.346 148.847 194.346 150.673 195.644L148.847 194.346L147.925 195.644L148.847 196.942L150.673 195.644C148.847 196.942 148.848 196.943 148.848 196.944L148.851 196.948L148.858 196.957L148.877 196.984C148.893 197.005 148.914 197.035 148.942 197.072C148.997 197.146 149.075 197.25 149.174 197.379C149.374 197.636 149.661 197.996 150.028 198.425C150.76 199.278 151.821 200.419 153.141 201.566C155.71 203.798 159.592 206.345 164.129 206.345C168.665 206.345 172.548 203.798 175.117 201.566C176.436 200.419 177.497 199.278 178.229 198.425C178.596 197.996 178.884 197.636 179.083 197.379C179.183 197.25 179.261 197.146 179.316 197.072C179.343 197.035 179.365 197.005 179.381 196.984L179.4 196.957L179.406 196.948L179.409 196.945L179.41 196.944C179.41 196.943 179.41 196.942 177.584 195.644ZM177.584 195.644L179.41 196.942L180.333 195.644L179.41 194.346L177.584 195.644ZM152.497 196.945C152.497 196.946 152.497 196.945 152.497 196.945V196.945ZM152.498 194.344C152.497 194.344 152.497 194.343 152.498 194.344V194.344ZM175.76 196.945C175.76 196.945 175.761 196.945 175.76 196.945V196.945Z" fill="#461bc2"></path>
<path d="M164.129 200.129C166.606 200.129 168.614 198.121 168.614 195.643C168.614 193.166 166.606 191.158 164.129 191.158C161.652 191.158 159.644 193.166 159.644 195.643C159.644 198.121 161.652 200.129 164.129 200.129Z" fill="#461bc2"></path>
<path fill-rule="evenodd" clip-rule="evenodd" d="M13.5696 180.049L14.0793 179.539H191.856L192.366 180.049V211.139L191.856 211.649H14.0793L13.5696 211.139V180.049ZM14.5889 180.558V210.63H191.347V180.558H14.5889Z" fill="#0F6FFF"></path>
<path d="M40.7852 417.154H38.6445V435.197H40.7852V417.154Z" fill="#461bc2"></path>
<path d="M49.3475 417.154H47.2068V435.197H49.3475V417.154Z" fill="#461bc2"></path>
<path d="M53.0403 422.998V420.857H34.9975V422.998H53.0403Z" fill="#461bc2"></path>
<path d="M52.9866 431.609V429.469H34.9438V431.609H52.9866Z" fill="#461bc2"></path>
<path d="M22.6421 422.863V429.591L26.8215 426.227L22.6421 422.863Z" fill="#461bc2"></path>
<path d="M91.3733 422.965H61.8877V429.387H91.3733V422.965Z" fill="#461bc2"></path>
<path d="M40.7859 455.584H38.6453V473.627H40.7859V455.584Z" fill="#461bc2"></path>
<path d="M49.3482 455.584H47.2075V473.627H49.3482V455.584Z" fill="#461bc2"></path>
<path d="M53.032 461.42V459.279H34.9892V461.42H53.032Z" fill="#461bc2"></path>
<path d="M53.0818 470.031V467.891H35.039V470.031H53.0818Z" fill="#461bc2"></path>
<path d="M22.6421 461.293V468.021L26.8215 464.657L22.6421 461.293Z" fill="#461bc2"></path>
<path d="M85.4916 461.393H61.8877V467.815H85.4916V461.393Z" fill="#461bc2"></path>
<path d="M40.7879 186.572H38.6472V204.615H40.7879V186.572Z" fill="#9f8aff"></path>
<path d="M49.3501 186.572H47.2095V204.615H49.3501V186.572Z" fill="#9f8aff"></path>
<path d="M53.0237 192.398V190.258H34.9809V192.398H53.0237Z" fill="#9f8aff"></path>
<path d="M53.0735 201.01V198.869H35.0307V201.01H53.0735Z" fill="#9f8aff"></path>
<path d="M22.6421 192.281V199.009L26.8215 195.645L22.6421 192.281Z" fill="#9f8aff"></path>
<path d="M93.5899 192.383H61.8877V198.805H93.5899V192.383Z" fill="#9f8aff"></path>
<path d="M40.7857 225.002H38.645V243.045H40.7857V225.002Z" fill="#461bc2"></path>
<path d="M49.3479 225.002H47.2073V243.045H49.3479V225.002Z" fill="#461bc2"></path>
<path d="M53.0134 230.82V228.68H34.9707V230.82H53.0134Z" fill="#461bc2"></path>
<path d="M53.0632 239.432V237.291H35.0205V239.432H53.0632Z" fill="#461bc2"></path>
<path d="M22.6421 230.711V237.439L26.8215 234.075L22.6421 230.711Z" fill="#461bc2"></path>
<path d="M149.349 230.812H61.8877V237.234H149.349V230.812Z" fill="#461bc2"></path>
<path d="M40.7854 263.432H38.6448V281.474H40.7854V263.432Z" fill="#461bc2"></path>
<path d="M49.3477 263.432H47.207V281.474H49.3477V263.432Z" fill="#461bc2"></path>
<path d="M53.0051 269.24V267.1H34.9624V269.24H53.0051Z" fill="#461bc2"></path>
<path d="M53.0549 277.852V275.711H35.0122V277.852H53.0549Z" fill="#461bc2"></path>
<path d="M22.6421 269.141V275.868L26.8215 272.505L22.6421 269.141Z" fill="#461bc2"></path>
<path d="M109.696 269.242H61.8877V275.664H109.696V269.242Z" fill="#461bc2"></path>
<path d="M40.7874 301.863H38.6467V319.906H40.7874V301.863Z" fill="#461bc2"></path>
<path d="M49.3496 301.863H47.209V319.906H49.3496V301.863Z" fill="#461bc2"></path>
<path d="M52.9968 307.664V305.523H34.9541V307.664H52.9968Z" fill="#461bc2"></path>
<path d="M53.0466 316.275V314.135H35.0039V316.275H53.0466Z" fill="#461bc2"></path>
<path d="M22.6421 307.572V314.3L26.8215 310.936L22.6421 307.572Z" fill="#461bc2"></path>
<path d="M91.7551 307.674H61.8877V314.096H91.7551V307.674Z" fill="#461bc2"></path>
<path d="M40.7852 340.293H38.6445V358.336H40.7852V340.293Z" fill="#461bc2"></path>
<path d="M49.3475 340.293H47.2068V358.336H49.3475V340.293Z" fill="#461bc2"></path>
<path d="M52.9866 346.084V343.943H34.9438V346.084H52.9866Z" fill="#461bc2"></path>
<path d="M53.0364 354.695V352.555H34.9936V354.695H53.0364Z" fill="#461bc2"></path>
<path d="M22.6421 346.002V352.628L26.8215 349.366L22.6421 346.002Z" fill="#461bc2"></path>
<path d="M166.271 346.104H61.8877V352.525H166.271V346.104Z" fill="#461bc2"></path>
<path d="M40.7859 378.723H38.6453V396.765H40.7859V378.723Z" fill="#461bc2"></path>
<path d="M49.3482 378.723H47.2075V396.765H49.3482V378.723Z" fill="#461bc2"></path>
<path d="M53.0815 384.506V382.365H35.0388V384.506H53.0815Z" fill="#461bc2"></path>
<path d="M53.0278 393.117V390.977H34.9851V393.117H53.0278Z" fill="#461bc2"></path>
<path d="M22.6421 384.33V391.058L26.8215 387.694L22.6421 384.33Z" fill="#461bc2"></path>
<path d="M109.696 384.533H61.8877V390.955H109.696V384.533Z" fill="#461bc2"></path>
<path d="M693.066 467.693H666.251C646.962 467.693 631.359 448.921 631.359 425.716V326.385C631.359 303.18 646.962 284.408 666.251 284.408H693.066C712.355 284.408 727.958 303.18 727.958 326.385V425.716C727.958 448.921 712.355 467.693 693.066 467.693Z" fill="#461bc2"></path>
<path d="M679.66 394.964C670.8 394.964 663.508 386.286 663.508 375.532V284.408H695.734V375.532C695.812 386.286 688.598 394.964 679.66 394.964Z" fill="black" fill-opacity="0.6"></path>
<path fill-rule="evenodd" clip-rule="evenodd" d="M673.562 299.28C680.01 298.511 685.989 301.998 688.726 307.523C689.729 305.643 691.18 303.966 693.047 302.664C699.357 298.266 708.038 299.815 712.437 306.124L723.098 321.418L727.995 342.56L732.437 343.85L753.211 365.189L752.541 372.886L764.872 385.526L759.562 421.104L757.407 442.362C756.734 448.046 755.088 453.731 752.471 458.891C745.814 471.981 732.8 498.009 729.733 507.433C727.433 516.366 729.762 526.446 731.439 533.707C732.107 536.6 734.104 540.422 731.439 542.722C701.158 568.852 648.284 564.293 653.817 540.792C659.349 517.29 653.914 505.198 647.029 489.881C645.239 485.899 643.351 481.699 641.533 477.024C640.46 475.566 639.624 473.896 639.094 472.055L631.148 444.399L625.769 404.447V403.394C625.769 369.062 633.543 357.875 645.241 358.958C662.16 360.523 659.858 378.913 658.205 392.125C657.913 394.451 657.642 396.616 657.5 398.501C657.394 399.902 657.31 401.102 657.253 402.036C657.239 402.26 657.228 402.453 657.219 402.617C658.623 413.042 662.717 429.447 668.164 419.997C668.166 419.848 668.171 419.699 668.177 419.549V419.325L671.113 370.984L662.717 335.929L662.493 334.957L662.418 334.059L660.324 315.884C659.351 307.657 665.335 300.177 673.562 299.28ZM692.327 329.227L691.82 325.257L697.175 332.939L702.203 354.641L701.327 364.591L692.327 329.227Z" fill="#4fb8ff"></path>
<path fill-rule="evenodd" clip-rule="evenodd" d="M639.177 367.967C639.413 368.036 639.549 368.283 639.48 368.519C638.733 371.083 637.488 375.099 636.178 378.816C635.523 380.674 634.85 382.463 634.214 383.961C633.583 385.447 632.973 386.683 632.439 387.409C631.879 388.172 631.182 388.609 630.423 388.791C629.674 388.972 628.893 388.899 628.156 388.697C626.69 388.294 625.302 387.353 624.469 386.615C624.285 386.452 624.268 386.17 624.431 385.986C624.594 385.802 624.876 385.785 625.06 385.948C625.832 386.631 627.101 387.483 628.392 387.837C629.033 388.013 629.655 388.06 630.214 387.925C630.764 387.792 631.282 387.479 631.721 386.881C632.188 386.246 632.763 385.097 633.394 383.612C634.02 382.139 634.686 380.369 635.337 378.52C636.64 374.821 637.881 370.822 638.624 368.27C638.693 368.034 638.94 367.898 639.177 367.967Z" fill="#461bc2"></path>
<path fill-rule="evenodd" clip-rule="evenodd" d="M694.052 340.295C694.286 340.219 694.537 340.348 694.613 340.582L705.08 372.826L702.269 400.359C702.244 400.604 702.026 400.783 701.781 400.758C701.536 400.733 701.358 400.514 701.383 400.269L704.175 372.923L693.765 340.857C693.689 340.623 693.817 340.371 694.052 340.295Z" fill="#461bc2"></path>
<path fill-rule="evenodd" clip-rule="evenodd" d="M722.943 323.391C723.178 323.319 723.428 323.451 723.5 323.686L736.703 366.596L734.105 389.746C734.077 389.991 733.857 390.167 733.612 390.139C733.367 390.112 733.191 389.891 733.219 389.646L735.797 366.681L722.648 323.948C722.576 323.713 722.708 323.463 722.943 323.391Z" fill="#461bc2"></path>
<path d="M53.935 135.35H38.6445V150.64H53.935V135.35Z" fill="#461bc2"></path>
<path d="M76.2595 135.35H60.969V150.64H76.2595V135.35Z" fill="#461bc2"></path>
<path d="M98.582 135.35H83.2915V150.64H98.582V135.35Z" fill="#461bc2"></path>
<path d="M120.703 135.35H105.413V150.64H120.703V135.35Z" fill="#461bc2"></path>
<path d="M53.9357 112.006H38.6453V127.296H53.9357V112.006Z" fill="#461bc2"></path>
<path d="M76.2595 112.006H60.969V127.296H76.2595V112.006Z" fill="#461bc2"></path>
<path d="M98.582 112.006H83.2915V127.296H98.582V112.006Z" fill="#461bc2"></path>
<path d="M579.745 352.212C582.761 352.212 585.206 349.767 585.206 346.751L585.206 291.929C585.206 288.913 582.761 286.469 579.745 286.469L579.199 286.469C576.183 286.469 573.739 288.913 573.739 291.929L573.739 346.751C573.739 349.767 576.183 352.212 579.199 352.212L579.745 352.212Z" fill="#4fb8ff"></path>
<path d="M421.696 388.682C424.712 388.682 427.156 386.238 427.156 383.222L427.156 328.4C427.156 325.384 424.712 322.939 421.696 322.939L421.15 322.939C418.134 322.939 415.689 325.384 415.689 328.4L415.689 383.222C415.689 386.238 418.134 388.682 421.15 388.682L421.696 388.682Z" fill="#4fb8ff"></path>
<path d="M421.696 457.784C424.712 457.784 427.156 455.339 427.156 452.324L427.156 397.501C427.156 394.486 424.712 392.041 421.696 392.041L421.15 392.041C418.134 392.041 415.689 394.486 415.689 397.501L415.689 452.324C415.689 455.339 418.134 457.784 421.15 457.784L421.696 457.784Z" fill="#4fb8ff"></path>
<path d="M419.623 247.79C419.623 241.759 424.512 236.869 430.543 236.869H570.736C576.767 236.869 581.657 241.759 581.657 247.79V544.48C581.657 550.511 576.767 555.401 570.736 555.401H430.543C424.512 555.401 419.623 550.511 419.623 544.48V247.79Z" fill="#9f8aff"></path>
<path d="M438.248 271.433C438.248 264.798 443.626 259.42 450.261 259.42H548.537C555.172 259.42 560.55 264.798 560.55 271.433V327.052C560.55 333.687 555.172 339.065 548.537 339.065H450.261C443.626 339.065 438.248 333.687 438.248 327.052V271.433Z" fill="#F2F4FF"></path>
<path d="M438.248 362.363C438.248 358.744 441.181 355.811 444.8 355.811H487.374C490.993 355.811 493.926 358.744 493.926 362.363V400.685C493.926 404.304 490.993 407.238 487.374 407.238H444.8C441.181 407.238 438.248 404.304 438.248 400.685V362.363Z" fill="#F2F4FF"></path>
<path d="M438.248 423.336C438.248 419.717 441.181 416.783 444.8 416.783H487.374C490.993 416.783 493.926 419.717 493.926 423.336V461.658C493.926 465.277 490.993 468.21 487.374 468.21H444.8C441.181 468.21 438.248 465.277 438.248 461.658V423.336Z" fill="#F2F4FF"></path>
<path d="M438.248 484.308C438.248 480.689 441.181 477.756 444.8 477.756H487.374C490.993 477.756 493.926 480.689 493.926 484.308V514.307H438.248V484.308Z" fill="#F2F4FF"></path>
<path d="M505.858 362.363C505.858 358.744 508.792 355.811 512.411 355.811H554.985C558.603 355.811 561.537 358.744 561.537 362.363V400.685C561.537 404.304 558.603 407.238 554.985 407.238H512.411C508.792 407.238 505.858 404.304 505.858 400.685V362.363Z" fill="#F2F4FF"></path>
<path d="M505.858 423.336C505.858 419.717 508.792 416.783 512.411 416.783H554.985C558.603 416.783 561.537 419.717 561.537 423.336V461.658C561.537 465.277 558.603 468.21 554.985 468.21H512.411C508.792 468.21 505.858 465.277 505.858 461.658V423.336Z" fill="#F2F4FF"></path>
<path d="M505.858 484.308C505.858 480.689 508.792 477.756 512.411 477.756H554.985C558.603 477.756 561.537 480.689 561.537 484.308V514.307H505.858V484.308Z" fill="#F2F4FF"></path>
<path d="M488.258 391.309C487.065 390.116 485.036 390.116 483.843 391.309L482.292 392.86L480.741 391.309C479.547 390.116 477.519 390.116 476.326 391.309C475.133 392.502 475.133 394.531 476.326 395.724L477.877 397.275L482.292 401.69L486.707 397.275L488.258 395.724C489.451 394.531 489.451 392.502 488.258 391.309Z" fill="#461bc2"></path>
<path d="M488.258 453.932C487.065 452.739 485.036 452.739 483.843 453.932L482.292 455.483L480.741 453.932C479.547 452.739 477.519 452.739 476.326 453.932C475.133 455.125 475.133 457.154 476.326 458.347L477.877 459.898L482.292 464.313L486.707 459.898L488.258 458.347C489.451 457.154 489.451 455.125 488.258 453.932Z" fill="#DADFF7"></path>
<path d="M555.868 391.309C554.675 390.116 552.647 390.116 551.453 391.309L549.902 392.86L548.351 391.309C547.158 390.116 545.129 390.116 543.936 391.309C542.743 392.502 542.743 394.531 543.936 395.724L545.487 397.275L549.902 401.69L554.317 397.275L555.868 395.724C557.061 394.531 557.061 392.502 555.868 391.309Z" fill="#DADFF7"></path>
<path d="M555.868 453.932C554.675 452.739 552.647 452.739 551.453 453.932L549.902 455.483L548.351 453.932C547.158 452.739 545.129 452.739 543.936 453.932C542.743 455.125 542.743 457.154 543.936 458.347L545.487 459.898L549.902 464.313L554.317 459.898L555.868 458.347C557.061 457.154 557.061 455.125 555.868 453.932Z" fill="#DADFF7"></path>
<path fill-rule="evenodd" clip-rule="evenodd" d="M467.144 273.74C458.19 273.74 450.932 280.999 450.932 289.953C450.932 298.906 458.19 306.165 467.144 306.165C476.097 306.165 483.356 298.906 483.356 289.953C483.356 280.999 476.097 273.74 467.144 273.74ZM448.529 289.953C448.529 279.672 456.863 271.338 467.144 271.338C477.424 271.338 485.758 279.672 485.758 289.953C485.758 300.233 477.424 308.567 467.144 308.567C456.863 308.567 448.529 300.233 448.529 289.953Z" fill="#4fb8ff"></path>
<path fill-rule="evenodd" clip-rule="evenodd" d="M453.281 301.293C455.624 295.964 460.938 292.234 467.145 292.234C473.351 292.234 478.665 295.964 481.008 301.293L481.326 302.016L480.789 302.594C477.387 306.256 472.546 308.568 467.145 308.568C461.743 308.568 456.902 306.256 453.5 302.594L452.963 302.016L453.281 301.293ZM455.825 301.538C458.755 304.398 462.736 306.165 467.145 306.165C471.553 306.165 475.535 304.398 478.464 301.538C476.344 297.436 472.077 294.637 467.145 294.637C462.212 294.637 457.945 297.436 455.825 301.538Z" fill="#4fb8ff"></path>
<path fill-rule="evenodd" clip-rule="evenodd" d="M467.144 280.705C463.961 280.705 461.38 283.286 461.38 286.469C461.38 289.653 463.961 292.233 467.144 292.233C470.328 292.233 472.909 289.653 472.909 286.469C472.909 283.286 470.328 280.705 467.144 280.705ZM458.978 286.469C458.978 281.959 462.634 278.303 467.144 278.303C471.655 278.303 475.311 281.959 475.311 286.469C475.311 290.98 471.655 294.636 467.144 294.636C462.634 294.636 458.978 290.98 458.978 286.469Z" fill="#4fb8ff"></path>
<path d="M493.927 287.248H547.283V293.434H493.927V287.248Z" fill="#DEE2FC"></path>
<path d="M493.927 299.242H547.283V305.428H493.927V299.242Z" fill="#DEE2FC"></path>
<path d="M449.73 318.195H547.282V324.381H449.73V318.195Z" fill="#DEE2FC"></path>
<path d="M468.843 234.866C468.843 233.057 470.31 231.59 472.119 231.59H534.494C536.303 231.59 537.77 233.057 537.77 234.866V242.285C537.77 244.095 536.303 245.562 534.494 245.562H472.119C470.31 245.562 468.843 244.095 468.843 242.285V234.866Z" fill="#1A2370"></path>
<path d="M468.843 542.406C468.843 541.959 469.206 541.596 469.653 541.596H536.959C537.407 541.596 537.77 541.959 537.77 542.406C537.77 542.854 537.407 543.217 536.959 543.217H469.653C469.206 543.217 468.843 542.854 468.843 542.406Z" fill="#461bc2"></path>
<path fill-rule="evenodd" clip-rule="evenodd" d="M583.208 207.167C583.208 206.374 583.851 205.73 584.645 205.73H650.644C651.437 205.73 652.081 206.374 652.081 207.167C652.081 207.961 651.437 208.604 650.644 208.604H584.645C583.851 208.604 583.208 207.961 583.208 207.167Z" fill="#461bc2"></path>
<path fill-rule="evenodd" clip-rule="evenodd" d="M606.293 191.841C606.293 191.048 606.936 190.404 607.73 190.404H637.999C638.793 190.404 639.436 191.048 639.436 191.841C639.436 192.635 638.793 193.278 637.999 193.278H607.73C606.936 193.278 606.293 192.635 606.293 191.841Z" fill="#461bc2"></path>
<path fill-rule="evenodd" clip-rule="evenodd" d="M583.208 191.841C583.208 191.048 583.851 190.404 584.645 190.404H599.205C599.998 190.404 600.642 191.048 600.642 191.841C600.642 192.635 599.998 193.278 599.205 193.278H584.645C583.851 193.278 583.208 192.635 583.208 191.841Z" fill="#461bc2"></path>
<path fill-rule="evenodd" clip-rule="evenodd" d="M606.293 184.177C606.293 183.384 606.936 182.74 607.73 182.74H637.999C638.793 182.74 639.436 183.384 639.436 184.177C639.436 184.971 638.793 185.614 637.999 185.614H607.73C606.936 185.614 606.293 184.971 606.293 184.177Z" fill="#461bc2"></path>
<path fill-rule="evenodd" clip-rule="evenodd" d="M583.208 184.177C583.208 183.384 583.851 182.74 584.644 182.74H599.204C599.998 182.74 600.641 183.384 600.641 184.177C600.641 184.971 599.998 185.614 599.204 185.614H584.644C583.851 185.614 583.208 184.971 583.208 184.177Z" fill="#461bc2"></path>
<path fill-rule="evenodd" clip-rule="evenodd" d="M622.577 199.503C622.577 198.71 623.22 198.066 624.014 198.066H637.999C638.793 198.066 639.436 198.71 639.436 199.503C639.436 200.297 638.793 200.94 637.999 200.94H624.014C623.22 200.94 622.577 200.297 622.577 199.503Z" fill="#461bc2"></path>
<path fill-rule="evenodd" clip-rule="evenodd" d="M583.208 199.503C583.208 198.71 583.851 198.066 584.645 198.066H615.776C616.57 198.066 617.213 198.71 617.213 199.503C617.213 200.297 616.57 200.94 615.776 200.94H584.645C583.851 200.94 583.208 200.297 583.208 199.503Z" fill="#461bc2"></path>
<path d="M585.666 60.3223H570.376V75.6127H585.666V60.3223Z" fill="#461bc2"></path>
<path d="M607.991 60.3223H592.7V75.6127H607.991V60.3223Z" fill="#461bc2"></path>
<path d="M630.313 60.3223H615.023V75.6127H630.313V60.3223Z" fill="#461bc2"></path>
<path d="M652.435 60.3223H637.144V75.6127H652.435V60.3223Z" fill="#461bc2"></path>
<path d="M585.666 36.9785H570.375V52.2689H585.666V36.9785Z" fill="#461bc2"></path>
<path d="M607.991 36.9785H592.7V52.2689H607.991V36.9785Z" fill="#461bc2"></path>
<path d="M630.313 36.9785H615.023V52.2689H630.313V36.9785Z" fill="#461bc2"></path>
<path d="M673.974 166.622H587.63C583.172 166.622 579.474 163.033 579.474 158.466V103.006C579.474 98.547 583.063 94.8496 587.63 94.8496H673.974C678.433 94.8496 682.13 98.4382 682.13 103.006V158.466C682.021 162.924 678.433 166.622 673.974 166.622Z" fill="#461bc2"></path>
<path opacity="0.8" d="M604.857 104.42H589.152V108.552H604.857V104.42Z" fill="#F2F4FF"></path>
<path opacity="0.8" d="M672.908 118.021C672.908 116.332 671.539 114.963 669.85 114.963H648.713C647.024 114.963 645.655 116.332 645.655 118.021V137.777C645.655 139.466 647.024 140.835 648.713 140.835H669.85C671.539 140.835 672.908 139.466 672.908 137.777V118.021Z" fill="#F2F4FF"></path>
<path opacity="0.8" fill-rule="evenodd" clip-rule="evenodd" d="M636.021 116.928H589.152V114.963H636.021V116.928Z" fill="#F2F4FF"></path>
<path opacity="0.8" fill-rule="evenodd" clip-rule="evenodd" d="M614.163 121.713H589.152V119.748H614.163V121.713Z" fill="#F2F4FF"></path>
<path opacity="0.8" fill-rule="evenodd" clip-rule="evenodd" d="M622.102 136.683C622.102 138.372 620.733 139.742 619.044 139.742H592.21C590.521 139.742 589.152 138.372 589.152 136.683V127.591C589.152 125.902 590.521 124.533 592.21 124.533H619.044C620.733 124.533 622.102 125.902 622.102 127.591V136.683Z" fill="#F2F4FF"></path>
<path opacity="0.8" fill-rule="evenodd" clip-rule="evenodd" d="M641.39 136.683C641.39 138.372 640.021 139.742 638.332 139.742H629.423C627.734 139.742 626.365 138.372 626.365 136.683V127.591C626.365 125.902 627.734 124.533 629.423 124.533H638.332C640.021 124.533 641.39 125.902 641.39 127.591V136.683Z" fill="#F2F4FF"></path>
<path opacity="0.8" fill-rule="evenodd" clip-rule="evenodd" d="M636.022 121.713H617.644V119.748H636.022V121.713Z" fill="#F2F4FF"></path>
<path d="M623.517 158.408H593.938C591.219 158.408 589.044 156.233 589.044 153.515C589.044 150.796 591.219 148.621 593.938 148.621H623.517C626.235 148.621 628.41 150.796 628.41 153.515C628.519 156.125 626.235 158.408 623.517 158.408Z" fill="#F2F4FF"></path>
<path d="M742.486 258.778C742.486 256.793 739.353 256.793 739.353 258.778C739.353 260.762 742.486 260.762 742.486 258.778Z" fill="#4fb8ff"></path>
<path d="M743.844 270.055C743.844 268.071 740.711 268.071 740.711 270.055C740.711 272.039 743.844 272.039 743.844 270.055Z" fill="#4fb8ff"></path>
<path d="M738.206 265.564C738.206 263.58 735.073 263.58 735.073 265.564C735.073 267.653 738.206 267.653 738.206 265.564Z" fill="#4fb8ff"></path>
<path d="M734.759 258.778C734.759 256.793 731.626 256.793 731.626 258.778C731.626 260.762 734.759 260.762 734.759 258.778Z" fill="#4fb8ff"></path>
<path d="M752.303 272.248C752.303 270.264 749.171 270.264 749.171 272.248C749.171 274.232 752.303 274.232 752.303 272.248Z" fill="#4fb8ff"></path>
<path d="M749.379 263.998C749.379 262.014 746.246 262.014 746.246 263.998C746.246 266.087 749.379 266.087 749.379 263.998Z" fill="#4fb8ff"></path>
<path d="M759.196 267.34C759.196 265.356 756.063 265.356 756.063 267.34C756.063 269.324 759.196 269.324 759.196 267.34Z" fill="#4fb8ff"></path>
<path d="M763.162 258.778C763.162 256.793 760.029 256.793 760.029 258.778C760.029 260.762 763.162 260.762 763.162 258.778Z" fill="#4fb8ff"></path>
<path d="M776.635 259.09C776.635 257.106 773.502 257.106 773.502 259.09C773.502 261.178 776.635 261.178 776.635 259.09Z" fill="#4fb8ff"></path>
<path d="M783.107 271.621C783.107 269.637 779.975 269.637 779.975 271.621C779.975 273.605 783.107 273.605 783.107 271.621Z" fill="#4fb8ff"></path>
<path d="M785.823 291.254C785.823 289.27 782.69 289.27 782.69 291.254C782.69 293.238 785.823 293.238 785.823 291.254Z" fill="#4fb8ff"></path>
<path d="M790 286.031C790 284.047 786.867 284.047 786.867 286.031C786.867 288.016 790 288.016 790 286.031Z" fill="#4fb8ff"></path>
<path d="M788.435 309.633C788.435 307.649 785.302 307.649 785.302 309.633C785.302 311.617 788.435 311.617 788.435 309.633Z" fill="#4fb8ff"></path>
<path d="M790 330.936C790 328.952 786.867 328.952 786.867 330.936C786.867 332.92 790 332.92 790 330.936Z" fill="#4fb8ff"></path>
<path d="M783.107 262.85C783.107 260.866 779.975 260.866 779.975 262.85C779.975 264.834 783.107 264.834 783.107 262.85Z" fill="#4fb8ff"></path>
<path d="M783.107 280.08C783.107 278.096 779.975 278.096 779.975 280.08C779.975 282.169 783.107 282.169 783.107 280.08Z" fill="#4fb8ff"></path>
<path d="M759.196 276.633C759.196 274.649 756.063 274.649 756.063 276.633C756.063 278.617 759.196 278.617 759.196 276.633Z" fill="#4fb8ff"></path>
<path d="M738.206 274.86C738.206 272.876 735.073 272.876 735.073 274.86C735.073 276.844 738.206 276.844 738.206 274.86Z" fill="#4fb8ff"></path>
<path d="M766.505 272.248C766.505 270.264 763.372 270.264 763.372 272.248C763.372 274.232 766.505 274.232 766.505 272.248Z" fill="#4fb8ff"></path>
<path d="M786.868 300.129C786.868 298.145 783.736 298.145 783.736 300.129C783.736 302.113 786.868 302.113 786.868 300.129Z" fill="#4fb8ff"></path>
<path d="M786.868 319.24C786.868 317.256 783.736 317.256 783.736 319.24C783.736 321.225 786.868 321.225 786.868 319.24Z" fill="#4fb8ff"></path>
<path d="M790 273.92C790 271.936 786.867 271.936 786.867 273.92C786.867 276.008 790 276.008 790 273.92Z" fill="#4fb8ff"></path>
<path d="M774.65 274.86C774.65 272.876 771.517 272.876 771.517 274.86C771.517 276.844 774.65 276.844 774.65 274.86Z" fill="#4fb8ff"></path>
<path d="M776.635 267.34C776.635 265.356 773.502 265.356 773.502 267.34C773.502 269.324 776.635 269.324 776.635 267.34Z" fill="#4fb8ff"></path>
<path d="M776.635 285.092C776.635 283.108 773.502 283.108 773.502 285.092C773.502 287.18 776.635 287.18 776.635 285.092Z" fill="#4fb8ff"></path>
<path d="M768.697 263.998C768.697 262.014 765.564 262.014 765.564 263.998C765.564 266.087 768.697 266.087 768.697 263.998Z" fill="#4fb8ff"></path>
<path d="M754.286 259.09C754.286 257.106 751.154 257.106 751.154 259.09C751.154 261.178 754.286 261.178 754.286 259.09Z" fill="#4fb8ff"></path>
<path d="M648.152 577.088C648.152 579.072 651.284 579.072 651.284 577.088C651.284 575.104 648.152 575.104 648.152 577.088Z" fill="#4fb8ff"></path>
<path d="M646.794 565.81C646.794 567.794 649.927 567.794 649.927 565.81C649.927 563.826 646.794 563.826 646.794 565.81Z" fill="#4fb8ff"></path>
<path d="M652.432 570.301C652.432 572.285 655.565 572.285 655.565 570.301C655.565 568.212 652.432 568.212 652.432 570.301Z" fill="#4fb8ff"></path>
<path d="M655.878 577.088C655.878 579.072 659.011 579.072 659.011 577.088C659.011 575.104 655.878 575.104 655.878 577.088Z" fill="#4fb8ff"></path>
<path d="M638.334 563.617C638.334 565.601 641.467 565.601 641.467 563.617C641.467 561.633 638.334 561.633 638.334 563.617Z" fill="#4fb8ff"></path>
<path d="M641.259 571.867C641.259 573.851 644.392 573.851 644.392 571.867C644.392 569.779 641.259 569.779 641.259 571.867Z" fill="#4fb8ff"></path>
<path d="M631.444 568.525C631.444 570.509 634.576 570.509 634.576 568.525C634.576 566.541 631.444 566.541 631.444 568.525Z" fill="#4fb8ff"></path>
<path d="M627.474 577.088C627.474 579.072 630.606 579.072 630.606 577.088C630.606 575.104 627.474 575.104 627.474 577.088Z" fill="#4fb8ff"></path>
<path d="M614.003 576.775C614.003 578.759 617.136 578.759 617.136 576.775C617.136 574.687 614.003 574.687 614.003 576.775Z" fill="#4fb8ff"></path>
<path d="M607.528 564.244C607.528 566.228 610.661 566.228 610.661 564.244C610.661 562.26 607.528 562.26 607.528 564.244Z" fill="#4fb8ff"></path>
<path d="M604.815 544.611C604.815 546.595 607.948 546.595 607.948 544.611C607.948 542.627 604.815 542.627 604.815 544.611Z" fill="#4fb8ff"></path>
<path d="M600.638 549.834C600.638 551.818 603.771 551.818 603.771 549.834C603.771 547.85 600.638 547.85 600.638 549.834Z" fill="#4fb8ff"></path>
<path d="M602.205 526.232C602.205 528.216 605.337 528.216 605.337 526.232C605.337 524.248 602.205 524.248 602.205 526.232Z" fill="#4fb8ff"></path>
<path d="M600.638 504.929C600.638 506.914 603.771 506.914 603.771 504.929C603.771 502.945 600.638 502.945 600.638 504.929Z" fill="#4fb8ff"></path>
<path d="M607.528 573.015C607.528 574.999 610.661 574.999 610.661 573.015C610.661 571.031 607.528 571.031 607.528 573.015Z" fill="#4fb8ff"></path>
<path d="M607.528 555.785C607.528 557.769 610.661 557.769 610.661 555.785C610.661 553.697 607.528 553.697 607.528 555.785Z" fill="#4fb8ff"></path>
<path d="M631.444 559.23C631.444 561.214 634.576 561.214 634.576 559.23C634.576 557.246 631.444 557.246 631.444 559.23Z" fill="#4fb8ff"></path>
<path d="M652.432 561.006C652.432 562.99 655.565 562.99 655.565 561.006C655.565 559.022 652.432 559.022 652.432 561.006Z" fill="#4fb8ff"></path>
<path d="M624.133 563.617C624.133 565.601 627.266 565.601 627.266 563.617C627.266 561.633 624.133 561.633 624.133 563.617Z" fill="#4fb8ff"></path>
<path d="M603.769 535.736C603.769 537.72 606.902 537.72 606.902 535.736C606.902 533.752 603.769 533.752 603.769 535.736Z" fill="#4fb8ff"></path>
<path d="M603.769 516.625C603.769 518.609 606.902 518.609 606.902 516.625C606.902 514.641 603.769 514.641 603.769 516.625Z" fill="#4fb8ff"></path>
<path d="M600.638 561.945C600.638 563.929 603.771 563.929 603.771 561.945C603.771 559.857 600.638 559.857 600.638 561.945Z" fill="#4fb8ff"></path>
<path d="M615.988 561.006C615.988 562.99 619.121 562.99 619.121 561.006C619.121 559.022 615.988 559.022 615.988 561.006Z" fill="#4fb8ff"></path>
<path d="M614.003 568.525C614.003 570.509 617.136 570.509 617.136 568.525C617.136 566.541 614.003 566.541 614.003 568.525Z" fill="#4fb8ff"></path>
<path d="M614.003 550.773C614.003 552.758 617.136 552.758 617.136 550.773C617.136 548.685 614.003 548.685 614.003 550.773Z" fill="#4fb8ff"></path>
<path d="M621.941 571.867C621.941 573.851 625.073 573.851 625.073 571.867C625.073 569.779 621.941 569.779 621.941 571.867Z" fill="#4fb8ff"></path>
<path d="M636.351 576.775C636.351 578.759 639.484 578.759 639.484 576.775C639.484 574.687 636.351 574.687 636.351 576.775Z" fill="#4fb8ff"></path>
<path d="M666.032 278.526C670.052 273.424 688.828 273.424 692.847 278.526C694.518 280.647 692.847 284.408 692.847 284.408H666.032C666.032 284.408 664.361 280.647 666.032 278.526Z" fill="#461bc2"></path>
<path d="M201.504 61.9355H197.587L199.493 64.7825L201.504 61.9355Z" fill="#1CCBAC"></path>
<path d="M156.345 61.9355H152.428L154.335 64.7825L156.345 61.9355Z" fill="#1CCBAC"></path>
<path d="M246.66 61.9355H242.743L244.65 64.7825L246.66 61.9355Z" fill="#1CCBAC"></path>
<path d="M291.819 61.9355H287.902L289.809 64.7825L291.819 61.9355Z" fill="#1CCBAC"></path>
<path fill-rule="evenodd" clip-rule="evenodd" d="M64.6245 97.1955L64.6245 55.0215L65.6439 55.0215L65.6439 97.1955L64.6245 97.1955Z" fill="#461bc2"></path>
<path fill-rule="evenodd" clip-rule="evenodd" d="M71.5977 97.1957V21.4238H72.617V97.1957H71.5977Z" fill="#461bc2"></path>
<path fill-rule="evenodd" clip-rule="evenodd" d="M57.6531 97.1949L57.6531 70.6172L58.6724 70.6172L58.6724 97.1949L57.6531 97.1949Z" fill="#461bc2"></path>
<path fill-rule="evenodd" clip-rule="evenodd" d="M48.9635 46.2049H40.6973V54.4711H48.9635V46.2049ZM39.678 45.1855V55.4905H49.9829V45.1855H39.678Z" fill="#461bc2"></path>
<path d="M46.2898 51.8008H54.755V60.266H46.2898V51.8008Z" fill="#9f8aff"></path>
<path fill-rule="evenodd" clip-rule="evenodd" d="M776.777 570.012L776.777 527.838L777.796 527.838L777.796 570.012L776.777 570.012Z" fill="#461bc2"></path>
<path fill-rule="evenodd" clip-rule="evenodd" d="M783.751 570.012V494.24H784.77V570.012H783.751Z" fill="#461bc2"></path>
<path fill-rule="evenodd" clip-rule="evenodd" d="M769.804 570.011L769.804 543.434L770.824 543.434L770.824 570.011L769.804 570.011Z" fill="#461bc2"></path>
<path fill-rule="evenodd" clip-rule="evenodd" d="M761.116 519.021H752.85V527.288H761.116V519.021ZM751.83 518.002V528.307H762.135V518.002H751.83Z" fill="#461bc2"></path>
<path d="M758.442 524.617H766.907V533.082H758.442V524.617Z" fill="#9f8aff"></path>
<path d="M144.014 369.133H194.74V419.859H144.014V369.133Z" fill="#461bc2"></path>
<path d="M154.764 379.883H163.643V388.762H154.764V379.883Z" fill="#9f8aff"></path>
<path d="M154.764 399.377H163.643V408.256H154.764V399.377Z" fill="#9f8aff"></path>
<path d="M176.28 379.883H185.16V388.762H176.28V379.883Z" fill="#9f8aff"></path>
<path d="M176.28 399.377H185.16V408.256H176.28V399.377Z" fill="#9f8aff"></path>
<path fill-rule="evenodd" clip-rule="evenodd" d="M213.561 384.387C214.124 384.387 214.58 384.843 214.58 385.406V400.942C214.58 401.505 214.124 401.961 213.561 401.961C212.998 401.961 212.541 401.505 212.541 400.942V385.406C212.541 384.843 212.998 384.387 213.561 384.387Z" fill="#4fb8ff"></path>
<path fill-rule="evenodd" clip-rule="evenodd" d="M222.349 393.174C222.349 392.611 221.892 392.155 221.329 392.155L205.793 392.155C205.23 392.155 204.774 392.611 204.774 393.174C204.774 393.737 205.23 394.193 205.793 394.193L221.329 394.193C221.892 394.193 222.349 393.737 222.349 393.174Z" fill="#4fb8ff"></path>
<defs>
<filter id="filter0_d" x="448.814" y="51.2319" width="111.492" height="52.5727" filterUnits="userSpaceOnUse" color-interpolation-filters="sRGB">
<feFlood flood-opacity="0" result="BackgroundImageFix"></feFlood>
<feColorMatrix in="SourceAlpha" type="matrix" values="0 0 0 0 0 0 0 0 0 0 0 0 0 0 0 0 0 0 127 0"></feColorMatrix>
<feOffset dy="9.39702"></feOffset>
<fegaussianblur stdDeviation="9.39702"></fegaussianblur>
<feColorMatrix type="matrix" values="0 0 0 0 0 0 0 0 0 0 0 0 0 0 0 0 0 0 0.06 0"></feColorMatrix>
<feBlend mode="normal" in2="BackgroundImageFix" result="effect1_dropShadow"></feBlend>
<feBlend mode="normal" in="SourceGraphic" in2="effect1_dropShadow" result="shape"></feBlend>
</filter>
</defs>
</svg>
