<svg width="200" height="150" viewBox="0 0 800 600" fill="none" xmlns="http://www.w3.org/2000/svg" data-reactroot="">
<path d="M767.875 323.271L738.397 337.37V403.208L744.016 400.35L768.466 374.816L767.875 323.271Z" fill="#4fb8ff"></path>
<rect x="73.3545" y="419.128" width="176.588" height="55.1396" fill="#461bc2"></rect>
<rect x="483.749" y="419.128" width="240.999" height="55.1396" fill="#461bc2"></rect>
<path d="M73.3545 347.336C73.3545 346.405 74.1096 345.65 75.0411 345.65H410.122C414.779 345.65 418.555 349.425 418.555 354.083V387.152C418.555 391.809 414.779 395.585 410.122 395.585H73.3545V347.336Z" fill="#461bc2"></path>
<path d="M119.12 322.727L68.6123 336.523H739.876L768.803 322.727L119.12 322.727Z" fill="#9f8aff"></path>
<path fill-rule="evenodd" clip-rule="evenodd" d="M739.66 336.542L69.5484 336.542C64.8909 336.542 61.1152 340.318 61.1152 344.975L61.1153 396.259C61.1153 400.917 64.8909 404.692 69.5485 404.692H739.66V336.542ZM737.814 338.229H69.5484C65.8224 338.229 62.8019 341.249 62.8019 344.975L62.8019 396.259C62.8019 399.985 65.8224 403.006 69.5485 403.006H737.814V338.229Z" fill="#4fb8ff"></path>
<path d="M434.555 354.083C434.555 349.425 438.33 345.65 442.988 345.65H724.748V395.585H442.988C438.33 395.585 434.555 391.809 434.555 387.152V354.083Z" fill="#461bc2"></path>
<rect x="560.004" y="367.654" width="35.1466" height="6.88077" rx="3.44039" fill="#4fb8ff"></rect>
<rect x="562.077" y="367.654" width="35.1466" height="5.92643" rx="2.96322" fill="#9f8aff"></rect>
<rect x="226.382" y="367.654" width="35.1466" height="6.88077" rx="3.44039" fill="#4fb8ff"></rect>
<rect x="228.382" y="367.654" width="35.1466" height="5.92643" rx="2.96322" fill="#1C1C1C"></rect>
<rect x="228.382" y="367.654" width="35.1466" height="5.92643" rx="2.96322" fill="#9f8aff"></rect>
<path d="M186.982 329.19C186.982 330.163 167.224 330.976 154.242 330.976C141.259 330.976 138.809 331.008 138.809 330.035C138.809 329.063 141.259 328.274 154.242 328.274C167.224 328.274 186.982 328.218 186.982 329.19Z" fill="black" fill-opacity="0.18"></path>
<path fill-rule="evenodd" clip-rule="evenodd" d="M139.7 288.817C136.9 288.817 134.615 291.091 134.87 293.879C136.281 309.315 144.085 329.423 164.61 329.423C186.296 329.423 193.66 309.316 194.969 293.88C195.206 291.09 192.92 288.817 190.121 288.817H139.7Z" fill="#9f8aff"></path>
<path fill-rule="evenodd" clip-rule="evenodd" d="M192.247 303.479L192.246 303.48L192.244 303.481L192.257 303.474C192.271 303.466 192.297 303.452 192.333 303.433C192.405 303.395 192.519 303.335 192.668 303.261C192.968 303.111 193.404 302.905 193.929 302.688C195.01 302.241 196.323 301.811 197.537 301.672C198.802 301.527 199.468 301.749 199.783 301.995C200.005 302.168 200.648 302.82 200.648 305.172C200.648 307.995 199.024 310.898 196.498 312.686C194.036 314.428 191.015 314.918 188.168 313.456C186.718 312.712 184.939 313.284 184.194 314.734C183.449 316.184 184.021 317.963 185.471 318.708C190.606 321.344 195.975 320.288 199.908 317.504C203.777 314.766 206.552 310.166 206.552 305.172C206.552 301.792 205.595 299.044 203.417 297.343C201.333 295.714 198.799 295.585 196.865 295.807C194.879 296.035 192.993 296.688 191.674 297.232C190.999 297.512 190.435 297.778 190.035 297.978C189.834 298.078 189.673 298.162 189.558 298.223C189.5 298.254 189.454 298.279 189.42 298.297L189.378 298.32L189.364 298.328L189.359 298.331L189.356 298.332C189.355 298.333 189.355 298.333 190.802 300.906L189.355 298.333C187.934 299.133 187.43 300.932 188.229 302.353C189.027 303.772 190.824 304.277 192.244 303.481" fill="#9f8aff"></path>
<path d="M140.931 189.484C139.091 173.864 160.246 166.109 168.99 160.59C165.679 166.109 149.336 174.88 152.137 186.683C155.211 199.634 177.093 188.869 183.21 200.691C191.202 216.138 161.593 225.398 157.219 242.231C153.062 258.232 168.99 284.071 168.99 284.071C168.99 284.071 140.193 255.87 138.894 244.752C137.054 229.005 165.809 227.771 163.089 212.152C160.965 199.956 142.379 201.778 140.931 189.484Z" fill="black" fill-opacity="0.18"></path>
<path d="M166.767 245.981C166.042 239.825 177.91 232.454 181.356 230.28C180.051 232.454 171.773 241.33 172.877 245.981C174.088 251.084 183.322 250.006 185.733 254.664C188.027 259.1 175.52 278.007 175.52 278.007C175.52 278.007 177.5 269.992 175.52 258.624C174.683 253.819 167.337 250.825 166.767 245.981Z" fill="black" fill-opacity="0.18"></path>
<path d="M141.695 224.026C142.42 217.87 130.552 210.499 127.106 208.325C128.411 210.499 136.689 219.375 135.585 224.026C134.374 229.129 125.14 228.051 122.73 232.709C120.435 237.145 139.114 258.625 139.114 258.625C139.114 258.625 130.962 248.037 132.942 236.669C133.779 231.864 141.125 228.87 141.695 224.026Z" fill="black" fill-opacity="0.18"></path>
<rect x="445.363" y="291.245" width="73.0803" height="31.1163" fill="#461bc2"></rect>
<path d="M445.363 291.245H518.444V294.885L445.363 300.94V291.245Z" fill="black" fill-opacity="0.18"></path>
<rect x="366.655" y="322.361" width="230.495" height="8.28127" fill="#461bc2"></rect>
<rect x="299.629" y="111.131" width="364.548" height="180.113" rx="10.1198" fill="#461bc2"></rect>
<rect x="311.737" y="119.725" width="340.33" height="162.926" rx="10.1198" fill="white"></rect>
<rect x="334.851" y="136.019" width="213.376" height="103.647" rx="7.73224" fill="#461bc2"></rect>
<path fill-rule="evenodd" clip-rule="evenodd" d="M548.227 223.811V231.934C548.227 236.204 544.765 239.666 540.495 239.666H342.583C338.312 239.666 334.851 236.204 334.851 231.934V223.811H548.227Z" fill="#9f8aff"></path>
<rect x="415.246" y="173.682" width="42.6993" height="29.0361" rx="4.4313" fill="#9f8aff"></rect>
<path d="M443.691 187.261C444.414 187.678 444.414 188.722 443.691 189.139L433.862 194.814C433.139 195.231 432.236 194.709 432.236 193.874L432.236 182.526C432.236 181.691 433.139 181.169 433.862 181.586L443.691 187.261Z" fill="#4fb8ff"></path>
<rect x="334.851" y="247.078" width="213.377" height="5.62102" fill="#9f8aff"></rect>
<rect x="334.851" y="259.287" width="213.377" height="23.3645" fill="#4fb8ff"></rect>
<rect x="566.191" y="136.019" width="30.1698" height="22.4378" rx="3.31374" fill="#461bc2"></rect>
<rect x="602.794" y="136.019" width="30.1698" height="22.4378" rx="3.31374" fill="#461bc2"></rect>
<rect x="566.191" y="164.888" width="30.1698" height="22.4378" rx="3.31374" fill="#461bc2"></rect>
<rect x="602.794" y="164.888" width="30.1698" height="22.4378" rx="3.31374" fill="#461bc2"></rect>
<rect x="566.191" y="193.758" width="30.1698" height="22.4378" rx="3.31374" fill="#461bc2"></rect>
<rect x="602.794" y="193.758" width="30.1698" height="22.4378" rx="3.31374" fill="#461bc2"></rect>
<rect x="566.191" y="222.627" width="30.1698" height="22.4378" rx="3.31374" fill="#461bc2"></rect>
<rect x="602.794" y="222.627" width="30.1698" height="22.4378" rx="3.31374" fill="#461bc2"></rect>
<rect x="566.191" y="251.497" width="30.1698" height="22.4378" rx="3.31374" fill="#461bc2"></rect>
<rect x="602.794" y="251.497" width="30.1698" height="22.4378" rx="3.31374" fill="#461bc2"></rect>
<path d="M585.973 146.616C586.452 146.892 586.452 147.583 585.973 147.859L579.467 151.616C578.989 151.892 578.39 151.547 578.39 150.994L578.39 143.482C578.39 142.929 578.989 142.584 579.467 142.86L585.973 146.616Z" fill="#9f8aff"></path>
<path d="M622.575 146.616C623.053 146.892 623.053 147.583 622.575 147.859L616.069 151.616C615.59 151.892 614.992 151.547 614.992 150.994L614.992 143.482C614.992 142.929 615.59 142.584 616.069 142.86L622.575 146.616Z" fill="#9f8aff"></path>
<path d="M585.973 175.486C586.452 175.762 586.452 176.453 585.973 176.729L579.467 180.485C578.989 180.762 578.39 180.416 578.39 179.864L578.39 172.351C578.39 171.799 578.989 171.453 579.467 171.73L585.973 175.486Z" fill="#9f8aff"></path>
<path d="M622.575 175.486C623.053 175.762 623.053 176.453 622.575 176.729L616.069 180.485C615.59 180.762 614.992 180.416 614.992 179.864L614.992 172.351C614.992 171.799 615.59 171.453 616.069 171.73L622.575 175.486Z" fill="#9f8aff"></path>
<path d="M585.973 204.355C586.452 204.632 586.452 205.322 585.973 205.599L579.467 209.355C578.989 209.631 578.39 209.286 578.39 208.733L578.39 201.221C578.39 200.668 578.989 200.323 579.467 200.599L585.973 204.355Z" fill="#9f8aff"></path>
<path d="M622.575 204.355C623.053 204.632 623.053 205.322 622.575 205.599L616.069 209.355C615.59 209.631 614.992 209.286 614.992 208.733L614.992 201.221C614.992 200.668 615.59 200.323 616.069 200.599L622.575 204.355Z" fill="#9f8aff"></path>
<path d="M585.973 233.226C586.452 233.502 586.452 234.193 585.973 234.469L579.467 238.225C578.989 238.501 578.39 238.156 578.39 237.603L578.39 230.091C578.39 229.538 578.989 229.193 579.467 229.469L585.973 233.226Z" fill="#9f8aff"></path>
<path d="M622.575 233.226C623.053 233.502 623.053 234.193 622.575 234.469L616.069 238.225C615.59 238.501 614.992 238.156 614.992 237.603L614.992 230.091C614.992 229.538 615.59 229.193 616.069 229.469L622.575 233.226Z" fill="#9f8aff"></path>
<path d="M585.973 262.095C586.452 262.371 586.452 263.062 585.973 263.338L579.467 267.095C578.989 267.371 578.39 267.026 578.39 266.473L578.39 258.961C578.39 258.408 578.989 258.063 579.467 258.339L585.973 262.095Z" fill="#9f8aff"></path>
<path d="M622.575 262.095C623.053 262.371 623.053 263.062 622.575 263.338L616.069 267.094C615.59 267.371 614.992 267.025 614.992 266.473L614.992 258.96C614.992 258.408 615.59 258.062 616.069 258.338L622.575 262.095Z" fill="#9f8aff"></path>
<g opacity="0.65">
<path d="M339.637 223.811L544.051 223.811" stroke="#78D2EE" stroke-width="1.68664" stroke-linecap="round"></path>
</g>
<path d="M148.854 291.585C151.877 299.999 155.248 309.38 163.635 316.781C168.203 320.812 173.581 322.99 178.256 324.883C178.657 325.045 179.053 325.206 179.442 325.365C175.47 327.898 170.583 329.423 164.61 329.423C144.085 329.423 136.281 309.315 134.87 293.879C134.615 291.091 136.9 288.817 139.7 288.817H147.851C148.185 289.725 148.517 290.649 148.854 291.585Z" fill="black" fill-opacity="0.18"></path>
<path d="M659.016 330.507C659.12 331.015 648.802 331.015 635.82 331.015C622.837 331.015 620.387 331.046 620.387 330.074C620.387 329.101 622.837 328.313 635.82 328.313C648.802 328.313 658.677 328.848 659.016 330.507Z" fill="black" fill-opacity="0.18"></path>
<path fill-rule="evenodd" clip-rule="evenodd" d="M629.08 330.317C627.472 330.3 626.059 329.148 625.986 327.541C625.628 319.645 630.836 315.15 638.499 315.15C648.752 315.15 659.327 321.161 659.327 328.733C659.327 329.844 658.339 330.633 657.229 330.621L629.08 330.317Z" fill="#461bc2"></path>
<path fill-rule="evenodd" clip-rule="evenodd" d="M263.436 404.142C263.902 404.142 264.279 404.52 264.279 404.985V536.154C264.279 536.62 263.902 536.998 263.436 536.998C262.97 536.998 262.593 536.62 262.593 536.154V404.985C262.593 404.52 262.97 404.142 263.436 404.142Z" fill="#4fb8ff"></path>
<path fill-rule="evenodd" clip-rule="evenodd" d="M470.256 403.335C470.722 403.335 471.1 403.712 471.1 404.178V535.347C471.1 535.813 470.722 536.19 470.256 536.19C469.791 536.19 469.413 535.813 469.413 535.347V404.178C469.413 403.712 469.791 403.335 470.256 403.335Z" fill="#4fb8ff"></path>
<rect x="73.3545" y="481.015" width="176.588" height="55.1396" fill="#461bc2"></rect>
<rect x="483.749" y="481.015" width="240.999" height="55.1396" fill="#461bc2"></rect>
<rect x="142.075" y="443.735" width="35.1466" height="6.88077" rx="3.44039" fill="#4fb8ff"></rect>
<rect x="142.075" y="505.621" width="35.1466" height="6.88077" rx="3.44039" fill="#4fb8ff"></rect>
<rect x="584.675" y="443.735" width="35.1466" height="6.88077" rx="3.44039" fill="#4fb8ff"></rect>
<rect x="584.675" y="505.621" width="35.1466" height="6.88077" rx="3.44039" fill="#4fb8ff"></rect>
<rect x="586.675" y="505.621" width="35.1466" height="5.92643" rx="2.96322" fill="#9f8aff"></rect>
<path d="M738.705 403.569V535.733" stroke="#78D2EE" stroke-width="1.68664" stroke-linecap="round"></path>
<path d="M738.397 535.347L758.152 515.897" stroke="#78D2EE" stroke-width="1.68664" stroke-linecap="round"></path>
<rect x="144.075" y="505.621" width="35.1466" height="5.92643" rx="2.96322" fill="#9f8aff"></rect>
<rect x="144.075" y="443.735" width="35.1466" height="5.92643" rx="2.96322" fill="#9f8aff"></rect>
<rect x="586.675" y="443.735" width="35.1466" height="5.92643" rx="2.96322" fill="#9f8aff"></rect>
</svg>
